<?xml version="1.0" encoding="utf-8"?>
<!-- Generator: Adobe Illustrator 24.1.1, SVG Export Plug-In . SVG Version: 6.00 Build 0)  -->
<svg version="1.1" id="Layer_1" xmlns="http://www.w3.org/2000/svg" xmlns:xlink="http://www.w3.org/1999/xlink" x="0px" y="0px"
	 viewBox="0 0 647 283" style="enable-background:new 0 0 647 283;" xml:space="preserve">
<style type="text/css">
	.st0{fill:#06B1C3;}
	.st1{fill:#3693C1;}
	.st2{fill:#28A0B3;}
	.st3{fill:#0C8389;}
	.st4{fill:#0F6E84;}
	.st5{opacity:0.2;}
	.st6{fill:#F25A46;}
	.st7{fill:#AA1307;}
	.st8{fill:#FED573;}
</style>
<g>
	<g>
		<path class="st0" d="M391.6,166.6c0.1,2.8,0,5.6-0.2,8.3c-0.1,0.8-0.1,1.4-0.2,2.1c-0.1,1.2-0.2,2.4-0.3,3.6
			c-0.5,4.3-1.3,8.6-2.4,12.8c-0.5,2.3-1.2,4.5-1.9,6.7c-0.5,1.5-1,2.9-1.5,4.5c-2.9,7.7-6.7,15.1-11.3,22c-2.4,3.6-5.1,7.1-8,10.3
			c-2.9,3.4-6.1,6.5-9.4,9.5c-6.8,6.1-14.3,11.3-22.7,15.4l-0.2,0.1c-6.8,3.5-14.1,6.1-21.9,8c-9,2.2-18.1,3.2-27,3.1h-0.1
			c-10.5-0.2-20.8-2-30.5-5.3c-7.2-2.3-14.2-5.5-20.8-9.3c-3.8-2.3-7.5-4.7-10.9-7.5c-3.7-2.8-7.2-6-10.5-9.3
			c-2.1-2.1-4.2-4.4-6.1-6.8c-2.3-2.7-4.4-5.6-6.4-8.5c-1.2-1.9-2.4-3.9-3.6-5.8c-1.6-2.8-3.1-5.7-4.4-8.6
			c-1.9-4.1-3.5-8.4-4.9-12.8c-0.6-2-1.2-4.1-1.7-6.2c-0.9-3.6-1.6-7.1-2-10.7c-0.1-0.6-0.2-1.3-0.3-1.9v-0.1
			c-0.1-0.3-0.1-0.7-0.1-1c0-0.2-0.1-0.3-0.1-0.5c-0.1-0.5-0.1-0.9-0.1-1.3c-0.7-7.2-0.6-14.3,0.2-21.3c0.5-4.9,1.4-9.7,2.7-14.5
			c1.7-6.7,4.2-13.2,7.2-19.4c0.6-1.4,1.3-2.8,2.1-4.1c5.5-10.2,12.7-19.5,21.2-27.4c12.6-11.7,28.3-20.4,46.1-24.7
			c17-4.2,33.9-3.9,49.8,0c2,0.5,4,1,6,1.7c8,2.4,15.8,5.9,23,10.2c4.1,2.4,8,5.1,11.7,8.2c2.9,2.2,5.7,4.7,8.3,7.3
			c5.7,5.7,10.8,12,15.2,19c2.8,4.6,5.4,9.4,7.6,14.5c0.2,0.4,0.3,0.9,0.5,1.3c0.1,0.2,0.2,0.4,0.2,0.6c1,2.4,1.9,4.9,2.7,7.4
			c0.8,2.3,1.4,4.6,2,6.9c1,4.3,1.9,8.7,2.4,13C391.3,159.6,391.6,163.1,391.6,166.6z"/>
		<path class="st1" d="M373.7,226.6c-2.4,3.6-5.1,7.1-8,10.3c-2.9,3.4-6.1,6.5-9.4,9.5c-6.8,6.1-14.3,11.3-22.7,15.4l-0.2,0.1
			L284.7,273h-0.1c-10.5-0.2-20.8-2-30.5-5.3c-7.2-2.3-14.2-5.5-20.8-9.3l123.5-28L373.7,226.6z"/>
		<path class="st2" d="M391.6,166.6c0.1,2.8,0,5.6-0.2,8.3c-0.1,0.8-0.1,1.4-0.2,2.1c-0.1,1.2-0.2,2.4-0.3,3.6
			c-0.5,4.3-1.3,8.6-2.4,12.8l-32.8,7.5l-149.9,34c-2.3-2.7-4.4-5.6-6.4-8.5c-1.2-1.9-2.4-3.9-3.6-5.8c-1.6-2.8-3.1-5.7-4.4-8.6
			l161.1-36.5L391.6,166.6z"/>
		<path class="st3" d="M386.6,136.1l-40.6,9.2l-163.3,37c-0.1-0.6-0.2-1.3-0.3-1.9v-0.1c-0.1-0.3-0.1-0.7-0.1-1
			c0-0.2-0.1-0.3-0.1-0.5c-0.1-0.5-0.1-0.9-0.1-1.3c-0.7-7.2-0.6-14.3,0.2-21.3l155.9-35.3l37.3-8.5c2.8,4.6,5.4,9.4,7.6,14.5
			c0.2,0.4,0.3,0.9,0.5,1.3c0.1,0.2,0.2,0.4,0.2,0.6C384.9,131.1,385.8,133.6,386.6,136.1z"/>
		<path class="st4" d="M352.1,86.1l-26.1,6l-133.8,30.3c0.6-1.4,1.3-2.8,2.1-4.1c5.5-10.2,12.7-19.5,21.2-27.4l97.6-22.1l4.3-1
			c8,2.4,15.8,5.9,23,10.2C344.5,80.4,348.4,83,352.1,86.1z"/>
		<path class="st5" d="M391.6,166.6c0.1,2.8,0,5.6-0.2,8.3c-0.1,0.8-0.1,1.4-0.2,2.1c-0.1,1.2-0.2,2.4-0.3,3.6
			c-0.5,4.3-1.3,8.6-2.4,12.8c-0.5,2.3-1.2,4.5-1.9,6.7c-0.5,1.5-1,2.9-1.5,4.5c-2.9,7.7-6.7,15.1-11.3,22c-2.4,3.6-5.1,7.1-8,10.3
			c-2.9,3.4-6.1,6.5-9.4,9.5c0.3-5.4,0.5-10.8,0.5-16c0.1-10.2-0.4-20.1-1.2-29.5c-0.7-8.8-1.7-17.3-3.1-25.5
			c-1.7-10.6-3.9-20.6-6.5-30.1c-2.3-8.6-4.9-16.8-7.7-24.5c-3.8-10.5-8-20.1-12.3-28.8c-4.3-8.7-8.7-16.5-12.9-23.3
			c-0.6-0.9-1.2-1.8-1.7-2.7c2,0.5,4,1,6,1.7c8,2.4,15.8,5.9,23,10.2c4.1,2.4,8,5.1,11.7,8.2c2.9,2.2,5.7,4.7,8.3,7.3
			c5.7,5.7,10.8,12,15.2,19c2.8,4.6,5.4,9.4,7.6,14.5c0.2,0.4,0.3,0.9,0.5,1.3c0.1,0.2,0.2,0.4,0.2,0.6c1,2.4,1.9,4.9,2.7,7.4
			c0.8,2.3,1.4,4.6,2,6.9c1,4.3,1.9,8.7,2.4,13C391.3,159.6,391.6,163.1,391.6,166.6z"/>
	</g>
	<path class="st6" d="M306.6,223.1c-112,27.5-207.1,32.4-212.4,10.9c-3.4-13.9,32.1-35.6,88.3-56.7c0.1,0.4,0.2,0.8,0.4,1.2
		c0.1,0.5,0.2,0.9,0.4,1.4c-26,11.9-41.2,23.2-39.2,31.2c3.9,15.9,74.5,12.3,157.6-8.1c83.1-20.4,147.3-49.8,143.4-65.7
		c-2.3-9.1-26.3-11.8-62-8.7c-0.1-0.2-0.1-0.3-0.1-0.5c-0.1-0.5-0.2-0.9-0.2-1.4c66.2-9.3,113.5-7.2,117.2,7.7
		C505.1,156.1,418.6,195.7,306.6,223.1z"/>
	<path class="st7" d="M301.4,207C203.6,231,121,237,116.9,220.4c-2.4-9.9,23.7-25.7,65.9-41.8c0.1,0.5,0.2,0.9,0.4,1.4
		c-26,11.9-41.2,23.2-39.2,31.2c3.9,15.9,74.5,12.3,157.6-8.1c83.1-20.4,147.3-49.8,143.4-65.7c-2.3-9.1-26.3-11.8-62-8.7
		c-0.1-0.2-0.1-0.3-0.1-0.5c50.5-6.7,85.5-5.3,88.1,5.3C475.1,150.2,399.1,183.1,301.4,207z"/>
</g>
<path class="st8" d="M48.8,94.7c0,9.8-7.9,17.7-17.7,17.7c-9.8,0-17.7-7.9-17.7-17.7c0-9.8,7.9-17.7,17.7-17.7
	C40.8,77,48.8,84.9,48.8,94.7z"/>
<path class="st8" d="M600.3,36.1c0,13.1-10.6,23.6-23.6,23.6c-13.1,0-23.6-10.6-23.6-23.6s10.6-23.6,23.6-23.6
	C589.8,12.4,600.3,23,600.3,36.1z"/>
<path class="st8" d="M630,158.8c0,8.2-6.6,14.8-14.8,14.8c-8.2,0-14.8-6.6-14.8-14.8c0-8.2,6.6-14.8,14.8-14.8
	C623.4,143.9,630,150.6,630,158.8z"/>
</svg>
