<?xml version="1.0" encoding="utf-8"?>
<!-- Generator: Adobe Illustrator 24.1.1, SVG Export Plug-In . SVG Version: 6.00 Build 0)  -->
<svg version="1.1" id="Layer_1" xmlns="http://www.w3.org/2000/svg" xmlns:xlink="http://www.w3.org/1999/xlink" x="0px" y="0px"
	 viewBox="0 0 347 243" style="enable-background:new 0 0 347 243;" xml:space="preserve">
<style type="text/css">
	.st0{clip-path:url(#SVGID_2_);fill:url(#SVGID_3_);}
	.st1{clip-path:url(#SVGID_2_);fill:#FFDB7B;}
	.st2{clip-path:url(#SVGID_2_);}
	.st3{fill:#CB1EAF;}
	.st4{fill:#F033CA;}
	.st5{fill:#C729A7;}
	.st6{opacity:0.14;clip-path:url(#SVGID_2_);fill:#CB1EAF;}
	.st7{opacity:0.48;clip-path:url(#SVGID_2_);fill:#FFD370;}
	.st8{opacity:0.2;}
	.st9{fill:#FFDB7B;}
	.st10{fill:url(#SVGID_4_);}
	.st11{fill:url(#SVGID_5_);}
	.st12{fill:url(#SVGID_6_);}
	.st13{fill:#FFFFFF;}
	.st14{fill:url(#SVGID_7_);}
</style>
<g>
	<g>
		<defs>
			
				<ellipse id="SVGID_1_" transform="matrix(0.7071 -0.7071 0.7071 0.7071 -18.663 160.1124)" cx="183.9" cy="102.6" rx="90.6" ry="90.6"/>
		</defs>
		<clipPath id="SVGID_2_">
			<use xlink:href="#SVGID_1_"  style="overflow:visible;"/>
		</clipPath>
		<radialGradient id="SVGID_3_" cx="279.4487" cy="13.641" r="299.3543" gradientUnits="userSpaceOnUse">
			<stop  offset="0.1924" style="stop-color:#FF4A89"/>
			<stop  offset="0.7777" style="stop-color:#AE1C89"/>
		</radialGradient>
		<circle class="st0" cx="183.9" cy="102.6" r="90.6"/>
		<path class="st1" d="M190.9,47.8c11.8,3.8,24.6,5.9,34.5,13.5c9.2,7.1,14.6,18,18.7,28.8c1.8,4.7,4.4,10.3,9.4,10.9
			c6,0.7,9.8-6.2,10.9-12.1c3.3-17.5-2.1-35.5-9.5-51.7c-5.7-12.3-13-24.6-24.7-31.6c-14-8.4-39.3-7.1-52.5,3.5
			C161.1,22.5,174.5,42.5,190.9,47.8z"/>
		<g class="st2">
			<path class="st3" d="M166.8,84.3c-2.4,0.1-4.9-0.5-7.3-0.7c-2.8-0.3-5.9-0.3-7.9-2.1c-2.5-2.3-3.3-6.4-2.8-10.5
				c-2.1,5.2-1.8,12,1.6,15.2c2,1.9,5.1,1.8,7.9,2.1c2.4,0.3,4.8,0.9,7.3,0.7c2.4-0.1,5-1.2,6.1-3.4c0.5-1.1,0.6-2.3,0.4-3.5
				C170.8,83.5,168.8,84.2,166.8,84.3z"/>
			<path class="st4" d="M163.4,68.2c-7-6.8-12.3-3.2-14.6,2.7c-0.5,4.1,0.3,8.3,2.8,10.5c2,1.9,5.1,1.8,7.9,2.1
				c2.4,0.3,4.8,0.9,7.3,0.7c2-0.1,4-0.9,5.3-2.3c-0.2-1.3-0.8-2.7-1.4-3.9C168.9,74.5,166.4,71.1,163.4,68.2z"/>
		</g>
		<g class="st2">
			<path class="st5" d="M198.9,82.7c-1.1-1.2-1.3-3-1.1-4.6c-0.3,0.7-0.5,1.3-0.6,1.9c-0.4,1.9-0.5,4.4,0.9,5.9
				c2,2.1,6.1,1.3,7.3-1.3c0.3-0.7,0.4-1.4,0.5-2.1c0-0.2,0-0.5,0-0.7C204.4,84,200.8,84.7,198.9,82.7z"/>
			<path class="st4" d="M204.9,75.7c-2.6-4.5-5.8-0.9-7.2,2.4c-0.2,1.6,0,3.4,1.1,4.6c1.9,2,5.6,1.3,7-0.9c0-0.1,0-0.2,0-0.3
				C206,79.5,205.9,77.4,204.9,75.7z"/>
		</g>
		<g class="st2">
			<path class="st5" d="M228.5,141.8c0.6-1.5,2.1-2.4,3.6-3c-0.7,0-1.4,0.1-2,0.3c-1.8,0.5-4.2,1.5-4.9,3.4c-1,2.7,1.6,6,4.4,6
				c0.7,0,1.4-0.2,2.1-0.5c0.2-0.1,0.4-0.2,0.7-0.3C229.7,147.4,227.5,144.4,228.5,141.8z"/>
			<path class="st4" d="M237.4,144.2c2.9-4.3-1.8-5.6-5.4-5.4c-1.5,0.6-3.1,1.5-3.6,3c-0.9,2.6,1.3,5.6,3.9,5.9
				c0.1,0,0.2-0.1,0.3-0.1C234.4,146.8,236.3,145.8,237.4,144.2z"/>
		</g>
		<g class="st2">
			<path class="st5" d="M180.2,71.5c0.6-0.7,1.7-0.9,2.7-0.9c-0.4-0.1-0.8-0.2-1.2-0.3c-1.1-0.1-2.7-0.1-3.5,0.9
				c-1.1,1.3-0.4,3.7,1.2,4.3c0.4,0.1,0.8,0.2,1.3,0.2c0.1,0,0.3,0,0.4,0C179.7,74.9,179.1,72.7,180.2,71.5z"/>
			<path class="st4" d="M184.7,74.7c2.6-1.8,0.2-3.5-1.9-4.2c-1,0-2,0.2-2.7,0.9c-1.1,1.2-0.5,3.4,0.9,4.2c0.1,0,0.1,0,0.2,0
				C182.5,75.6,183.8,75.4,184.7,74.7z"/>
		</g>
		<g class="st2">
			<path class="st3" d="M241.9,106.1c-0.3-1.9-1-3.9-1.9-5.7c1,6.3-1.8,12.1-11.4,9.9c-4.1-1-8-2.6-11.6-4.8
				c-0.9-0.6-1.8-1.3-2.6-2.1c-0.2,0.6-0.3,1.3-0.2,2c0.1,1.2,0.7,2.3,1.5,3.3c0.9,1.1,2.1,1.9,3.3,2.7c3.6,2.2,7.5,3.9,11.6,4.8
				C240.2,118.5,243,112.5,241.9,106.1z"/>
			<path class="st4" d="M228.6,110.3c9.6,2.2,12.3-3.6,11.4-9.9c-1.8-3.4-4.4-6.1-7.5-6.7c-2.8-0.6-5.5,1.1-8,2.3
				c-2.3,1.1-4.7,1.8-6.8,3.2c-1.5,1-2.8,2.5-3.3,4.2c0.8,0.8,1.7,1.5,2.6,2.1C220.5,107.7,224.5,109.4,228.6,110.3z"/>
		</g>
		<g class="st2">
			<path class="st3" d="M146.3,121.7c0.8-0.9,1.5-2,2.1-3.1c-2.7,2.9-6.6,3.7-9.1-1.8c-1.1-2.4-1.8-4.9-2-7.5c-0.1-0.7-0.1-1.4,0-2
				c-0.4,0.1-0.7,0.4-1.1,0.7c-0.6,0.5-0.9,1.2-1,2c-0.2,0.8-0.2,1.7-0.1,2.6c0.3,2.6,0.9,5.1,2,7.5
				C139.7,125.6,143.6,124.6,146.3,121.7z"/>
			<path class="st4" d="M139.2,116.8c2.5,5.5,6.4,4.7,9.1,1.8c1-2.1,1.3-4.5,0.5-6.2c-0.8-1.6-2.6-2.2-4.2-3.1
				c-1.4-0.7-2.6-1.6-4.1-2.1c-1.1-0.3-2.3-0.4-3.3,0c-0.1,0.7-0.1,1.4,0,2C137.5,111.9,138.2,114.4,139.2,116.8z"/>
		</g>
		<path class="st6" d="M143.7,72.2c16.6,11.4,38.4,10.8,57.4,17.2c30.8,10.3,53.7,41.1,54.7,73.6c0.4,11.2-1.7,22.6-6.8,32.6
			c-9.8,19.2-29.8,31.6-50.5,37.4c-10.5,2.9-21.6,4.5-32.4,3.2c-18.1-2-35.2-12-46.1-26.6c-10.9-14.6-15.5-33.8-12.7-51.8
			c1.7-10.8,5.9-21.4,4.6-32.2c-1.6-13.4-11.2-24.2-16-36.8c-7.9-20.7-0.5-45.6,15.8-60c14.9-13.2,10.8,0.7,12.7,12.5
			C126.6,53.6,133.4,65.1,143.7,72.2z"/>
		<path class="st7" d="M229.2,47.5c5.7-3.2-3.5-11.3-8-7.7C215.8,44.1,224.9,49.9,229.2,47.5z"/>
		<path class="st7" d="M220.7,25.8C238,16.1,210-8.5,196.2,2.5C180,15.5,207.6,33.1,220.7,25.8z"/>
		<path class="st7" d="M255,79.5c6.6,2.6,7-10.7,0.9-11.9C248.6,66,250,77.5,255,79.5z"/>
		<path class="st7" d="M243.5,51.9c4.3,1.7,4.5-7,0.6-7.8C239.4,43.1,240.3,50.6,243.5,51.9z"/>
		<path class="st7" d="M193.7,32.8c1.8-4.2-6.8-4.7-7.8-0.8C184.8,36.7,192.3,36,193.7,32.8z"/>
		<g class="st2">
			<path class="st5" d="M156.2,167c-1.1-1.8-0.8-4.1-0.1-6.2c-0.6,0.8-1,1.5-1.3,2.2c-1,2.3-1.9,5.5-0.5,7.9c2,3.3,7.4,3.3,9.7,0.4
				c0.6-0.8,0.9-1.6,1.2-2.6c0.1-0.3,0.2-0.6,0.3-0.9C162.9,170.3,158,170.1,156.2,167z"/>
			<path class="st4" d="M165.9,159.8c-2-6.5-7.2-2.7-9.9,1.1c-0.7,2-1,4.4,0.1,6.2c1.9,3.1,6.8,3.3,9.2,0.8c0-0.1,0.1-0.2,0.1-0.3
				C166.2,165,166.7,162.3,165.9,159.8z"/>
		</g>
		<g class="st2">
			<path class="st5" d="M245.5,128c0.1-1.4,1.2-2.7,2.3-3.5c-0.6,0.2-1.2,0.5-1.6,0.8c-1.5,0.9-3.2,2.4-3.3,4.3
				c-0.1,2.6,2.9,4.8,5.4,4c0.6-0.2,1.2-0.6,1.7-1c0.2-0.1,0.3-0.3,0.5-0.4C248.1,132.5,245.4,130.4,245.5,128z"/>
			<path class="st4" d="M253.9,127.6c1.4-4.5-3-4.3-6-3.2c-1.2,0.9-2.2,2.1-2.3,3.5c-0.1,2.5,2.6,4.5,4.9,4c0.1-0.1,0.1-0.1,0.2-0.2
				C252,130.7,253.3,129.4,253.9,127.6z"/>
		</g>
		<g class="st2">
			<path class="st5" d="M203.3,163.3c1.1-0.9,2.7-0.9,4.2-0.7c-0.6-0.3-1.1-0.5-1.6-0.7c-1.7-0.5-4-0.8-5.4,0.4
				c-2,1.7-1.5,5.4,0.7,6.6c0.6,0.3,1.2,0.5,1.9,0.6c0.2,0,0.4,0.1,0.6,0.1C201.7,168.2,201.4,164.9,203.3,163.3z"/>
			<path class="st4" d="M209.2,169.2c4.2-2,1.1-5.1-1.7-6.6c-1.4-0.2-3.1-0.2-4.2,0.7c-1.9,1.6-1.5,4.9,0.4,6.4c0.1,0,0.2,0,0.2,0
				C205.7,169.9,207.6,170,209.2,169.2z"/>
		</g>
		<g class="st2">
			<path class="st5" d="M199.8,115c-0.3-0.6-0.8-1.2-1.2-1.8c0.6,2.5,0.2,5.1-1,7.4c-1.5,3-4.3,5.3-7.3,6.7c-2.8,1.3-5.9,1.9-9,1.4
				c-2.7-0.4-5.2-1.8-6.9-3.8c0.4,1.1,0.8,2.2,1.4,3.2c1.7,2.6,4.5,4.2,7.6,4.7c3,0.5,6.2-0.1,9-1.4c3.1-1.4,5.8-3.7,7.3-6.7
				C201.2,121.7,201.4,117.9,199.8,115z"/>
			<path class="st4" d="M181.3,128.7c3,0.5,6.2-0.1,9-1.4c3.1-1.4,5.8-3.7,7.3-6.7c1.2-2.3,1.5-5,1-7.4c-3.7-4.4-11.2-7-16.4-7
				c-2.1,0-4.3,0.1-6.2,0.9c-2,0.8-3.7,2.5-4,4.6c-0.2,1.2,0.1,2.4,0.3,3.6c0.4,2,0.9,4,1.3,6c0.3,1.2,0.5,2.3,0.9,3.5
				C176.1,126.9,178.7,128.2,181.3,128.7z"/>
		</g>
		<g class="st2">
			<path class="st5" d="M114.7,88.5c1.1-0.9,2.7-0.9,4.2-0.7c-0.6-0.3-1.1-0.5-1.6-0.7c-1.7-0.5-4-0.8-5.4,0.4
				c-2,1.7-1.5,5.4,0.7,6.6c0.6,0.3,1.2,0.5,1.9,0.6c0.2,0,0.4,0.1,0.6,0.1C113.1,93.4,112.8,90,114.7,88.5z"/>
			<path class="st4" d="M120.6,94.4c4.2-2,1.1-5.1-1.7-6.6c-1.4-0.2-3.1-0.2-4.2,0.7c-1.9,1.6-1.5,4.9,0.4,6.4c0.1,0,0.2,0,0.2,0
				C117.1,95,119,95.1,120.6,94.4z"/>
		</g>
		<path class="st6" d="M118.9,110.9c0.6,10.3,2.4,20.8,8.2,29.4c7.5,11.3,21.2,17.7,34.7,17.9c13.5,0.2,26.8-5.4,37.3-13.9
			c5.2-4.2,10-9.3,12.5-15.5c4-9.8,1.5-21.9-6-29.4C195,88.9,177.5,88.1,169,75.2c-6.9-10.5-3.1-27.5-19.4-28.5
			c-10.3-0.6-22.1,8-25.6,17.5c-2.6,6.8,0,13.1-0.9,20.1C121.8,93.6,118.3,101,118.9,110.9z"/>
		<path class="st6" d="M128,85.4c1.9,8.2,4.3,16.3,7,24.3c2.1,6.1,4.5,12.3,8.6,17.3c6.6,8,16.8,12,26.9,14.4
			c10.3,2.4,21,3.4,31.6,2.9c6.6-0.3,13.3-1.2,19.8-0.2c3.2,0.5,6.6,1.5,8.9,3.7c4.3,4.1,4.3,11,2.7,16.8c-0.8,2.9-1.9,5.7-3.8,8
			c-2.8,3.3-7.1,5.1-11.2,6.4c-10.1,3.1-20.9,4.4-31.5,3.5c-6.9-0.5-13.7-1.9-20.4-4c-4.7-1.5-9.3-3.3-13.5-5.8
			c-4.4-2.7-8.3-6.1-11.9-9.7c-12.3-12.4-21.4-27.9-26.6-44.6c-2.6-8.4-4.3-17.1-4.9-25.9c-0.4-5.1-2.5-21.7,2.3-24.9
			c3.3-2.2,8.5,1.8,10.6,4.1C125.8,75.5,126.9,80.7,128,85.4z"/>
	</g>
	<g>
		<g class="st8">
			<image style="overflow:visible;" width="362" height="277" xlink:href="4A8FDCA1.png"  transform="matrix(1 0 0 1 -7 -9)">
			</image>
		</g>
		<g>
			<g class="st8">
				<image style="overflow:visible;" width="401" height="196" xlink:href="4A8FDCA3.png"  transform="matrix(1 0 0 1 -27 31)">
				</image>
			</g>
			<path class="st9" d="M274.4,106.6c-0.1,1.6-0.2,3.3-0.4,4.9c31.8,11.1,46.4,22.9,45.1,34.3c-1.1,9.9-17.4,18.1-44.7,22.6
				c-11.5,1.9-24.4,3-38.2,3.4c-2.5,0.1-4.9,0.1-7.4,0.2c-9.5,0.1-19.4-0.1-29.5-0.7c-9.8-0.5-19.9-1.4-30-2.5c0,0,0,0,0,0
				c-8.6-1-16.9-2.1-24.8-3.4c-8-1.3-15.7-2.7-23.1-4.3c-1.6-0.3-3.2-0.7-4.8-1c-2.2-0.5-4.3-1-6.4-1.5
				C57.8,146,26.6,127.3,28.2,113c1.4-12.2,23.2-21.4,60.8-24.7c1.1-0.1,4.4-0.2,5.5-0.3c0.2-1.5,0.6-3.1,0.8-4.7
				c-1.1,0.1-4.6,0.3-5.6,0.4C50,87.6,25.4,98,23.8,112.5c-2.1,19,35.6,39.3,91.7,51.9c2.4,0.5,4.8,1.1,7.3,1.6
				c1.6,0.3,3.2,0.6,4.8,1c3.6,0.7,7.2,1.4,10.9,2c9.7,1.7,19.8,3.1,30.2,4.3c4.1,0.5,8.2,0.9,12.3,1.2c3.5,0.3,6.9,0.6,10.4,0.8
				c10.3,0.7,20.3,1.1,29.9,1.1c2.8,0,5.6,0,8.3,0c8.5-0.1,16.8-0.5,24.6-1.1c7.4-0.6,14.4-1.4,20.9-2.5
				c17.3-2.8,46.6-10.1,48.4-26.5C325.2,132.7,308.2,118.8,274.4,106.6z"/>
		</g>
		<g>
			<g>
				
					<radialGradient id="SVGID_4_" cx="128.3552" cy="117.894" r="25.5912" gradientTransform="matrix(0.9967 -8.160000e-02 8.160000e-02 0.9967 -75.8253 42.8458)" gradientUnits="userSpaceOnUse">
					<stop  offset="0.2387" style="stop-color:#FFE391"/>
					<stop  offset="0.6291" style="stop-color:#FFF7E4"/>
					<stop  offset="0.7701" style="stop-color:#FFF8E8"/>
					<stop  offset="0.9131" style="stop-color:#FFFCF4"/>
					<stop  offset="0.9966" style="stop-color:#FFFFFF"/>
				</radialGradient>
				<path class="st10" d="M76.6,142.6c0.6,6.9-4.5,12.9-11.4,13.4c-6.9,0.6-12.9-4.5-13.4-11.4c-0.6-6.9,4.5-12.9,11.4-13.4
					C70.1,130.7,76.1,135.8,76.6,142.6z"/>
				
					<radialGradient id="SVGID_5_" cx="598.1602" cy="98.8919" r="25.5928" gradientTransform="matrix(0.9377 -0.3474 0.3474 0.9377 -295.9664 242.0697)" gradientUnits="userSpaceOnUse">
					<stop  offset="0.2387" style="stop-color:#FFE391"/>
					<stop  offset="0.6291" style="stop-color:#FFF7E4"/>
					<stop  offset="0.7701" style="stop-color:#FFF8E8"/>
					<stop  offset="0.9131" style="stop-color:#FFFCF4"/>
					<stop  offset="0.9966" style="stop-color:#FFFFFF"/>
				</radialGradient>
				<path class="st11" d="M311.7,116c2.4,6.5-0.9,13.6-7.4,16c-6.5,2.4-13.6-0.9-16-7.4c-2.4-6.5,0.9-13.6,7.4-16
					C302.1,106.3,309.3,109.6,311.7,116z"/>
				
					<radialGradient id="SVGID_6_" cx="512.0229" cy="124.6755" r="25.5928" gradientTransform="matrix(0.9377 -0.3474 0.3474 0.9377 -295.9664 242.0697)" gradientUnits="userSpaceOnUse">
					<stop  offset="0.2387" style="stop-color:#FFE391"/>
					<stop  offset="0.6291" style="stop-color:#FFF7E4"/>
					<stop  offset="0.7701" style="stop-color:#FFF8E8"/>
					<stop  offset="0.9131" style="stop-color:#FFFCF4"/>
					<stop  offset="0.9966" style="stop-color:#FFFFFF"/>
				</radialGradient>
				<circle class="st12" cx="228.2" cy="174.4" r="12.5"/>
			</g>
			<path class="st13" d="M67.7,169.7c0,0.1,0,0.2-0.1,0.2c0,0-0.1-0.1-0.1-0.2c0-0.1,0-0.2,0.1-0.2
				C67.6,169.6,67.7,169.6,67.7,169.7z"/>
		</g>
		<path class="st9" d="M265.4,142.3c-0.8,1.4-2,4-2.8,5.3c24.9,22.3,41.6,48.9,35.6,58.7c-5.2,8.5-23.5,9-50.1,1.4
			c-11.2-3.2-23.3-7.7-36-13.2c-2.2-1-4.5-2-6.8-3c-8.6-4-17.5-8.4-26.4-13.2c-8.6-4.7-17.4-9.7-26.1-15.1c0,0,0,0,0,0
			c-7.4-4.5-14.4-9.1-21-13.7c-6.7-4.6-13.1-9.2-19.1-13.7c-1.3-1-2.6-2-3.9-3c-1.8-1.4-3.5-2.7-5.2-4.1
			C61.7,95,41.6,64.7,49.1,52.5c6-9.8,27-9.6,58.5,1.1c0,0,0.1,0,0.1,0l2.6-3.8c0,0-0.1,0-0.2-0.1c-33.8-11.1-57.6-11.3-64.8,0.4
			c-10.1,16.3,15.4,50.8,60.8,86.1c1.9,1.5,3.9,3,6,4.6c1.3,1,2.6,1.9,3.9,2.9c2.9,2.2,5.9,4.3,9,6.5c8.1,5.6,16.6,11.2,25.5,16.7
			c3.5,2.2,7.1,4.3,10.6,6.4c3,1.8,6,3.5,9,5.2c9,5,17.9,9.6,26.6,13.8c2.5,1.2,5.1,2.4,7.6,3.5c7.8,3.5,15.4,6.7,22.7,9.5
			c6.9,2.6,13.6,4.8,20,6.7c16.8,4.8,46.4,10.8,55.1-3.3C309.2,197.1,295.4,170.4,265.4,142.3z"/>
		
			<radialGradient id="SVGID_7_" cx="126.9242" cy="65.1214" r="25.5913" gradientTransform="matrix(0.9969 -7.910000e-02 7.910000e-02 0.9969 -73.1889 41.077)" gradientUnits="userSpaceOnUse">
			<stop  offset="0.2387" style="stop-color:#FFE391"/>
			<stop  offset="0.6291" style="stop-color:#FFF7E4"/>
			<stop  offset="0.7701" style="stop-color:#FFF8E8"/>
			<stop  offset="0.9131" style="stop-color:#FFFCF4"/>
			<stop  offset="0.9966" style="stop-color:#FFFFFF"/>
		</radialGradient>
		<circle class="st14" cx="61" cy="89.8" r="12.5"/>
	</g>
</g>
</svg>
