<?xml version="1.0" encoding="utf-8"?>
<!-- Generator: Adobe Illustrator 24.1.1, SVG Export Plug-In . SVG Version: 6.00 Build 0)  -->
<svg version="1.1" xmlns="http://www.w3.org/2000/svg" xmlns:xlink="http://www.w3.org/1999/xlink" x="0px" y="0px"
	 viewBox="0 0 347 243" style="enable-background:new 0 0 347 243;" xml:space="preserve">
<style type="text/css">
	.st0{display:none;}
	.st1{display:inline;}
	.st2{clip-path:url(#SVGID_2_);fill:url(#SVGID_3_);}
	.st3{clip-path:url(#SVGID_2_);fill:#FFDB7B;}
	.st4{clip-path:url(#SVGID_2_);}
	.st5{fill:#CB1EAF;}
	.st6{fill:#F033CA;}
	.st7{fill:#C729A7;}
	.st8{opacity:0.14;clip-path:url(#SVGID_2_);fill:#CB1EAF;}
	.st9{opacity:0.48;clip-path:url(#SVGID_2_);fill:#FFD370;}
	.st10{opacity:0.2;}
	.st11{fill:#FFDB7B;}
	.st12{fill:url(#SVGID_4_);}
	.st13{fill:url(#SVGID_5_);}
	.st14{fill:url(#SVGID_6_);}
	.st15{fill:#FFFFFF;}
	.st16{fill:url(#SVGID_7_);}
	.st17{fill:url(#SVGID_8_);}
	.st18{fill:url(#SVGID_9_);}
	.st19{fill:url(#SVGID_10_);}
	.st20{fill:url(#SVGID_11_);}
	.st21{fill:url(#SVGID_12_);}
	.st22{fill:url(#SVGID_13_);}
	.st23{fill:url(#SVGID_14_);}
	.st24{fill:url(#SVGID_15_);}
	.st25{fill:url(#SVGID_16_);}
	.st26{fill:url(#SVGID_17_);}
	.st27{fill:url(#SVGID_18_);}
	.st28{fill:url(#SVGID_19_);}
	.st29{fill:url(#SVGID_20_);}
	.st30{fill:url(#SVGID_21_);}
	.st31{fill:url(#SVGID_22_);}
	.st32{fill:url(#SVGID_23_);}
	.st33{fill:url(#SVGID_24_);}
	.st34{fill:url(#SVGID_25_);}
	.st35{fill:url(#SVGID_26_);}
	.st36{fill:url(#SVGID_27_);}
	.st37{fill:url(#SVGID_28_);}
	.st38{fill:url(#SVGID_29_);}
	.st39{fill:url(#SVGID_30_);}
	.st40{fill:url(#SVGID_31_);}
	.st41{fill:url(#SVGID_32_);}
	.st42{fill:url(#SVGID_33_);}
	.st43{fill:url(#SVGID_34_);}
	.st44{fill:url(#SVGID_35_);}
	.st45{fill:url(#SVGID_36_);}
	.st46{fill:url(#SVGID_37_);}
	.st47{fill:url(#SVGID_38_);}
	.st48{fill:url(#SVGID_39_);}
	.st49{fill:url(#SVGID_40_);}
	.st50{fill:#FF631A;}
	.st51{fill:#FF1B09;}
	.st52{fill:#FF3904;}
	.st53{opacity:0.19;fill:#FF5E10;}
	.st54{fill:none;}
	.st55{fill:#FF7E45;}
	.st56{fill:#FF4500;}
	.st57{opacity:0.34;fill:#FFFF00;}
	.st58{opacity:0.34;fill:#FFA700;}
	.st59{opacity:0.41;fill:#FF631A;}
</style>
<g id="Layer_1" class="st0">
	<g class="st1">
		<g>
			<defs>
				
					<ellipse id="SVGID_1_" transform="matrix(0.7071 -0.7071 0.7071 0.7071 -18.663 160.1124)" cx="183.9" cy="102.6" rx="90.6" ry="90.6"/>
			</defs>
			<clipPath id="SVGID_2_">
				<use xlink:href="#SVGID_1_"  style="overflow:visible;"/>
			</clipPath>
			<radialGradient id="SVGID_3_" cx="279.4487" cy="13.641" r="299.3543" gradientUnits="userSpaceOnUse">
				<stop  offset="0.1924" style="stop-color:#FF4A89"/>
				<stop  offset="0.7777" style="stop-color:#AE1C89"/>
			</radialGradient>
			<circle class="st2" cx="183.9" cy="102.6" r="90.6"/>
			<path class="st3" d="M190.9,47.8c11.8,3.8,24.6,5.9,34.5,13.5c9.2,7.1,14.6,18,18.7,28.8c1.8,4.7,4.4,10.3,9.4,10.9
				c6,0.7,9.8-6.2,10.9-12.1c3.3-17.5-2.1-35.5-9.5-51.7c-5.7-12.3-13-24.6-24.7-31.6c-14-8.4-39.3-7.1-52.5,3.5
				C161.1,22.5,174.5,42.5,190.9,47.8z"/>
			<g class="st4">
				<path class="st5" d="M166.8,84.3c-2.4,0.1-4.9-0.5-7.3-0.7c-2.8-0.3-5.9-0.3-7.9-2.1c-2.5-2.3-3.3-6.4-2.8-10.5
					c-2.1,5.2-1.8,12,1.6,15.2c2,1.9,5.1,1.8,7.9,2.1c2.4,0.3,4.8,0.9,7.3,0.7c2.4-0.1,5-1.2,6.1-3.4c0.5-1.1,0.6-2.3,0.4-3.5
					C170.8,83.5,168.8,84.2,166.8,84.3z"/>
				<path class="st6" d="M163.4,68.2c-7-6.8-12.3-3.2-14.6,2.7c-0.5,4.1,0.3,8.3,2.8,10.5c2,1.9,5.1,1.8,7.9,2.1
					c2.4,0.3,4.8,0.9,7.3,0.7c2-0.1,4-0.9,5.3-2.3c-0.2-1.3-0.8-2.7-1.4-3.9C168.9,74.5,166.4,71.1,163.4,68.2z"/>
			</g>
			<g class="st4">
				<path class="st7" d="M198.9,82.7c-1.1-1.2-1.3-3-1.1-4.6c-0.3,0.7-0.5,1.3-0.6,1.9c-0.4,1.9-0.5,4.4,0.9,5.9
					c2,2.1,6.1,1.3,7.3-1.3c0.3-0.7,0.4-1.4,0.5-2.1c0-0.2,0-0.5,0-0.7C204.4,84,200.8,84.7,198.9,82.7z"/>
				<path class="st6" d="M204.9,75.7c-2.6-4.5-5.8-0.9-7.2,2.4c-0.2,1.6,0,3.4,1.1,4.6c1.9,2,5.6,1.3,7-0.9c0-0.1,0-0.2,0-0.3
					C206,79.5,205.9,77.4,204.9,75.7z"/>
			</g>
			<g class="st4">
				<path class="st7" d="M228.5,141.8c0.6-1.5,2.1-2.4,3.6-3c-0.7,0-1.4,0.1-2,0.3c-1.8,0.5-4.2,1.5-4.9,3.4c-1,2.7,1.6,6,4.4,6
					c0.7,0,1.4-0.2,2.1-0.5c0.2-0.1,0.4-0.2,0.7-0.3C229.7,147.4,227.5,144.4,228.5,141.8z"/>
				<path class="st6" d="M237.4,144.2c2.9-4.3-1.8-5.6-5.4-5.4c-1.5,0.6-3.1,1.5-3.6,3c-0.9,2.6,1.3,5.6,3.9,5.9
					c0.1,0,0.2-0.1,0.3-0.1C234.4,146.8,236.3,145.8,237.4,144.2z"/>
			</g>
			<g class="st4">
				<path class="st7" d="M180.2,71.5c0.6-0.7,1.7-0.9,2.7-0.9c-0.4-0.1-0.8-0.2-1.2-0.3c-1.1-0.1-2.7-0.1-3.5,0.9
					c-1.1,1.3-0.4,3.7,1.2,4.3c0.4,0.1,0.8,0.2,1.3,0.2c0.1,0,0.3,0,0.4,0C179.7,74.9,179.1,72.7,180.2,71.5z"/>
				<path class="st6" d="M184.7,74.7c2.6-1.8,0.2-3.5-1.9-4.2c-1,0-2,0.2-2.7,0.9c-1.1,1.2-0.5,3.4,0.9,4.2c0.1,0,0.1,0,0.2,0
					C182.5,75.6,183.8,75.4,184.7,74.7z"/>
			</g>
			<g class="st4">
				<path class="st5" d="M241.9,106.1c-0.3-1.9-1-3.9-1.9-5.7c1,6.3-1.8,12.1-11.4,9.9c-4.1-1-8-2.6-11.6-4.8
					c-0.9-0.6-1.8-1.3-2.6-2.1c-0.2,0.6-0.3,1.3-0.2,2c0.1,1.2,0.7,2.3,1.5,3.3c0.9,1.1,2.1,1.9,3.3,2.7c3.6,2.2,7.5,3.9,11.6,4.8
					C240.2,118.5,243,112.5,241.9,106.1z"/>
				<path class="st6" d="M228.6,110.3c9.6,2.2,12.3-3.6,11.4-9.9c-1.8-3.4-4.4-6.1-7.5-6.7c-2.8-0.6-5.5,1.1-8,2.3
					c-2.3,1.1-4.7,1.8-6.8,3.2c-1.5,1-2.8,2.5-3.3,4.2c0.8,0.8,1.7,1.5,2.6,2.1C220.5,107.7,224.5,109.4,228.6,110.3z"/>
			</g>
			<g class="st4">
				<path class="st5" d="M146.3,121.7c0.8-0.9,1.5-2,2.1-3.1c-2.7,2.9-6.6,3.7-9.1-1.8c-1.1-2.4-1.8-4.9-2-7.5c-0.1-0.7-0.1-1.4,0-2
					c-0.4,0.1-0.7,0.4-1.1,0.7c-0.6,0.5-0.9,1.2-1,2c-0.2,0.8-0.2,1.7-0.1,2.6c0.3,2.6,0.9,5.1,2,7.5
					C139.7,125.6,143.6,124.6,146.3,121.7z"/>
				<path class="st6" d="M139.2,116.8c2.5,5.5,6.4,4.7,9.1,1.8c1-2.1,1.3-4.5,0.5-6.2c-0.8-1.6-2.6-2.2-4.2-3.1
					c-1.4-0.7-2.6-1.6-4.1-2.1c-1.1-0.3-2.3-0.4-3.3,0c-0.1,0.7-0.1,1.4,0,2C137.5,111.9,138.2,114.4,139.2,116.8z"/>
			</g>
			<path class="st8" d="M143.7,72.2c16.6,11.4,38.4,10.8,57.4,17.2c30.8,10.3,53.7,41.1,54.7,73.6c0.4,11.2-1.7,22.6-6.8,32.6
				c-9.8,19.2-29.8,31.6-50.5,37.4c-10.5,2.9-21.6,4.5-32.4,3.2c-18.1-2-35.2-12-46.1-26.6c-10.9-14.6-15.5-33.8-12.7-51.8
				c1.7-10.8,5.9-21.4,4.6-32.2c-1.6-13.4-11.2-24.2-16-36.8c-7.9-20.7-0.5-45.6,15.8-60c14.9-13.2,10.8,0.7,12.7,12.5
				C126.6,53.6,133.4,65.1,143.7,72.2z"/>
			<path class="st9" d="M229.2,47.5c5.7-3.2-3.5-11.3-8-7.7C215.8,44.1,224.9,49.9,229.2,47.5z"/>
			<path class="st9" d="M220.7,25.8C238,16.1,210-8.5,196.2,2.5C180,15.5,207.6,33.1,220.7,25.8z"/>
			<path class="st9" d="M255,79.5c6.6,2.6,7-10.7,0.9-11.9C248.6,66,250,77.5,255,79.5z"/>
			<path class="st9" d="M243.5,51.9c4.3,1.7,4.5-7,0.6-7.8C239.4,43.1,240.3,50.6,243.5,51.9z"/>
			<path class="st9" d="M193.7,32.8c1.8-4.2-6.8-4.7-7.8-0.8C184.8,36.7,192.3,36,193.7,32.8z"/>
			<g class="st4">
				<path class="st7" d="M156.2,167c-1.1-1.8-0.8-4.1-0.1-6.2c-0.6,0.8-1,1.5-1.3,2.2c-1,2.3-1.9,5.5-0.5,7.9c2,3.3,7.4,3.3,9.7,0.4
					c0.6-0.8,0.9-1.6,1.2-2.6c0.1-0.3,0.2-0.6,0.3-0.9C162.9,170.3,158,170.1,156.2,167z"/>
				<path class="st6" d="M165.9,159.8c-2-6.5-7.2-2.7-9.9,1.1c-0.7,2-1,4.4,0.1,6.2c1.9,3.1,6.8,3.3,9.2,0.8c0-0.1,0.1-0.2,0.1-0.3
					C166.2,165,166.7,162.3,165.9,159.8z"/>
			</g>
			<g class="st4">
				<path class="st7" d="M245.5,128c0.1-1.4,1.2-2.7,2.3-3.5c-0.6,0.2-1.2,0.5-1.6,0.8c-1.5,0.9-3.2,2.4-3.3,4.3
					c-0.1,2.6,2.9,4.8,5.4,4c0.6-0.2,1.2-0.6,1.7-1c0.2-0.1,0.3-0.3,0.5-0.4C248.1,132.5,245.4,130.4,245.5,128z"/>
				<path class="st6" d="M253.9,127.6c1.4-4.5-3-4.3-6-3.2c-1.2,0.9-2.2,2.1-2.3,3.5c-0.1,2.5,2.6,4.5,4.9,4
					c0.1-0.1,0.1-0.1,0.2-0.2C252,130.7,253.3,129.4,253.9,127.6z"/>
			</g>
			<g class="st4">
				<path class="st7" d="M203.3,163.3c1.1-0.9,2.7-0.9,4.2-0.7c-0.6-0.3-1.1-0.5-1.6-0.7c-1.7-0.5-4-0.8-5.4,0.4
					c-2,1.7-1.5,5.4,0.7,6.6c0.6,0.3,1.2,0.5,1.9,0.6c0.2,0,0.4,0.1,0.6,0.1C201.7,168.2,201.4,164.9,203.3,163.3z"/>
				<path class="st6" d="M209.2,169.2c4.2-2,1.1-5.1-1.7-6.6c-1.4-0.2-3.1-0.2-4.2,0.7c-1.9,1.6-1.5,4.9,0.4,6.4c0.1,0,0.2,0,0.2,0
					C205.7,169.9,207.6,170,209.2,169.2z"/>
			</g>
			<g class="st4">
				<path class="st7" d="M199.8,115c-0.3-0.6-0.8-1.2-1.2-1.8c0.6,2.5,0.2,5.1-1,7.4c-1.5,3-4.3,5.3-7.3,6.7c-2.8,1.3-5.9,1.9-9,1.4
					c-2.7-0.4-5.2-1.8-6.9-3.8c0.4,1.1,0.8,2.2,1.4,3.2c1.7,2.6,4.5,4.2,7.6,4.7c3,0.5,6.2-0.1,9-1.4c3.1-1.4,5.8-3.7,7.3-6.7
					C201.2,121.7,201.4,117.9,199.8,115z"/>
				<path class="st6" d="M181.3,128.7c3,0.5,6.2-0.1,9-1.4c3.1-1.4,5.8-3.7,7.3-6.7c1.2-2.3,1.5-5,1-7.4c-3.7-4.4-11.2-7-16.4-7
					c-2.1,0-4.3,0.1-6.2,0.9c-2,0.8-3.7,2.5-4,4.6c-0.2,1.2,0.1,2.4,0.3,3.6c0.4,2,0.9,4,1.3,6c0.3,1.2,0.5,2.3,0.9,3.5
					C176.1,126.9,178.7,128.2,181.3,128.7z"/>
			</g>
			<g class="st4">
				<path class="st7" d="M114.7,88.5c1.1-0.9,2.7-0.9,4.2-0.7c-0.6-0.3-1.1-0.5-1.6-0.7c-1.7-0.5-4-0.8-5.4,0.4
					c-2,1.7-1.5,5.4,0.7,6.6c0.6,0.3,1.2,0.5,1.9,0.6c0.2,0,0.4,0.1,0.6,0.1C113.1,93.4,112.8,90,114.7,88.5z"/>
				<path class="st6" d="M120.6,94.4c4.2-2,1.1-5.1-1.7-6.6c-1.4-0.2-3.1-0.2-4.2,0.7c-1.9,1.6-1.5,4.9,0.4,6.4c0.1,0,0.2,0,0.2,0
					C117.1,95,119,95.1,120.6,94.4z"/>
			</g>
			<path class="st8" d="M118.9,110.9c0.6,10.3,2.4,20.8,8.2,29.4c7.5,11.3,21.2,17.7,34.7,17.9c13.5,0.2,26.8-5.4,37.3-13.9
				c5.2-4.2,10-9.3,12.5-15.5c4-9.8,1.5-21.9-6-29.4C195,88.9,177.5,88.1,169,75.2c-6.9-10.5-3.1-27.5-19.4-28.5
				c-10.3-0.6-22.1,8-25.6,17.5c-2.6,6.8,0,13.1-0.9,20.1C121.8,93.6,118.3,101,118.9,110.9z"/>
			<path class="st8" d="M128,85.4c1.9,8.2,4.3,16.3,7,24.3c2.1,6.1,4.5,12.3,8.6,17.3c6.6,8,16.8,12,26.9,14.4
				c10.3,2.4,21,3.4,31.6,2.9c6.6-0.3,13.3-1.2,19.8-0.2c3.2,0.5,6.6,1.5,8.9,3.7c4.3,4.1,4.3,11,2.7,16.8c-0.8,2.9-1.9,5.7-3.8,8
				c-2.8,3.3-7.1,5.1-11.2,6.4c-10.1,3.1-20.9,4.4-31.5,3.5c-6.9-0.5-13.7-1.9-20.4-4c-4.7-1.5-9.3-3.3-13.5-5.8
				c-4.4-2.7-8.3-6.1-11.9-9.7c-12.3-12.4-21.4-27.9-26.6-44.6c-2.6-8.4-4.3-17.1-4.9-25.9c-0.4-5.1-2.5-21.7,2.3-24.9
				c3.3-2.2,8.5,1.8,10.6,4.1C125.8,75.5,126.9,80.7,128,85.4z"/>
		</g>
		<g>
			<g class="st10">
				<image style="overflow:visible;" width="362" height="277" xlink:href="49E30E8.png"  transform="matrix(1 0 0 1 -7 -9)">
				</image>
			</g>
			<g>
				<g class="st10">
					<image style="overflow:visible;" width="401" height="196" xlink:href="49E30E9.png"  transform="matrix(1 0 0 1 -27 31)">
					</image>
				</g>
				<path class="st11" d="M274.4,106.6c-0.1,1.6-0.2,3.3-0.4,4.9c31.8,11.1,46.4,22.9,45.1,34.3c-1.1,9.9-17.4,18.1-44.7,22.6
					c-11.5,1.9-24.4,3-38.2,3.4c-2.5,0.1-4.9,0.1-7.4,0.2c-9.5,0.1-19.4-0.1-29.5-0.7c-9.8-0.5-19.9-1.4-30-2.5c0,0,0,0,0,0
					c-8.6-1-16.9-2.1-24.8-3.4c-8-1.3-15.7-2.7-23.1-4.3c-1.6-0.3-3.2-0.7-4.8-1c-2.2-0.5-4.3-1-6.4-1.5
					C57.8,146,26.6,127.3,28.2,113c1.4-12.2,23.2-21.4,60.8-24.7c1.1-0.1,4.4-0.2,5.5-0.3c0.2-1.5,0.6-3.1,0.8-4.7
					c-1.1,0.1-4.6,0.3-5.6,0.4C50,87.6,25.4,98,23.8,112.5c-2.1,19,35.6,39.3,91.7,51.9c2.4,0.5,4.8,1.1,7.3,1.6
					c1.6,0.3,3.2,0.6,4.8,1c3.6,0.7,7.2,1.4,10.9,2c9.7,1.7,19.8,3.1,30.2,4.3c4.1,0.5,8.2,0.9,12.3,1.2c3.5,0.3,6.9,0.6,10.4,0.8
					c10.3,0.7,20.3,1.1,29.9,1.1c2.8,0,5.6,0,8.3,0c8.5-0.1,16.8-0.5,24.6-1.1c7.4-0.6,14.4-1.4,20.9-2.5
					c17.3-2.8,46.6-10.1,48.4-26.5C325.2,132.7,308.2,118.8,274.4,106.6z"/>
			</g>
			<g>
				<g>
					
						<radialGradient id="SVGID_4_" cx="128.3552" cy="117.894" r="25.5912" gradientTransform="matrix(0.9967 -8.160000e-02 8.160000e-02 0.9967 -75.8253 42.8458)" gradientUnits="userSpaceOnUse">
						<stop  offset="0.2387" style="stop-color:#FFE391"/>
						<stop  offset="0.6291" style="stop-color:#FFF7E4"/>
						<stop  offset="0.7701" style="stop-color:#FFF8E8"/>
						<stop  offset="0.9131" style="stop-color:#FFFCF4"/>
						<stop  offset="0.9966" style="stop-color:#FFFFFF"/>
					</radialGradient>
					<path class="st12" d="M76.6,142.6c0.6,6.9-4.5,12.9-11.4,13.4c-6.9,0.6-12.9-4.5-13.4-11.4c-0.6-6.9,4.5-12.9,11.4-13.4
						C70.1,130.7,76.1,135.8,76.6,142.6z"/>
					
						<radialGradient id="SVGID_5_" cx="598.1602" cy="98.8919" r="25.5928" gradientTransform="matrix(0.9377 -0.3474 0.3474 0.9377 -295.9664 242.0697)" gradientUnits="userSpaceOnUse">
						<stop  offset="0.2387" style="stop-color:#FFE391"/>
						<stop  offset="0.6291" style="stop-color:#FFF7E4"/>
						<stop  offset="0.7701" style="stop-color:#FFF8E8"/>
						<stop  offset="0.9131" style="stop-color:#FFFCF4"/>
						<stop  offset="0.9966" style="stop-color:#FFFFFF"/>
					</radialGradient>
					<path class="st13" d="M311.7,116c2.4,6.5-0.9,13.6-7.4,16c-6.5,2.4-13.6-0.9-16-7.4c-2.4-6.5,0.9-13.6,7.4-16
						C302.1,106.3,309.3,109.6,311.7,116z"/>
					
						<radialGradient id="SVGID_6_" cx="512.0229" cy="124.6755" r="25.5928" gradientTransform="matrix(0.9377 -0.3474 0.3474 0.9377 -295.9664 242.0697)" gradientUnits="userSpaceOnUse">
						<stop  offset="0.2387" style="stop-color:#FFE391"/>
						<stop  offset="0.6291" style="stop-color:#FFF7E4"/>
						<stop  offset="0.7701" style="stop-color:#FFF8E8"/>
						<stop  offset="0.9131" style="stop-color:#FFFCF4"/>
						<stop  offset="0.9966" style="stop-color:#FFFFFF"/>
					</radialGradient>
					<circle class="st14" cx="228.2" cy="174.4" r="12.5"/>
				</g>
				<path class="st15" d="M67.7,169.7c0,0.1,0,0.2-0.1,0.2c0,0-0.1-0.1-0.1-0.2c0-0.1,0-0.2,0.1-0.2
					C67.6,169.6,67.7,169.6,67.7,169.7z"/>
			</g>
			<path class="st11" d="M265.4,142.3c-0.8,1.4-2,4-2.8,5.3c24.9,22.3,41.6,48.9,35.6,58.7c-5.2,8.5-23.5,9-50.1,1.4
				c-11.2-3.2-23.3-7.7-36-13.2c-2.2-1-4.5-2-6.8-3c-8.6-4-17.5-8.4-26.4-13.2c-8.6-4.7-17.4-9.7-26.1-15.1c0,0,0,0,0,0
				c-7.4-4.5-14.4-9.1-21-13.7c-6.7-4.6-13.1-9.2-19.1-13.7c-1.3-1-2.6-2-3.9-3c-1.8-1.4-3.5-2.7-5.2-4.1
				C61.7,95,41.6,64.7,49.1,52.5c6-9.8,27-9.6,58.5,1.1c0,0,0.1,0,0.1,0l2.6-3.8c0,0-0.1,0-0.2-0.1c-33.8-11.1-57.6-11.3-64.8,0.4
				c-10.1,16.3,15.4,50.8,60.8,86.1c1.9,1.5,3.9,3,6,4.6c1.3,1,2.6,1.9,3.9,2.9c2.9,2.2,5.9,4.3,9,6.5c8.1,5.6,16.6,11.2,25.5,16.7
				c3.5,2.2,7.1,4.3,10.6,6.4c3,1.8,6,3.5,9,5.2c9,5,17.9,9.6,26.6,13.8c2.5,1.2,5.1,2.4,7.6,3.5c7.8,3.5,15.4,6.7,22.7,9.5
				c6.9,2.6,13.6,4.8,20,6.7c16.8,4.8,46.4,10.8,55.1-3.3C309.2,197.1,295.4,170.4,265.4,142.3z"/>
			
				<radialGradient id="SVGID_7_" cx="126.9242" cy="65.1214" r="25.5913" gradientTransform="matrix(0.9969 -7.910000e-02 7.910000e-02 0.9969 -73.1889 41.077)" gradientUnits="userSpaceOnUse">
				<stop  offset="0.2387" style="stop-color:#FFE391"/>
				<stop  offset="0.6291" style="stop-color:#FFF7E4"/>
				<stop  offset="0.7701" style="stop-color:#FFF8E8"/>
				<stop  offset="0.9131" style="stop-color:#FFFCF4"/>
				<stop  offset="0.9966" style="stop-color:#FFFFFF"/>
			</radialGradient>
			<circle class="st16" cx="61" cy="89.8" r="12.5"/>
		</g>
	</g>
</g>
<g id="Layer_2">
	<g>
		<g>
			<radialGradient id="SVGID_8_" cx="230.485" cy="2.5859" r="31.2293" gradientUnits="userSpaceOnUse">
				<stop  offset="0.1736" style="stop-color:#FF920B"/>
				<stop  offset="0.6708" style="stop-color:#FFB000"/>
			</radialGradient>
			<path class="st17" d="M213.7,6.3c-0.6,1.4-0.4,3,0.4,4.3c0.4,0.7,1,1.2,1.7,1.6c0.7,0.5,1.6,0.9,2.5,1c1.8,0.1,3.3-1,4.7-2.2
				c0.5-0.4,1-0.8,1.3-1.4c0.2-0.5,0.2-1,0.1-1.5c-0.2-1.6-1.2-3-2.5-3.9C219.3,2.6,215,3.2,213.7,6.3z"/>
			
				<radialGradient id="SVGID_9_" cx="544.1238" cy="414.8571" r="37.7719" gradientTransform="matrix(0.7355 -0.6775 0.6775 0.7355 -575.684 266.8164)" gradientUnits="userSpaceOnUse">
				<stop  offset="0.1736" style="stop-color:#FF920B"/>
				<stop  offset="0.6708" style="stop-color:#FFB000"/>
			</radialGradient>
			<path class="st18" d="M93.7,220.4c0.6,1.7,2.2,3,3.9,3.4c0.9,0.2,1.9,0.2,2.8,0.1c1.1-0.2,2.1-0.5,3-1.2c1.7-1.3,2.1-3.7,2.4-5.8
				c0.1-0.8,0.2-1.6,0-2.3c-0.2-0.6-0.6-1.1-1.1-1.5c-1.5-1.2-3.5-1.8-5.4-1.4C95.6,212.5,92.3,216.6,93.7,220.4z"/>
			<radialGradient id="SVGID_10_" cx="233.9637" cy="21.0642" r="33.4101" gradientUnits="userSpaceOnUse">
				<stop  offset="0.1736" style="stop-color:#FF920B"/>
				<stop  offset="0.6708" style="stop-color:#FFB000"/>
			</radialGradient>
			<path class="st19" d="M216,25.1c-0.6,1.5-0.4,3.2,0.5,4.6c0.5,0.7,1.1,1.3,1.8,1.7c0.8,0.5,1.7,1,2.6,1c1.9,0.1,3.6-1.1,5.1-2.3
				c0.5-0.4,1.1-0.9,1.4-1.5c0.2-0.5,0.2-1.1,0.2-1.6c-0.2-1.7-1.2-3.3-2.7-4.2C222,21.1,217.4,21.7,216,25.1z"/>
			<radialGradient id="SVGID_11_" cx="219.2442" cy="217.8405" r="33.4101" gradientUnits="userSpaceOnUse">
				<stop  offset="0.1736" style="stop-color:#FF920B"/>
				<stop  offset="0.6708" style="stop-color:#FFB000"/>
			</radialGradient>
			<path class="st20" d="M201.3,221.9c-0.6,1.5-0.4,3.2,0.5,4.6c0.5,0.7,1.1,1.3,1.8,1.7c0.8,0.5,1.7,1,2.6,1
				c1.9,0.1,3.6-1.1,5.1-2.3c0.5-0.4,1.1-0.9,1.4-1.5c0.2-0.5,0.2-1.1,0.2-1.6c-0.2-1.7-1.2-3.3-2.7-4.2
				C207.3,217.8,202.6,218.5,201.3,221.9z"/>
			
				<radialGradient id="SVGID_12_" cx="-395.6954" cy="318.5999" r="13.7594" gradientTransform="matrix(0.502 0.8649 -0.8649 0.502 725.3437 242.2128)" gradientUnits="userSpaceOnUse">
				<stop  offset="0.1736" style="stop-color:#FF920B"/>
				<stop  offset="0.6708" style="stop-color:#FFB000"/>
			</radialGradient>
			<path class="st21" d="M246,54.4c-0.6,0.1-1.2,0.5-1.5,1.1c-0.2,0.3-0.2,0.7-0.2,1c0,0.4,0,0.8,0.2,1.2c0.3,0.7,1.1,1,1.9,1.3
				c0.3,0.1,0.5,0.2,0.8,0.2c0.2,0,0.4-0.1,0.6-0.3c0.6-0.4,0.9-1.1,0.9-1.8C248.7,55.6,247.5,54.1,246,54.4z"/>
			
				<radialGradient id="SVGID_13_" cx="-307.7698" cy="328.4377" r="13.7595" gradientTransform="matrix(0.502 0.8649 -0.8649 0.502 725.3437 242.2128)" gradientUnits="userSpaceOnUse">
				<stop  offset="0.1736" style="stop-color:#FF920B"/>
				<stop  offset="0.6708" style="stop-color:#FFB000"/>
			</radialGradient>
			<path class="st22" d="M281.6,135.3c-0.6,0.1-1.2,0.5-1.5,1.1c-0.2,0.3-0.2,0.7-0.2,1c0,0.4,0,0.8,0.2,1.2c0.3,0.7,1.1,1,1.9,1.3
				c0.3,0.1,0.5,0.2,0.8,0.2c0.2,0,0.4-0.1,0.6-0.3c0.6-0.4,0.9-1.1,0.9-1.8C284.3,136.6,283.1,135.1,281.6,135.3z"/>
			
				<radialGradient id="SVGID_14_" cx="-326.7032" cy="322.9986" r="13.7595" gradientTransform="matrix(0.502 0.8649 -0.8649 0.502 725.3437 242.2128)" gradientUnits="userSpaceOnUse">
				<stop  offset="0.1736" style="stop-color:#FF920B"/>
				<stop  offset="0.6708" style="stop-color:#FFB000"/>
			</radialGradient>
			<path class="st23" d="M276.8,116.2c-0.6,0.1-1.2,0.5-1.5,1.1c-0.2,0.3-0.2,0.7-0.2,1c0,0.4,0,0.8,0.2,1.2c0.3,0.7,1.1,1,1.9,1.3
				c0.3,0.1,0.5,0.2,0.8,0.2c0.2,0,0.4-0.1,0.6-0.3c0.6-0.4,0.9-1.1,0.9-1.8C279.5,117.5,278.3,116,276.8,116.2z"/>
			
				<radialGradient id="SVGID_15_" cx="-394.0718" cy="303.2814" r="13.7595" gradientTransform="matrix(0.502 0.8649 -0.8649 0.502 725.3437 242.2128)" gradientUnits="userSpaceOnUse">
				<stop  offset="0.1736" style="stop-color:#FF920B"/>
				<stop  offset="0.6708" style="stop-color:#FFB000"/>
			</radialGradient>
			<path class="st24" d="M260.1,48.1c-0.6,0.1-1.2,0.5-1.5,1.1c-0.2,0.3-0.2,0.7-0.2,1c0,0.4,0,0.8,0.2,1.2c0.3,0.7,1.1,1,1.9,1.3
				c0.3,0.1,0.5,0.2,0.8,0.2c0.2,0,0.4-0.1,0.6-0.3c0.6-0.4,0.9-1.1,0.9-1.8C262.7,49.4,261.5,47.9,260.1,48.1z"/>
			
				<radialGradient id="SVGID_16_" cx="-293.612" cy="356.1941" r="13.7595" gradientTransform="matrix(0.502 0.8649 -0.8649 0.502 725.3437 242.2128)" gradientUnits="userSpaceOnUse">
				<stop  offset="0.1736" style="stop-color:#FF920B"/>
				<stop  offset="0.6708" style="stop-color:#FFB000"/>
			</radialGradient>
			<path class="st25" d="M264.7,161.5c-0.6,0.1-1.2,0.5-1.5,1.1c-0.2,0.3-0.2,0.7-0.2,1c0,0.4,0,0.8,0.2,1.2c0.3,0.7,1.1,1,1.9,1.3
				c0.3,0.1,0.5,0.2,0.8,0.2c0.2,0,0.4-0.1,0.6-0.3c0.6-0.4,0.9-1.1,0.9-1.8C267.4,162.8,266.2,161.3,264.7,161.5z"/>
			
				<radialGradient id="SVGID_17_" cx="325.087" cy="48.0142" r="13.7591" gradientTransform="matrix(0.9978 -6.700000e-02 6.700000e-02 0.9978 -48.302 25.9505)" gradientUnits="userSpaceOnUse">
				<stop  offset="0.1736" style="stop-color:#FF920B"/>
				<stop  offset="0.6708" style="stop-color:#FFB000"/>
			</radialGradient>
			<path class="st26" d="M272,54.2c-0.2,0.6-0.1,1.3,0.3,1.9c0.2,0.3,0.5,0.5,0.8,0.7c0.3,0.2,0.7,0.3,1.1,0.3c0.8,0,1.4-0.6,2-1.1
				c0.2-0.2,0.4-0.4,0.5-0.7c0.1-0.2,0.1-0.4,0-0.7c-0.1-0.7-0.6-1.3-1.2-1.6C274.4,52.4,272.5,52.8,272,54.2z"/>
			
				<radialGradient id="SVGID_18_" cx="-445.0466" cy="515.084" r="24.1625" gradientTransform="matrix(0.502 0.8649 -0.8649 0.502 725.3437 242.2128)" gradientUnits="userSpaceOnUse">
				<stop  offset="0.1736" style="stop-color:#FF920B"/>
				<stop  offset="0.6708" style="stop-color:#FFB000"/>
			</radialGradient>
			<path class="st27" d="M47.4,106.1c-1.1,0.2-2.2,0.9-2.7,2c-0.3,0.5-0.4,1.2-0.4,1.8c0,0.7,0,1.4,0.3,2c0.6,1.2,2,1.8,3.3,2.3
				c0.5,0.2,0.9,0.4,1.4,0.3c0.4,0,0.8-0.3,1.1-0.5c1-0.8,1.6-2,1.6-3.2C52.1,108.4,50,105.7,47.4,106.1z"/>
			
				<radialGradient id="SVGID_19_" cx="-370.9586" cy="535.7586" r="24.1625" gradientTransform="matrix(0.502 0.8649 -0.8649 0.502 725.3437 242.2128)" gradientUnits="userSpaceOnUse">
				<stop  offset="0.1736" style="stop-color:#FF920B"/>
				<stop  offset="0.6708" style="stop-color:#FFB000"/>
			</radialGradient>
			<path class="st28" d="M66.7,180.6c-1.1,0.2-2.2,0.9-2.7,2c-0.3,0.5-0.4,1.2-0.4,1.8c0,0.7,0,1.4,0.3,2c0.6,1.2,2,1.8,3.3,2.3
				c0.5,0.2,0.9,0.4,1.4,0.3c0.4,0,0.8-0.3,1.1-0.5c1-0.8,1.6-2,1.6-3.2C71.4,182.8,69.3,180.2,66.7,180.6z"/>
			
				<radialGradient id="SVGID_20_" cx="-443.6165" cy="494.2732" r="24.1624" gradientTransform="matrix(0.502 0.8649 -0.8649 0.502 725.3437 242.2128)" gradientUnits="userSpaceOnUse">
				<stop  offset="0.1736" style="stop-color:#FF920B"/>
				<stop  offset="0.6708" style="stop-color:#FFB000"/>
			</radialGradient>
			<path class="st29" d="M66.1,96.9c-1.1,0.2-2.2,0.9-2.7,2c-0.3,0.5-0.4,1.2-0.4,1.8c0,0.7,0,1.4,0.3,2c0.6,1.2,2,1.8,3.3,2.3
				c0.5,0.2,0.9,0.4,1.4,0.3c0.4,0,0.8-0.3,1.1-0.5c1-0.8,1.6-2,1.6-3.2C70.8,99.2,68.7,96.5,66.1,96.9z"/>
			
				<radialGradient id="SVGID_21_" cx="-272.7962" cy="376.4301" r="15.7756" gradientTransform="matrix(0.502 0.8649 -0.8649 0.502 725.3437 242.2128)" gradientUnits="userSpaceOnUse">
				<stop  offset="0.1736" style="stop-color:#FF920B"/>
				<stop  offset="0.6708" style="stop-color:#FFB000"/>
			</radialGradient>
			<path class="st30" d="M256.9,188.9c-0.7,0.1-1.4,0.6-1.8,1.3c-0.2,0.4-0.3,0.8-0.3,1.2c0,0.4,0,0.9,0.2,1.3
				c0.4,0.8,1.3,1.2,2.1,1.5c0.3,0.1,0.6,0.2,0.9,0.2c0.3,0,0.5-0.2,0.7-0.3c0.6-0.5,1-1.3,1.1-2.1
				C260,190.4,258.6,188.6,256.9,188.9z"/>
			
				<radialGradient id="SVGID_22_" cx="-372.3399" cy="306.4819" r="24.1625" gradientTransform="matrix(0.502 0.8649 -0.8649 0.502 725.3437 242.2128)" gradientUnits="userSpaceOnUse">
				<stop  offset="0.1736" style="stop-color:#FF920B"/>
				<stop  offset="0.6708" style="stop-color:#FFB000"/>
			</radialGradient>
			<path class="st31" d="M264.3,64.3c-1.1,0.2-2.2,0.9-2.7,2c-0.3,0.5-0.4,1.2-0.4,1.8c0,0.7,0,1.4,0.3,2c0.6,1.2,2,1.8,3.3,2.3
				c0.5,0.2,0.9,0.4,1.4,0.3c0.4,0,0.8-0.3,1.1-0.5c1-0.8,1.6-2,1.6-3.2C269,66.5,266.9,63.9,264.3,64.3z"/>
			
				<radialGradient id="SVGID_23_" cx="-309.18" cy="336.7272" r="24.1624" gradientTransform="matrix(0.502 0.8649 -0.8649 0.502 725.3437 242.2128)" gradientUnits="userSpaceOnUse">
				<stop  offset="0.1736" style="stop-color:#FF920B"/>
				<stop  offset="0.6708" style="stop-color:#FFB000"/>
			</radialGradient>
			<path class="st32" d="M269.9,134.1c-1.1,0.2-2.2,0.9-2.7,2c-0.3,0.5-0.4,1.2-0.4,1.8c0,0.7,0,1.4,0.3,2c0.6,1.2,2,1.8,3.3,2.3
				c0.5,0.2,0.9,0.4,1.4,0.3c0.4,0,0.8-0.3,1.1-0.5c1-0.8,1.6-2,1.6-3.2C274.6,136.4,272.5,133.7,269.9,134.1z"/>
			
				<radialGradient id="SVGID_24_" cx="-355.7741" cy="1146.1823" r="13.7599" gradientTransform="matrix(-0.7187 0.6953 -0.6953 -0.7187 824.7028 1180.0209)" gradientUnits="userSpaceOnUse">
				<stop  offset="0.1736" style="stop-color:#FF920B"/>
				<stop  offset="0.6708" style="stop-color:#FFB000"/>
			</radialGradient>
			<path class="st33" d="M287.6,102.6c-0.2-0.6-0.8-1.1-1.5-1.2c-0.3-0.1-0.7-0.1-1,0c-0.4,0.1-0.8,0.2-1.1,0.4
				c-0.6,0.5-0.7,1.4-0.8,2.1c0,0.3-0.1,0.6,0,0.8c0.1,0.2,0.2,0.4,0.4,0.5c0.5,0.4,1.3,0.6,2,0.5
				C287,105.5,288.2,103.9,287.6,102.6z"/>
			
				<radialGradient id="SVGID_25_" cx="-374.7085" cy="1140.7438" r="13.7601" gradientTransform="matrix(-0.7187 0.6953 -0.6953 -0.7187 824.7028 1180.0209)" gradientUnits="userSpaceOnUse">
				<stop  offset="0.1736" style="stop-color:#FF920B"/>
				<stop  offset="0.6708" style="stop-color:#FFB000"/>
			</radialGradient>
			<path class="st34" d="M305,93.3c-0.2-0.6-0.8-1.1-1.5-1.2c-0.3-0.1-0.7-0.1-1,0c-0.4,0.1-0.8,0.2-1.1,0.4
				c-0.6,0.5-0.7,1.4-0.8,2.1c0,0.3-0.1,0.6,0,0.8c0.1,0.2,0.2,0.4,0.4,0.5c0.5,0.4,1.3,0.6,2,0.5C304.4,96.2,305.6,94.7,305,93.3z"
				/>
			
				<radialGradient id="SVGID_26_" cx="-361.0994" cy="1168.0892" r="13.7602" gradientTransform="matrix(-0.7187 0.6953 -0.6953 -0.7187 824.7028 1180.0209)" gradientUnits="userSpaceOnUse">
				<stop  offset="0.1736" style="stop-color:#FF920B"/>
				<stop  offset="0.6708" style="stop-color:#FFB000"/>
			</radialGradient>
			<path class="st35" d="M276.2,83.1c-0.2-0.6-0.8-1.1-1.5-1.2c-0.3-0.1-0.7-0.1-1,0c-0.4,0.1-0.8,0.2-1.1,0.4
				c-0.6,0.5-0.7,1.4-0.8,2.1c0,0.3-0.1,0.6,0,0.8c0.1,0.2,0.2,0.4,0.4,0.5c0.5,0.4,1.3,0.6,2,0.5C275.6,86,276.8,84.5,276.2,83.1z"
				/>
			
				<radialGradient id="SVGID_27_" cx="-344.8854" cy="1159.489" r="15.7764" gradientTransform="matrix(-0.7187 0.6953 -0.6953 -0.7187 824.7028 1180.0209)" gradientUnits="userSpaceOnUse">
				<stop  offset="0.1736" style="stop-color:#FF920B"/>
				<stop  offset="0.6708" style="stop-color:#FFB000"/>
			</radialGradient>
			<path class="st36" d="M271.1,99.6c-0.3-0.7-0.9-1.2-1.7-1.4c-0.4-0.1-0.8-0.1-1.2,0c-0.4,0.1-0.9,0.2-1.2,0.5
				c-0.7,0.6-0.8,1.6-1,2.4c0,0.3-0.1,0.7,0,1c0.1,0.2,0.3,0.4,0.5,0.6c0.6,0.5,1.5,0.7,2.3,0.5C270.4,103,271.8,101.2,271.1,99.6z"
				/>
			
				<radialGradient id="SVGID_28_" cx="-357.1837" cy="1154.4724" r="24.1634" gradientTransform="matrix(-0.7187 0.6953 -0.6953 -0.7187 824.7028 1180.0209)" gradientUnits="userSpaceOnUse">
				<stop  offset="0.1736" style="stop-color:#FF920B"/>
				<stop  offset="0.6708" style="stop-color:#FFB000"/>
			</radialGradient>
			<path class="st37" d="M286,90.8c-0.4-1.1-1.4-1.9-2.6-2.1c-0.6-0.1-1.2-0.1-1.8,0c-0.7,0.1-1.4,0.3-1.9,0.8
				c-1.1,0.9-1.3,2.4-1.5,3.7c-0.1,0.5-0.1,1,0.1,1.5c0.1,0.4,0.4,0.7,0.7,0.9c1,0.8,2.3,1.1,3.5,0.8C284.9,95.9,287,93.3,286,90.8z
				"/>
			
				<radialGradient id="SVGID_29_" cx="922.6318" cy="276.0021" r="13.7598" gradientTransform="matrix(0.725 -0.5465 0.6891 0.575 -801.2303 505.6976)" gradientUnits="userSpaceOnUse">
				<stop  offset="0.1736" style="stop-color:#FF920B"/>
				<stop  offset="0.6708" style="stop-color:#FFB000"/>
			</radialGradient>
			<path class="st38" d="M53.7,165.2c0.2,0.5,0.8,0.9,1.4,1c0.3,0.1,0.7,0.1,1,0c0.4-0.1,0.8-0.2,1.1-0.3c0.6-0.4,0.8-1.1,0.9-1.7
				c0-0.2,0.1-0.5,0-0.7c-0.1-0.2-0.2-0.3-0.4-0.4c-0.5-0.3-1.3-0.5-2-0.4C54.3,162.9,53.1,164.1,53.7,165.2z"/>
			
				<radialGradient id="SVGID_30_" cx="909.6837" cy="280.4963" r="13.7598" gradientTransform="matrix(0.725 -0.5465 0.6891 0.575 -801.2303 505.6976)" gradientUnits="userSpaceOnUse">
				<stop  offset="0.1736" style="stop-color:#FF920B"/>
				<stop  offset="0.6708" style="stop-color:#FFB000"/>
			</radialGradient>
			<path class="st39" d="M47.4,174.8c0.2,0.5,0.8,0.9,1.4,1c0.3,0.1,0.7,0.1,1,0c0.4-0.1,0.8-0.2,1.1-0.3c0.6-0.4,0.8-1.1,0.9-1.7
				c0-0.2,0.1-0.5,0-0.7c-0.1-0.2-0.2-0.3-0.4-0.4c-0.5-0.3-1.3-0.5-2-0.4C48,172.5,46.8,173.7,47.4,174.8z"/>
			
				<radialGradient id="SVGID_31_" cx="930.8157" cy="285.4894" r="12.0913" gradientTransform="matrix(0.725 -0.5465 0.6891 0.575 -801.2303 505.6976)" gradientUnits="userSpaceOnUse">
				<stop  offset="0.1736" style="stop-color:#FF920B"/>
				<stop  offset="0.6708" style="stop-color:#FFB000"/>
			</radialGradient>
			<path class="st40" d="M66.6,165.5c0.2,0.4,0.7,0.8,1.3,0.9c0.3,0.1,0.6,0,0.9,0c0.3,0,0.7-0.1,0.9-0.3c0.5-0.3,0.7-0.9,0.8-1.5
				c0-0.2,0.1-0.4,0-0.6c-0.1-0.1-0.2-0.3-0.4-0.4c-0.5-0.3-1.1-0.4-1.7-0.3C67.2,163.5,66.2,164.6,66.6,165.5z"/>
			
				<radialGradient id="SVGID_32_" cx="947.3808" cy="1211.269" r="13.7599" gradientTransform="matrix(-0.2967 -0.7576 0.9552 -0.2353 -832.1979 1142.6563)" gradientUnits="userSpaceOnUse">
				<stop  offset="0.1736" style="stop-color:#FF920B"/>
				<stop  offset="0.6708" style="stop-color:#FFB000"/>
			</radialGradient>
			<path class="st41" d="M47.5,145.1c0.7,0,1.3-0.2,1.7-0.6c0.2-0.2,0.4-0.5,0.5-0.7c0.1-0.3,0.2-0.6,0.1-0.9
				c-0.2-0.6-0.9-1-1.5-1.4c-0.2-0.1-0.5-0.3-0.8-0.3c-0.2,0-0.4,0-0.7,0.1c-0.6,0.2-1.1,0.7-1.3,1.2C45.2,143.6,46,145,47.5,145.1z
				"/>
			
				<radialGradient id="SVGID_33_" cx="952.4072" cy="264.447" r="24.1632" gradientTransform="matrix(0.725 -0.5465 0.6891 0.575 -801.2303 505.6976)" gradientUnits="userSpaceOnUse">
				<stop  offset="0.1736" style="stop-color:#FF920B"/>
				<stop  offset="0.6708" style="stop-color:#FFB000"/>
			</radialGradient>
			<path class="st42" d="M64.1,146c0.4,0.8,1.4,1.5,2.5,1.7c0.6,0.1,1.2,0.1,1.8,0c0.7-0.1,1.4-0.3,1.9-0.6c1.1-0.7,1.3-1.9,1.5-3
				c0.1-0.4,0.1-0.8,0-1.2c-0.1-0.3-0.4-0.5-0.7-0.7c-1-0.6-2.3-0.9-3.5-0.7C65.2,142,63.1,144.1,64.1,146z"/>
			
				<radialGradient id="SVGID_34_" cx="-362.0515" cy="556.4576" r="24.1625" gradientTransform="matrix(0.502 0.8649 -0.8649 0.502 725.3437 242.2128)" gradientUnits="userSpaceOnUse">
				<stop  offset="0.1736" style="stop-color:#FF920B"/>
				<stop  offset="0.6708" style="stop-color:#FFB000"/>
			</radialGradient>
			<path class="st43" d="M53.3,198.7c-1.1,0.2-2.2,0.9-2.7,2c-0.3,0.5-0.4,1.2-0.4,1.8c0,0.7,0,1.4,0.3,2c0.6,1.2,2,1.8,3.3,2.3
				c0.5,0.2,0.9,0.4,1.4,0.3c0.4,0,0.8-0.3,1.1-0.5c1-0.8,1.6-2,1.6-3.2C58,200.9,55.9,198.3,53.3,198.7z"/>
			
				<radialGradient id="SVGID_35_" cx="-469.7664" cy="509.9939" r="9.921" gradientTransform="matrix(0.502 0.8649 -0.8649 0.502 725.3437 242.2128)" gradientUnits="userSpaceOnUse">
				<stop  offset="0.1736" style="stop-color:#FF920B"/>
				<stop  offset="0.6708" style="stop-color:#FFB000"/>
			</radialGradient>
			<path class="st44" d="M44.7,87.9c-0.5,0.1-0.9,0.4-1.1,0.8c-0.1,0.2-0.2,0.5-0.2,0.7c0,0.3,0,0.6,0.1,0.8c0.2,0.5,0.8,0.8,1.3,1
				c0.2,0.1,0.4,0.1,0.6,0.1c0.2,0,0.3-0.1,0.4-0.2c0.4-0.3,0.7-0.8,0.7-1.3C46.6,88.9,45.8,87.8,44.7,87.9z"/>
			
				<radialGradient id="SVGID_36_" cx="-355.4642" cy="531.7721" r="9.9211" gradientTransform="matrix(0.502 0.8649 -0.8649 0.502 725.3437 242.2128)" gradientUnits="userSpaceOnUse">
				<stop  offset="0.1736" style="stop-color:#FF920B"/>
				<stop  offset="0.6708" style="stop-color:#FFB000"/>
			</radialGradient>
			<path class="st45" d="M83.3,197.7c-0.5,0.1-0.9,0.4-1.1,0.8c-0.1,0.2-0.2,0.5-0.2,0.7c0,0.3,0,0.6,0.1,0.8c0.2,0.5,0.8,0.8,1.3,1
				c0.2,0.1,0.4,0.1,0.6,0.1c0.2,0,0.3-0.1,0.4-0.2c0.4-0.3,0.7-0.8,0.7-1.3C85.2,198.6,84.3,197.6,83.3,197.7z"/>
			
				<radialGradient id="SVGID_37_" cx="205.8999" cy="14.3087" r="41.5769" fx="170.0043" fy="16.4907" gradientUnits="userSpaceOnUse">
				<stop  offset="0.1736" style="stop-color:#FF920B"/>
				<stop  offset="0.6708" style="stop-color:#FFB000"/>
			</radialGradient>
			<path class="st46" d="M185.4,24.1c3.3,1,7,0.7,10.2-0.6c4.1-1.7,7.6-5.7,7.1-10.1c-0.2-1.4-0.7-2.7-1.4-4
				c-3.3-5.9-10.9-10.5-17.8-9.4c-7,1.2-8.6,9.1-7,15C177.7,19.4,181.1,22.8,185.4,24.1z"/>
			
				<radialGradient id="SVGID_38_" cx="-149.4333" cy="1438.507" r="32.284" fx="-177.3058" fy="1440.2012" gradientTransform="matrix(-0.9449 0.3272 -0.3272 -0.9449 557.1428 1633.4279)" gradientUnits="userSpaceOnUse">
				<stop  offset="0.1736" style="stop-color:#FF920B"/>
				<stop  offset="0.6708" style="stop-color:#FFB000"/>
			</radialGradient>
			<path class="st47" d="M240.2,212.9c-2.7,0.1-5.3,1.3-7.3,3.1c-2.5,2.3-4.1,6.1-2.6,9.2c0.5,1,1.2,1.8,2,2.6
				c3.9,3.5,10.7,4.9,15.4,2.4c4.8-2.6,4-8.8,1.3-12.8C247.1,214.4,243.7,212.8,240.2,212.9z"/>
			
				<radialGradient id="SVGID_39_" cx="-452.0615" cy="804.1604" r="35.3596" fx="-482.5893" fy="806.0161" gradientTransform="matrix(7.700000e-02 0.997 -0.997 7.700000e-02 954.0246 634.2321)" gradientUnits="userSpaceOnUse">
				<stop  offset="0.1736" style="stop-color:#FF920B"/>
				<stop  offset="0.6708" style="stop-color:#FFB000"/>
			</radialGradient>
			<path class="st48" d="M107.8,228.7c-0.6,2.9-0.1,6,1.2,8.6c1.7,3.3,5.4,6,9.1,5.3c1.2-0.2,2.3-0.8,3.3-1.4
				c4.8-3.2,8.2-9.9,6.8-15.7c-1.4-5.9-8.3-6.7-13.2-4.9C111.3,221.9,108.7,225,107.8,228.7z"/>
		</g>
		<g>
			<g>
				<radialGradient id="SVGID_40_" cx="121.4389" cy="189.5569" r="181.3818" gradientUnits="userSpaceOnUse">
					<stop  offset="0.1736" style="stop-color:#FF920B"/>
					<stop  offset="0.6708" style="stop-color:#FFB000"/>
				</radialGradient>
				<circle class="st49" cx="165.9" cy="123.4" r="95.1"/>
				<g>
					<path class="st50" d="M144.9,184.6c-1.4,6,4.5,11.2,10.3,13.2c4.6,1.6,11,1.5,13-3c2-4.2-1.5-8.9-4.7-12.3
						c-3.6-3.8-9-7.9-13.7-5.4C147.2,178.6,145.9,181.7,144.9,184.6"/>
					<path class="st51" d="M162.8,185.2c-0.2-0.2-0.4-0.5-0.6-0.7c-2.7-2.8-6.7-5.9-10.1-4c-2,1.1-2.9,3.4-3.6,5.6l-0.1,0
						c-0.1,0.6-0.2,1.2-0.1,1.8c0.2-0.8,0.6-1.5,1.1-2.2C152.3,181.8,158.3,183.3,162.8,185.2z"/>
					<path class="st52" d="M155.9,195.8c3.4,1.2,8.1,1.1,9.7-2.2c1.3-2.9-0.7-6-2.8-8.4c-4.5-1.9-10.4-3.4-13.5,0.4
						c-0.5,0.7-0.9,1.4-1.1,2.2C148.4,191.4,152.2,194.5,155.9,195.8z"/>
				</g>
				<g>
					<path class="st50" d="M114.4,139.9c-1.7-3.5-6.6-3.7-10.2-2.4c-2.9,1-5.9,3.6-5.2,6.6c0.7,2.8,4.2,3.8,7.1,4.2
						c3.3,0.4,7.5,0.3,8.8-2.7C115.7,143.7,115,141.7,114.4,139.9"/>
					<path class="st51" d="M105.4,146.6c0.2,0,0.4,0.1,0.6,0.1c2.4,0.3,5.6,0.2,6.5-2c0.6-1.3,0.1-2.8-0.4-4.2l0,0
						c-0.2-0.3-0.4-0.6-0.6-0.9c0.2,0.5,0.3,1,0.3,1.5C111.9,144.2,108.4,145.8,105.4,146.6z"/>
					<path class="st52" d="M104.6,138.8c-2.1,0.8-4.4,2.7-3.9,4.9c0.5,1.9,2.7,2.7,4.7,3c3-0.8,6.4-2.4,6.4-5.5c0-0.5-0.1-1-0.3-1.5
						C110,137.9,106.9,137.9,104.6,138.8z"/>
				</g>
				<g>
					<path class="st52" d="M222.8,105.4c10.9-5.4,20.2,4.5,19.6,14.4c4.5-11.1-6-25.3-18.6-19.1c-3.7,1.8-7.4,6-7,10.4
						C218.1,108.6,220.5,106.5,222.8,105.4z"/>
					<path class="st50" d="M224.4,118.6c2.6,2.2,4.5,6.1,7.3,7.8c2.7,1.6,6.3-0.2,8.4-2.6c1-1.2,1.8-2.6,2.4-4
						c0.6-9.9-8.7-19.8-19.6-14.4c-2.3,1.2-4.7,3.3-6,5.7c0.1,0.7,0.2,1.4,0.5,2.1C218.7,116.3,222.1,116.7,224.4,118.6z"/>
				</g>
				<g>
					<path class="st52" d="M233.4,153.4c0.1,5.5-5.7,7.4-9.6,5.3c3.7,3.9,11.5,2.3,11.3-4c0-1.9-1.1-4.2-2.9-4.8
						C233,150.8,233.4,152.2,233.4,153.4z"/>
					<path class="st50" d="M227.7,151.5c-1.4,0.7-3.4,0.7-4.6,1.5c-1.2,0.8-1.1,2.6-0.5,3.9c0.3,0.7,0.7,1.2,1.2,1.7
						c4,2.1,9.8,0.2,9.6-5.3c0-1.2-0.4-2.5-1.2-3.5c-0.3-0.1-0.6-0.2-1-0.2C229.7,149.6,228.9,150.9,227.7,151.5z"/>
				</g>
				<g>
					<path class="st52" d="M175.9,136.8c2.9-2.3,6.2,0.1,6.6,3c0.6-3.5-3.3-7-6.6-4.4c-1,0.8-1.8,2.2-1.4,3.5
						C174.8,138.1,175.3,137.3,175.9,136.8z"/>
					<path class="st50" d="M177.2,140.6c0.9,0.5,1.7,1.5,2.6,1.8c0.9,0.3,1.8-0.5,2.3-1.3c0.2-0.4,0.4-0.9,0.5-1.3
						c-0.5-2.9-3.8-5.3-6.6-3c-0.6,0.5-1.2,1.2-1.4,2c0.1,0.2,0.2,0.4,0.3,0.6C175.4,140.3,176.4,140.2,177.2,140.6z"/>
				</g>
				<g>
					<path class="st52" d="M115.8,117.7c-0.7-3.6,2.9-5.5,5.7-4.5c-2.8-2.2-7.8-0.3-7,3.8c0.2,1.2,1.1,2.6,2.4,2.9
						C116.3,119.4,115.9,118.5,115.8,117.7z"/>
					<path class="st50" d="M119.7,118.4c0.8-0.6,2.1-0.8,2.8-1.5c0.7-0.7,0.4-1.8-0.1-2.6c-0.3-0.4-0.6-0.7-0.9-1
						c-2.8-1-6.4,0.9-5.7,4.5c0.1,0.8,0.6,1.6,1.2,2.2c0.2,0,0.4,0,0.6,0C118.6,119.8,119,118.9,119.7,118.4z"/>
				</g>
				<g>
					<path class="st52" d="M217.3,165.6c2.7,0.7,2.9,3.8,1.3,5.5c2.5-1.3,2.8-5.3-0.4-6.1c-0.9-0.2-2.2-0.1-2.8,0.8
						C216,165.4,216.8,165.4,217.3,165.6z"/>
					<path class="st50" d="M215.6,168.1c0.1,0.8-0.1,1.8,0.1,2.5c0.2,0.7,1.1,0.9,1.9,0.8c0.4-0.1,0.7-0.2,1-0.3
						c1.6-1.7,1.5-4.8-1.3-5.5c-0.6-0.2-1.3-0.1-1.9,0.1c-0.1,0.1-0.2,0.3-0.2,0.4C215,166.8,215.5,167.4,215.6,168.1z"/>
				</g>
				<g>
					<path class="st52" d="M192.9,100.9c-1.7-5.2,3.2-8.8,7.6-7.9c-4.7-2.7-11.7,1.1-9.7,7.2c0.6,1.8,2.3,3.7,4.2,3.8
						C194.1,103.2,193.3,102,192.9,100.9z"/>
					<path class="st50" d="M198.9,101c1.1-1.1,3-1.6,3.9-2.8c0.9-1.1,0.3-2.8-0.7-3.9c-0.5-0.5-1-1-1.6-1.3
						c-4.4-0.8-9.4,2.7-7.6,7.9c0.4,1.1,1.2,2.3,2.2,3c0.3,0,0.6,0,1-0.1C197.6,103.4,197.9,101.9,198.9,101z"/>
				</g>
				<g>
					<path class="st52" d="M232.6,70.3c2.1-3.8,6.9-1.3,8.8,2.8c-1-5.1-7-9.2-9.5-4.8c-0.7,1.3-1,3.6,0.1,5.2
						C231.9,72.3,232.2,71.1,232.6,70.3z"/>
					<path class="st50" d="M235.8,75.3c1.2,0.5,2.6,1.8,3.8,2c1.2,0.2,1.8-1.1,1.9-2.4c0.1-0.7,0-1.3-0.1-2
						c-1.9-4.1-6.7-6.6-8.8-2.8c-0.5,0.8-0.7,2-0.6,3.2c0.2,0.3,0.4,0.5,0.6,0.8C233.7,75.3,234.7,74.9,235.8,75.3z"/>
				</g>
				<path class="st50" d="M178.4,55.5c3.7,1,7.8,1.4,10.7,3.9c4.5,3.9,4.1,11.1,7.5,16.1c3.6,5.2,11.8,6.6,16.9,2.8
					c4.9-3.6,6.3-10.7,4.3-16.5c-2-5.7-6.8-10.1-12.3-12.9c-5.4-2.8-11.4-4.1-17.4-5.4c-4.5-1-13.2-2.6-16,2.7
					C169.6,51.2,174,54.2,178.4,55.5z"/>
				<path class="st52" d="M188.2,48.2c5.9,1.3,12,2.6,17.4,5.4c5.4,2.8,10.3,7.1,12.3,12.9c0.3,0.9,0.5,1.9,0.7,2.9
					c0.4-2.5,0.2-5.2-0.7-7.6c-2-5.7-6.8-10.1-12.3-12.9c-5.4-2.8-11.4-4.1-17.4-5.4c-4.5-1-13.2-2.6-16,2.7c-1,2-0.9,3.6-0.1,5
					c0.1-0.1,0.1-0.2,0.1-0.3C175,45.6,183.7,47.2,188.2,48.2z"/>
				<path class="st50" d="M178.4,55.5c3.7,1,7.8,1.4,10.7,3.9c4.5,3.9,4.1,11.1,7.5,16.1c3.6,5.2,11.8,6.6,16.9,2.8
					c2.8-2.1,4.5-5.4,5-8.9c-0.1-1-0.3-2-0.7-2.9c-2-5.7-6.8-10.1-12.3-12.9c-5.4-2.8-11.4-4.1-17.4-5.4c-4.5-1-13.2-2.6-16,2.7
					c-0.1,0.1-0.1,0.2-0.1,0.3C173.1,53.3,175.8,54.7,178.4,55.5z"/>
				<path class="st52" d="M107.6,83.2c6.2,2.4,8.8,11.1,4.9,16.5c-2.4,3.3-6.5,5.1-8.8,8.4c-1.8,2.6-2.6,6.1-5.3,7.5
					c-3.8,2.1-8.5-1.4-10.5-5.2c-3.4-6.4-3.3-14.3-0.5-20.9C91.5,79.8,99,79.9,107.6,83.2z"/>
				<path class="st51" d="M89.1,94.3c4.1-9.7,11.7-9.6,20.2-6.3c2.1,0.8,3.8,2.3,4.9,4.2c-0.5-3.9-2.9-7.6-6.7-9
					c-8.6-3.2-16.1-3.3-20.2,6.3c-2.8,6.4-2.8,14.1,0.3,20.4C86.4,104.8,87,99.2,89.1,94.3z"/>
				<path class="st52" d="M98.4,115.7c2.7-1.5,3.5-5,5.3-7.5c2.3-3.4,6.4-5.1,8.8-8.4c1.6-2.2,2.1-4.9,1.7-7.5
					c-1.2-1.9-2.8-3.4-4.9-4.2c-8.6-3.2-16.1-3.3-20.2,6.3c-2.1,4.9-2.6,10.4-1.5,15.6c0.1,0.2,0.2,0.4,0.2,0.5
					C89.9,114.3,94.5,117.8,98.4,115.7z"/>
				<path class="st50" d="M96.2,174.6c1.6,4.1,4.5,7.7,8.4,9.7c1.7,0.9,3.7,1.5,5.6,1.3c2.3-0.2,4.3-1.5,6-3c3.5-3.2,6-7.6,6.3-12.4
					c0.2-4.7-1.9-9.7-5.9-12.2c-2.8-1.8-6.3-2.4-9.6-2.5C94,154.9,92,164.2,96.2,174.6z"/>
				<path class="st52" d="M99.8,173.4c1.2,2.9,3.2,5.5,5.9,6.9c1.2,0.6,2.6,1,4,0.9c1.6-0.2,3-1.1,4.2-2.1c2.5-2.2,4.3-5.4,4.4-8.7
					c0.2-3.4-1.4-6.8-4.2-8.6c-2-1.3-4.4-1.7-6.8-1.8C98.2,159.5,96.8,166.1,99.8,173.4z"/>
				<path class="st51" d="M108.5,163.7c2.6,0.1,5.2,0.5,7.3,1.9c0.9,0.6,1.6,1.3,2.3,2.1c-0.5-2.5-1.9-4.7-4-6.1
					c-2-1.3-4.4-1.7-6.8-1.8c-8-0.3-10.1,4.8-8.4,11C99.2,166.5,102,163.5,108.5,163.7z"/>
				<path class="st52" d="M105.7,180.3c1.2,0.6,2.6,1,4,0.9c1.6-0.2,3-1.1,4.2-2.1c2.5-2.2,4.3-5.4,4.4-8.7c0-0.9,0-1.7-0.2-2.6
					c-0.6-0.8-1.4-1.5-2.3-2.1c-2.1-1.4-4.8-1.8-7.3-1.9c-6.5-0.3-9.4,2.8-9.6,7.2c0.2,0.8,0.5,1.7,0.8,2.5
					C100.9,176.3,103,178.9,105.7,180.3z"/>
				<path class="st53" d="M191.3,194.4c-50.2,0-90.9-40.7-90.9-90.9c0-21.8,7.7-41.8,20.5-57.5c-26.7,15.8-44.7,44.9-44.7,78.3
					c0,50.2,40.7,90.9,90.9,90.9c28.4,0,53.7-13,70.4-33.4C224,189.8,208.2,194.4,191.3,194.4z"/>
				<circle class="st54" cx="165.9" cy="123.4" r="95.1"/>
				<g>
					<path class="st50" d="M199.3,164.6c2.4,2,4.2,4.5,6,7c3.7,5.2,7.7,11.1,7,17.5c-0.8,7.4-7.7,12.8-14.9,14.7
						c-2.2,0.6-4.6,0.9-6.7-0.1c-1.2-0.6-2.1-1.5-2.9-2.6c-2.3-3-3.4-6.8-3-10.6c0.2-2.6,1.1-5.3,0-7.6c-3.2-6.9-16.4-3.4-11.2-14.3
						C178.1,159.1,192.1,158.6,199.3,164.6z"/>
					<path class="st51" d="M190.5,171.1c5.2-0.4,10.7,3,15,7.2c-3.3-5.2-10.1-11.9-16.6-11.4c-5.5,0.4-5.7,3.8-4.4,7.7
						C185.1,172.7,186.8,171.4,190.5,171.1z"/>
					<path class="st52" d="M189.7,192.4c-0.2-1-0.7-2.1-1.2-3.4c-0.1,2.9-0.4,5.7,1.3,8c0.1,0.1,0.2,0.2,0.3,0.3
						C190.1,195.6,190.1,194,189.7,192.4z"/>
					<path class="st52" d="M199.4,199.1c2.1-0.6,4.1-1.7,5.6-3.2c4.2-4.3,3.9-11.5,0.9-16.7c-0.2-0.3-0.3-0.6-0.5-0.9
						c-4.3-4.2-9.7-7.6-15-7.2c-3.6,0.3-5.4,1.6-6,3.4c1.1,3.4,3.3,7.1,3.8,9.4c0.4,1.6,0.3,3.4,0.2,5.1c0.6,1.3,1,2.5,1.2,3.4
						c0.4,1.6,0.4,3.2,0.3,4.8C192.2,199.8,196.2,200.1,199.4,199.1z"/>
				</g>
				<g>
					<path class="st50" d="M131.5,158.8c1.3,1.1,2.7,2.3,4.4,2.7c3,0.8,6.1-0.9,9.2-1.4c4.5-0.7,9.3,1.1,13.6-0.4
						c4.9-1.7,7.7-7.5,7.1-12.7c-0.6-5.2-4-9.7-8-13c-8.8-7.3-23.5-9.7-33.1-2.1C114.5,140.1,124.3,152.8,131.5,158.8z"/>
					<path class="st52" d="M161.7,145.7c-0.4-2.1-1.7-3.9-3.1-5.4c-3.9-4.2-9.1-6.3-14.5-7c-1.8,0.5-3.4,1.6-4.9,2.8
						c-3.2,2.6-5.8,8.5-9.2,10.5c0.7,1.4,1.4,2.7,2.1,4c1.1,2.1,1.6,4.8,3.7,5.9c2.7,1.5,5.9-0.6,8.9-1.7c3-1.2,6.5-1.3,9.6-0.3
						c1.7,0.6,3.8,1.4,5.1,0.2c0.5-0.4,0.8-1.1,1.1-1.7C161.4,150.6,162.2,148.1,161.7,145.7z"/>
					<path class="st51" d="M139.3,136.1c1.5-1.2,3.1-2.3,4.9-2.8c-3.1-0.4-6.4-0.2-9.5,0.3c-8.8,1.6-7.3,7.3-4.6,12.9
						C133.4,144.6,136,138.7,139.3,136.1z"/>
				</g>
				<g>
					<path class="st50" d="M202.1,142.2c-0.6-0.1-1.3-0.3-1.9-0.1c-1.1,0.3-1.9,1.4-2.8,2.1c-1.4,1-3.3,1.3-4.4,2.6
						c-1.3,1.4-1.2,3.8,0,5.4s3.1,2.5,5,2.8c4.2,0.8,9.5-1,11.3-5.3C211.1,145.3,205.6,142.9,202.1,142.2z"/>
					<path class="st52" d="M194.5,152c0.5,0.6,1.3,1,2,1.2c2,0.7,4.1,0.5,6-0.3c0.5-0.5,0.8-1.1,1.1-1.8c0.6-1.5,0.4-3.9,1.1-5.1
						c-0.5-0.3-0.9-0.6-1.4-1c-0.7-0.5-1.4-1.3-2.3-1.3c-1.2,0-1.9,1.3-2.6,2.2c-0.8,0.9-1.9,1.6-3.1,1.8c-0.7,0.1-1.5,0.2-1.7,0.9
						c-0.1,0.2-0.1,0.5,0,0.8C193.7,150.3,193.9,151.3,194.5,152z"/>
					<path class="st51" d="M203.7,151.1c-0.3,0.7-0.6,1.3-1.1,1.8c1.1-0.4,2.1-1.1,3.1-1.8c2.6-2.1,1.1-3.7-0.8-5.1
						C204,147.3,204.2,149.7,203.7,151.1z"/>
				</g>
				<g>
					<path class="st55" d="M116,58.4c-1.5,4.3-0.6,9.2,2.3,12.7c0.7,0.8,1.5,1.6,2.5,2.1c2.4,1.1,5.2,0.1,7.8,0.5
						c1.9,0.3,3.6,1.4,5.4,1.7c4.4,0.8,8.4-2.3,11.7-5.3c0.9-0.8,1.7-1.5,2.4-2.5c2.1-3.2,1.1-7.5-0.9-10.7
						C140.2,46,120.8,44.6,116,58.4z"/>
					<path class="st50" d="M142,58.5c-5.8-2.2-12.3-2.4-18.2-0.6c-0.9,0.3-1.7,0.6-2.4,0.9c-1.3,2.8-1.7,6-0.3,8.3
						c1.6,2.9,4.4,1.7,7.2,2.8c2.7,1,4.7,3.5,7.7,3.4c1.6,0,3.1-0.9,4.3-2C144.5,67.5,144.4,62.5,142,58.5z"/>
					<path class="st56" d="M142,58.5c-3-5.1-9.8-8.5-15.7-5.4c-1.9,1-3.7,3.2-4.9,5.7c0.7-0.2,1.5-0.6,2.4-0.9
						C129.7,56.1,136.2,56.2,142,58.5z"/>
				</g>
				<path class="st57" d="M188,90.3c10.9,9.9,24.6,17.2,39.2,18.4c3.5,0.3,7.3,0.1,10.1-1.9c4.3-3.1,4.9-9.1,4.9-14.4
					c0-8.6-0.9-17.5-4.8-25.1c-3.9-7.6-10.5-13.4-17.3-18.5c-13.7-10.2-33.2-21.6-51.1-19c-20.9,3-8.9,24-2,34.8
					C173,73.9,179.8,82.8,188,90.3z"/>
				<path class="st58" d="M145.8,50.8c-1,9.6,2.4,19,6.8,27.6c11.8,23.2,30.9,42.5,53.5,55.4c6.2,3.6,12.9,6.7,20,7.6
					c7.1,0.9,14.8-0.6,20.1-5.4c5.6-5.1,7.7-13,8.1-20.5c0.5-11.3-2.6-22.7-8.7-32.2c-3.7-5.7-8.3-10.6-13.2-15.4
					C217.4,53.2,150.8,3.6,145.8,50.8z"/>
			</g>
			<path class="st59" d="M89.6,90.4c-6.4,19.3-6.1,40.8,0.8,59.9c3.7,10.3,9.6,20.2,18.9,25.9c8.8,5.3,19.5,6.2,29.2,9.8
				c7.9,2.9,15,7.6,22.9,10.4c7.2,2.6,14.9,3.7,22.5,3.2c8.9-0.6,19.2-5,20.6-13.8c1.3-7.8-5-14.6-11.2-19.5
				c-9.7-7.6-20.5-13.7-30.1-21.5c-9.6-7.7-18.2-17.6-21.1-29.6c-2.6-10.6-0.5-21.9,3.3-32.1c3-8.1,7.3-16.5,5.7-25
				c-2.9-15.9-21.2-19-32.1-10.2C105.4,58.9,95,73.9,89.6,90.4z"/>
		</g>
	</g>
</g>
</svg>
