<svg xmlns="http://www.w3.org/2000/svg" viewBox="0 0 338.97 326.21"><defs><style>.cls-1{fill:#f25a46;}.cls-2{fill:#b72e23;}.cls-3{fill:#ff4824;}.cls-4{fill:#f77a74;}.cls-5{opacity:0.2;}.cls-6{fill:#ffcb72;}.cls-7{fill:#e5a03c;}.cls-8{fill:#fed573;}</style></defs><g id="Layer_2" data-name="Layer 2"><path class="cls-1" d="M280.75,96.18a82.79,82.79,0,0,1-3.57,23.68c0,.1-.07.22-.1.32s-.09.29-.12.44a82.39,82.39,0,0,1-17.79,31.07,0,0,0,0,1,0,0,82.12,82.12,0,0,1-9,8.55c-.63.51-1.27,1-1.94,1.49a82.92,82.92,0,0,1-48.88,17.05,79.08,79.08,0,0,1-12.81-.76,83.56,83.56,0,0,1-13.35-3A83,83,0,0,1,115.5,106l-.29-2.49A81.25,81.25,0,0,1,115,91.09v0a83.5,83.5,0,0,1,3.63-19.86,79.87,79.87,0,0,1,6.41-15,.43.43,0,0,1,.16-.29A79.08,79.08,0,0,1,137.71,38.8c.67-.7,1.34-1.37,2-2a79.71,79.71,0,0,1,16.66-12.68A82.84,82.84,0,0,1,276.54,70c.57,1.74,1.12,3.56,1.56,5.35A82.89,82.89,0,0,1,280.75,96.18Z" transform="translate(-17.01 -13)"/><path class="cls-2" d="M125.22,55.91l152,64-.1.32c0,.16-.09.29-.12.44-.39,1.22-.8,2.42-1.25,3.64-.19.57-.41,1.14-.64,1.68-.31.87-.67,1.73-1.05,2.56a7.92,7.92,0,0,1-.48,1.14c-.51,1.18-1.08,2.36-1.65,3.5a7.31,7.31,0,0,1-.35.68c-.45.89-.9,1.75-1.41,2.58-.28.54-.6,1.11-.92,1.65-.51.89-1,1.79-1.62,2.65-.45.7-.9,1.37-1.34,2-.13.19-.26.35-.38.54-.42.61-.83,1.18-1.25,1.75-.63.9-1.3,1.73-2,2.55-.39.51-.8,1-1.21,1.5-.71.89-1.47,1.75-2.24,2.61l0,0-15.77-6.63a0,0,0,0,0,0,0l-36.49-15.32-.09,0L115,91.09v0a83.5,83.5,0,0,1,3.63-19.86c.35-1.14.74-2.26,1.15-3.38s1-2.54,1.47-3.79c.31-.76.67-1.53,1-2.29s.54-1.21.83-1.81a1.85,1.85,0,0,0,.09-.23c.61-1.18,1.21-2.36,1.85-3.5Z" transform="translate(-17.01 -13)"/><path class="cls-3" d="M125.06,56.2l152,64,.1-.32a82.43,82.43,0,0,0,2.48-10.8v0c.07-.29.1-.54.16-.83v0c0-.25.07-.47.1-.72.13-1,.25-1.88.35-2.81s.19-1.88.25-2.84c.16-1.88.23-3.73.23-5.61l-141-59.36c-.67.61-1.34,1.28-2,2a79.08,79.08,0,0,0-12.49,17.11Z" transform="translate(-17.01 -13)"/><path class="cls-4" d="M259.14,151.72a82.12,82.12,0,0,1-9,8.55l-1.94,1.49L115.5,106l-.29-2.49A81.25,81.25,0,0,1,115,91.09v0l144.15,60.63Z" transform="translate(-17.01 -13)"/><path class="cls-2" d="M278.1,75.35,156.38,24.14A82.85,82.85,0,0,1,276.54,70C277.11,71.74,277.66,73.56,278.1,75.35Z" transform="translate(-17.01 -13)"/><path class="cls-3" d="M250.09,160.27,115.21,103.48l.29,2.49a82.1,82.1,0,0,0,7.9,26.51l100.28,42.19a81.52,81.52,0,0,0,24.47-12.91Z" transform="translate(-17.01 -13)"/><path class="cls-4" d="M199.27,178.81a83,83,0,0,1-61.75-26Z" transform="translate(-17.01 -13)"/><path class="cls-5" d="M280.75,96.18a82.79,82.79,0,0,1-3.57,23.68c0,.1-.07.22-.1.32s-.09.29-.12.44a82.39,82.39,0,0,1-17.79,31.07,0,0,0,0,1,0,0,82.12,82.12,0,0,1-9,8.55c-.63.51-1.27,1-1.94,1.49a82.92,82.92,0,0,1-48.88,17.05,79.08,79.08,0,0,1-12.81-.76C246.14,139.9,260,72.6,263.16,44.91A82.27,82.27,0,0,1,276.54,70c.57,1.74,1.12,3.56,1.56,5.35A82.89,82.89,0,0,1,280.75,96.18Z" transform="translate(-17.01 -13)"/><path class="cls-6" d="M355.69,160.33c-5.19,16.66-79.91,8.12-166.94-19S35.42,78.66,40.62,62c3.38-10.84,36.26-11,82.81-2.3,0,.07,0,.16-.06.23-.13.63-.29,1.2-.45,1.85-22.43-2.56-37.31-1.06-39.22,5.12C79.84,79.3,129,105.62,193.6,125.76s120,26.47,123.89,14.11c2.19-7-12.44-17.92-37.9-30.34l.23-1.37a4.45,4.45,0,0,1,.1-.72C328.51,128.12,359.32,148.76,355.69,160.33Z" transform="translate(-17.01 -13)"/><path class="cls-7" d="M340.17,150c-4.27,13.68-71.59,4.85-150.4-19.72S50.63,74.68,54.89,61c2.65-8.51,29.61-8.32,68.48-1-.13.63-.29,1.2-.45,1.85-22.43-2.56-37.31-1.06-39.22,5.12C79.84,79.3,129,105.62,193.6,125.76s120,26.47,123.89,14.11c2.19-7-12.44-17.92-37.9-30.34l-.24-1.55C318.44,125,343,141.15,340.17,150Z" transform="translate(-17.01 -13)"/><polygon class="cls-8" points="294.98 245.77 284.24 252.48 283.81 265.14 272.61 259.19 261.42 265.14 260.98 252.48 250.24 245.77 260.98 239.07 261.42 226.4 272.61 232.35 283.81 226.4 284.24 239.07 294.98 245.77"/><polygon class="cls-8" points="238.95 299.22 237.01 308.12 243.3 314.7 234.62 317.47 232.06 326.21 225.32 320.08 216.47 322.24 218.42 313.34 212.13 306.76 220.81 303.99 223.37 295.25 230.1 301.38 238.95 299.22"/><circle class="cls-8" cx="53.65" cy="192.06" r="10.9"/><path class="cls-8" d="M31.23,223.07A7.11,7.11,0,1,1,24.12,216,7.11,7.11,0,0,1,31.23,223.07Z" transform="translate(-17.01 -13)"/></g></svg>