<svg id="Layer_1" data-name="Layer 1" xmlns="http://www.w3.org/2000/svg" viewBox="0 0 344.71 307.41"><defs><style>.cls-1{fill:#f4c18a;}.cls-2{fill:#efb576;}.cls-3{fill:#e8b276;}.cls-4{fill:#fee3c5;}.cls-5{fill:#fec689;}.cls-6{fill:#c18448;}.cls-7{fill:#fff;}</style></defs><g id="Saturn"><g id="Saturn-2" data-name="Saturn"><g id="Saturn-3" data-name="Saturn"><path class="cls-1" d="M291.82,111.38A111.33,111.33,0,1,1,169.94,11.69,111.32,111.32,0,0,1,291.82,111.38Z" transform="translate(-8.68 14.81)"/><path class="cls-2" d="M138.85,116.47s64.71-4.13,124.82-68.61A111.69,111.69,0,0,0,233.18,24.1C220.5,50.25,193.84,83.13,138.85,116.47Z" transform="translate(-8.68 14.81)"/><path class="cls-3" d="M291.6,135.72C238,185.75,176.75,212,137.08,224.78a111.82,111.82,0,0,0,10.5,3.91c24.47-5.72,66.21-19,96.69-47,0,0-13,30.85-60.85,52.08,2.89-.07,5.79-.24,8.71-.54a111.25,111.25,0,0,0,24.29-5.19,163.09,163.09,0,0,0,28.36-20.64,59.92,59.92,0,0,1-6.34,10.48A111.56,111.56,0,0,0,291.6,135.72Z" transform="translate(-8.68 14.81)"/><path class="cls-4" d="M169.94,11.69A111.39,111.39,0,0,0,72.68,96.78c38.26-20.64,89.51-50.86,129.39-83.66A111.53,111.53,0,0,0,169.94,11.69Z" transform="translate(-8.68 14.81)"/><path class="cls-2" d="M210.43,115.82C183.1,143,126.83,165.49,85.3,179.34a109.81,109.81,0,0,0,8,11.72C180.24,158.4,210.43,115.82,210.43,115.82Z" transform="translate(-8.68 14.81)"/><path class="cls-5" d="M285.84,84.85c-30.55,35.08-94.75,96.83-182.4,117.45a111.71,111.71,0,0,0,33.64,22.48C176.75,212,238,185.75,291.6,135.72a111.33,111.33,0,0,0,.78-12.57,113.88,113.88,0,0,0-.56-11.77A111.22,111.22,0,0,0,285.84,84.85Z" transform="translate(-8.68 14.81)"/><path class="cls-5" d="M244.27,181.71c-30.48,28-72.22,41.26-96.69,47a110.63,110.63,0,0,0,35.84,5.1C231.28,212.56,244.27,181.71,244.27,181.71Z" transform="translate(-8.68 14.81)"/><path class="cls-1" d="M216.42,228.06a111.05,111.05,0,0,0,22-10.16,59.92,59.92,0,0,0,6.34-10.48A163.09,163.09,0,0,1,216.42,228.06Z" transform="translate(-8.68 14.81)"/><path class="cls-2" d="M244.32,81.63a107.64,107.64,0,0,0,31.9-16.95q-2.6-4.28-5.56-8.27A173.93,173.93,0,0,1,244.32,81.63Z" transform="translate(-8.68 14.81)"/><path class="cls-6" d="M352.65,36.88c-5.45-11-40.21-5.65-88.63,11.37A109.79,109.79,0,0,1,271.83,58c21-5.31,35.13-5.65,38,.2S304,75.13,287.15,88.73c-21,17-54.74,37.87-94.23,57.56s-76.46,34-102.67,40.65c-21,5.31-35.13,5.65-38-.2S58,169.82,74.92,156.22a109.92,109.92,0,0,1-3.09-12.1C29.1,172.55,4,197.13,9.42,208.07s40.22,5.65,88.63-11.37c29.13-10.25,63.21-24.74,98.81-42.5s67.68-36.26,93.39-53.37C333,72.4,358.11,47.81,352.65,36.88Z" transform="translate(-8.68 14.81)"/></g><g id="Star"><path class="cls-7" d="M83.43-2.23A12.59,12.59,0,0,1,70.84-14.81,12.59,12.59,0,0,1,58.25-2.23,12.59,12.59,0,0,1,70.84,10.36,12.59,12.59,0,0,1,83.43-2.23Z" transform="translate(-8.68 14.81)"/><path class="cls-7" d="M163.37,280a12.58,12.58,0,0,1-12.58-12.59A12.59,12.59,0,0,1,138.2,280a12.59,12.59,0,0,1,12.59,12.59A12.59,12.59,0,0,1,163.37,280Z" transform="translate(-8.68 14.81)"/><path class="cls-7" d="M345.89,189.05a12.58,12.58,0,0,1-12.59-12.58,12.59,12.59,0,0,1-12.59,12.58,12.59,12.59,0,0,1,12.59,12.59A12.59,12.59,0,0,1,345.89,189.05Z" transform="translate(-8.68 14.81)"/></g></g></g></svg>