<?xml version="1.0" encoding="utf-8"?>
<!-- Generator: Adobe Illustrator 24.1.1, SVG Export Plug-In . SVG Version: 6.00 Build 0)  -->
<svg version="1.1" xmlns="http://www.w3.org/2000/svg" xmlns:xlink="http://www.w3.org/1999/xlink" x="0px" y="0px"
	 viewBox="0 0 1180 771" style="enable-background:new 0 0 1180 771;" xml:space="preserve">
<style type="text/css">
	.st0{display:none;}
	.st1{display:inline;}
	.st2{fill:#E1FFFF;}
	.st3{fill:#FFFFFF;}
	.st4{fill:#009EE0;}
	.st5{fill:#FFFF36;}
	.st6{clip-path:url(#SVGID_2_);}
	.st7{fill:url(#SVGID_3_);}
	.st8{fill:url(#SVGID_4_);}
	.st9{fill:url(#SVGID_5_);}
	.st10{fill:url(#SVGID_6_);}
	.st11{fill:url(#SVGID_7_);}
	.st12{fill:url(#SVGID_8_);}
	.st13{fill:url(#SVGID_9_);}
	.st14{fill:url(#SVGID_10_);}
	.st15{fill:url(#SVGID_11_);}
	.st16{fill:url(#SVGID_12_);}
	.st17{fill:url(#SVGID_13_);}
	.st18{fill:url(#SVGID_14_);}
	.st19{fill:url(#SVGID_15_);}
	.st20{fill:url(#SVGID_16_);}
	.st21{fill:url(#SVGID_17_);}
	.st22{fill:url(#SVGID_18_);}
	.st23{fill:url(#SVGID_19_);}
	.st24{fill:url(#SVGID_20_);}
	.st25{fill:url(#SVGID_21_);}
	.st26{fill:url(#SVGID_22_);}
	.st27{fill:#F9FBFC;}
	.st28{fill:url(#SVGID_23_);}
	.st29{fill:url(#SVGID_24_);}
	.st30{fill:url(#SVGID_25_);}
	.st31{fill:url(#SVGID_26_);}
	.st32{fill:url(#SVGID_27_);}
	.st33{fill:url(#SVGID_28_);}
	.st34{fill:url(#SVGID_29_);}
	.st35{fill:url(#SVGID_30_);}
	.st36{clip-path:url(#SVGID_32_);}
	.st37{fill:url(#SVGID_33_);}
	.st38{fill:url(#SVGID_34_);}
	.st39{fill:url(#SVGID_35_);}
	.st40{fill:url(#SVGID_36_);}
	.st41{fill:url(#SVGID_37_);}
	.st42{fill:url(#SVGID_38_);}
	.st43{fill:url(#SVGID_39_);}
	.st44{fill:url(#SVGID_40_);}
	.st45{fill:url(#SVGID_41_);}
	.st46{fill:url(#SVGID_42_);}
	.st47{fill:url(#SVGID_43_);}
	.st48{fill:url(#SVGID_44_);}
	.st49{fill:url(#SVGID_45_);}
	.st50{fill:url(#SVGID_46_);}
	.st51{fill:url(#SVGID_47_);}
	.st52{fill:url(#SVGID_48_);}
	.st53{fill:url(#SVGID_49_);}
	.st54{fill:url(#SVGID_50_);}
	.st55{fill:url(#SVGID_51_);}
	.st56{fill:url(#SVGID_52_);}
	.st57{fill:url(#SVGID_53_);}
	.st58{fill:url(#SVGID_54_);}
	.st59{fill:url(#SVGID_55_);}
	.st60{fill:url(#SVGID_56_);}
	.st61{fill:url(#SVGID_57_);}
</style>
<g id="Layer_1" class="st0">
	<g class="st1">
		<g>
			<g>
				<g>
					<path class="st2" d="M-88.8,664.1c-46.2-31.3-67.8-60.7-61.1-83c6.9-22.9,42.8-35.4,101.1-35.3c57.9,0.1,131.2,12.7,206.3,35.4
						c75.1,22.7,143,52.8,191.3,84.8c48.6,32.1,71.5,62.5,64.6,85.4c-6.9,22.9-42.8,35.4-101.1,35.3
						c-57.9-0.1-131.2-12.7-206.3-35.4c-75.1-22.7-143-52.8-191.3-84.8C-86.5,665.7-87.6,664.9-88.8,664.1z M351.4,669.8
						c-1.2-0.8-2.3-1.6-3.5-2.3c-48.2-31.9-115.9-62-190.9-84.6c-154.4-46.7-291.3-47.3-305.3-1.2c-6.7,22.1,16,51.8,63.9,83.5
						c48.2,31.9,115.9,62,190.9,84.6c154.4,46.7,291.3,47.3,305.3,1.2C418.3,729.4,396.9,700.6,351.4,669.8z"/>
					<path class="st2" d="M-36,664.8c-35.2-23.8-51.7-46.3-46.5-63.3c5.3-17.5,32.6-27,77-26.9c44,0.1,99.7,9.7,156.8,26.9
						c57.1,17.3,108.7,40.2,145.5,64.5c37,24.5,54.4,47.6,49.1,65.1c-5.3,17.5-32.6,27-77,26.9c-44-0.1-99.7-9.7-156.8-26.9
						C55.1,713.8,3.4,690.9-33.3,666.6C-34.2,666-35.1,665.4-36,664.8z M298.6,669.1c-0.9-0.6-1.8-1.2-2.7-1.8
						c-36.6-24.2-88.1-47.1-145-64.3C93.9,585.8,38.4,576.3-5.5,576.2c-43.6-0.1-70.4,9.1-75.4,25.8c-5.1,16.7,12.2,39.2,48.5,63.3
						c36.6,24.2,88.1,47.1,145,64.3c56.9,17.2,112.5,26.8,156.3,26.9c43.6,0.1,70.4-9.1,75.4-25.8
						C349.3,714.3,333.1,692.5,298.6,669.1z"/>
					<path class="st2" d="M22.7,665.6C-0.2,650-11,635.3-7.6,624.1c3.5-11.5,21.3-17.8,50.3-17.7c28.6,0.1,64.8,6.3,101.9,17.5
						c76.8,23.2,133.6,61.1,126.5,84.5l0,0c-7.1,23.4-75.3,23.4-152.1,0.2c-37.1-11.2-70.6-26.1-94.5-41.9
						C23.9,666.3,23.3,665.9,22.7,665.6z M240.1,668.4c-22.7-15.4-56.7-31-96-42.9c-36.9-11.2-72.9-17.4-101.4-17.4
						C14.9,608-2.8,614-6,624.6c-3.2,10.6,8.2,25.4,31.4,40.7c23.7,15.7,57.1,30.5,94.1,41.7c76,23,143.3,23.4,150.1,0.9l0,0
						C272.8,697.1,261.3,682.8,240.1,668.4z"/>
					<path class="st2" d="M87.4,666.5c-9.2-6.2-14.1-12.5-12.6-17.4c3-9.9,30.4-10.1,62.3-0.4c15.1,4.6,28.7,10.6,38.4,17
						c10,6.6,14.7,12.9,13.2,17.8c-3,9.9-30.3,10.1-62.3,0.4C110.4,679,96.7,672.8,87.4,666.5z M175.3,667.5
						c-0.2-0.2-0.4-0.3-0.7-0.5c-9.6-6.3-23.1-12.3-38-16.8c-30-9.1-57.6-9.4-60.2-0.7c-2.6,8.7,20.5,23.7,50.5,32.8
						c30,9.1,57.6,9.4,60.2,0.7C188.3,679,184,673.4,175.3,667.5z"/>
				</g>
				<g>
					<g>
						<circle class="st3" cx="343.5" cy="65.1" r="5.9"/>
						<circle class="st4" cx="536.8" cy="178.3" r="5.9"/>
						<circle class="st5" cx="547.1" cy="274.8" r="5.9"/>
						<circle class="st4" cx="197.2" cy="230" r="5.9"/>
						<circle class="st3" cx="170.9" cy="73.9" r="5.9"/>
						<circle class="st3" cx="3.1" cy="-61.2" r="5.9"/>
						<circle class="st3" cx="898.9" cy="159.4" r="5.9"/>
						<circle class="st3" cx="756.3" cy="172.6" r="5.9"/>
						<circle class="st3" cx="697.1" cy="88.8" r="9"/>
						<g>
							<circle class="st2" cx="328.9" cy="256.7" r="9"/>
							<circle class="st5" cx="328.9" cy="256.7" r="3.6"/>
						</g>
						<g>
							<circle class="st2" cx="284.1" cy="68.8" r="2.6"/>
							<path class="st5" d="M285.2,68.8c0,0.6-0.5,1.1-1.1,1.1c-0.6,0-1.1-0.5-1.1-1.1c0-0.6,0.5-1.1,1.1-1.1
								C284.7,67.8,285.2,68.2,285.2,68.8z"/>
						</g>
						<g>
							<circle class="st2" cx="499.3" cy="43.2" r="3.3"/>
							<path class="st5" d="M500.6,43.2c0,0.7-0.6,1.3-1.3,1.3c-0.7,0-1.3-0.6-1.3-1.3c0-0.7,0.6-1.3,1.3-1.3
								C500,41.8,500.6,42.4,500.6,43.2z"/>
						</g>
						<g>
							<path class="st2" d="M793.3,92.5c0,2.5-2,4.5-4.5,4.5c-2.5,0-4.5-2-4.5-4.5c0-2.5,2-4.5,4.5-4.5
								C791.3,88,793.3,90,793.3,92.5z"/>
							<path class="st5" d="M790.6,92.5c0,1-0.8,1.8-1.8,1.8s-1.8-0.8-1.8-1.8s0.8-1.8,1.8-1.8S790.6,91.5,790.6,92.5z"/>
						</g>
						<circle class="st3" cx="-48.6" cy="-49.8" r="9"/>
						<circle class="st3" cx="645.3" cy="211.9" r="3.5"/>
						<circle class="st3" cx="599.4" cy="122.4" r="5.9"/>
						<circle class="st5" cx="705.5" cy="-41.9" r="3.1"/>
						<path class="st5" d="M638.1,52.7c0,1-0.8,1.8-1.8,1.8c-1,0-1.8-0.8-1.8-1.8c0-1,0.8-1.8,1.8-1.8
							C637.3,50.9,638.1,51.7,638.1,52.7z"/>
						<path class="st5" d="M252.3,130c0,1-0.8,1.8-1.8,1.8c-1,0-1.8-0.8-1.8-1.8c0-1,0.8-1.8,1.8-1.8
							C251.5,128.3,252.3,129,252.3,130z"/>
						<path class="st5" d="M-18.8,11.6c0,1-0.8,1.8-1.8,1.8c-1,0-1.8-0.8-1.8-1.8c0-1,0.8-1.8,1.8-1.8
							C-19.6,9.8-18.8,10.6-18.8,11.6z"/>
						<circle class="st5" cx="66.3" cy="34.4" r="1.8"/>
						<circle class="st5" cx="256.7" cy="32.6" r="1.8"/>
						<circle class="st5" cx="735.7" cy="239.7" r="1.8"/>
						<circle class="st5" cx="861.3" cy="68.8" r="1.8"/>
						<path class="st3" d="M499.1,162.9c0,1-0.8,1.8-1.8,1.8c-1,0-1.8-0.8-1.8-1.8s0.8-1.8,1.8-1.8
							C498.3,161.2,499.1,162,499.1,162.9z"/>
						<path class="st3" d="M555.6,59.1c0,1-0.8,1.8-1.8,1.8c-1,0-1.8-0.8-1.8-1.8c0-1,0.8-1.8,1.8-1.8
							C554.8,57.3,555.6,58.1,555.6,59.1z"/>
						<circle class="st5" cx="1007.7" cy="216" r="1.8"/>
					</g>
					<g>
						<circle class="st3" cx="598" cy="461.6" r="5.9"/>
						<circle class="st4" cx="432.9" cy="422.1" r="5.9"/>
						<circle class="st4" cx="-160" cy="554.6" r="5.9"/>
						<circle class="st4" cx="861.2" cy="318.4" r="5.9"/>
						<circle class="st3" cx="958.8" cy="387.9" r="5.9"/>
						<circle class="st3" cx="713.9" cy="369.7" r="5.9"/>
						<path class="st3" d="M-69.4,476.3c0-3.3,2.7-5.9,5.9-5.9c3.3,0,5.9,2.7,5.9,5.9c0,3.3-2.7,5.9-5.9,5.9
							C-66.7,482.3-69.4,479.6-69.4,476.3z"/>
						<circle class="st3" cx="127.8" cy="341.2" r="5.9"/>
						<circle class="st3" cx="263.1" cy="521.3" r="9"/>
						<g>
							<circle class="st2" cx="571.7" cy="375.6" r="9"/>
							<circle class="st5" cx="571.7" cy="375.6" r="3.6"/>
						</g>
						<g>
							<circle class="st2" cx="124.3" cy="764.1" r="2.6"/>
							<path class="st5" d="M123.2,764.1c0-0.6,0.5-1.1,1.1-1.1c0.6,0,1.1,0.5,1.1,1.1c0,0.6-0.5,1.1-1.1,1.1
								C123.7,765.2,123.2,764.7,123.2,764.1z"/>
						</g>
						<g>
							<circle class="st2" cx="470.4" cy="557.2" r="3.3"/>
							<path class="st5" d="M469.1,557.2c0-0.7,0.6-1.3,1.3-1.3c0.7,0,1.3,0.6,1.3,1.3c0,0.7-0.6,1.3-1.3,1.3
								C469.7,558.5,469.1,558,469.1,557.2z"/>
						</g>
						<g>
							<path class="st2" d="M176.3,507.9c0-2.5,2-4.5,4.5-4.5c2.5,0,4.5,2,4.5,4.5c0,2.5-2,4.5-4.5,4.5
								C178.4,512.4,176.3,510.4,176.3,507.9z"/>
							<circle class="st5" cx="180.9" cy="507.9" r="1.8"/>
						</g>
						<circle class="st3" cx="864.8" cy="433.5" r="9"/>
						<circle class="st3" cx="327.8" cy="419.5" r="3.5"/>
						<circle class="st3" cx="370.2" cy="477.9" r="5.9"/>
						<circle class="st5" cx="187.5" cy="641" r="3.1"/>
						<circle class="st5" cx="322.6" cy="528.3" r="1.8"/>
						<circle class="st5" cx="719.1" cy="470.4" r="1.8"/>
						<circle class="st5" cx="1070" cy="440.5" r="1.8"/>
						<path class="st5" d="M901.6,566c0-1,0.8-1.8,1.8-1.8c1,0,1.8,0.8,1.8,1.8c0,1-0.8,1.8-1.8,1.8
							C902.4,567.8,901.6,567,901.6,566z"/>
						<circle class="st5" cx="757.7" cy="533.5" r="1.8"/>
						<circle class="st5" cx="233.9" cy="360.7" r="1.8"/>
						<circle class="st5" cx="108.4" cy="531.6" r="1.8"/>
						<path class="st3" d="M470.6,437.5c0-1,0.8-1.8,1.8-1.8c1,0,1.8,0.8,1.8,1.8s-0.8,1.8-1.8,1.8
							C471.4,439.2,470.6,438.4,470.6,437.5z"/>
						<path class="st3" d="M414,541.3c0-1,0.8-1.8,1.8-1.8c1,0,1.8,0.8,1.8,1.8c0,1-0.8,1.8-1.8,1.8
							C414.8,543.1,414,542.3,414,541.3z"/>
						<circle class="st5" cx="-38" cy="384.4" r="1.8"/>
					</g>
				</g>
				<g>
					<g>
						<circle class="st3" cx="562.4" cy="1116.1" r="5.9"/>
						<circle class="st4" cx="369.1" cy="1002.9" r="5.9"/>
						<circle class="st5" cx="404.4" cy="917.8" r="5.9"/>
						<circle class="st3" cx="735" cy="1107.2" r="5.9"/>
						<circle class="st3" cx="7" cy="1021.8" r="5.9"/>
						<circle class="st3" cx="149.6" cy="1008.6" r="5.9"/>
						<circle class="st3" cx="208.8" cy="1092.4" r="9"/>
						<g>
							<circle class="st2" cx="508" cy="956.4" r="9"/>
							<circle class="st5" cx="508" cy="956.4" r="3.6"/>
						</g>
						<g>
							<circle class="st2" cx="621.8" cy="1112.4" r="2.6"/>
							<path class="st5" d="M620.7,1112.4c0-0.6,0.5-1.1,1.1-1.1c0.6,0,1.1,0.5,1.1,1.1c0,0.6-0.5,1.1-1.1,1.1
								C621.2,1113.4,620.7,1112.9,620.7,1112.4z"/>
						</g>
						<g>
							<circle class="st2" cx="406.6" cy="1138" r="3.3"/>
							<path class="st5" d="M405.3,1138c0-0.7,0.6-1.3,1.3-1.3c0.7,0,1.3,0.6,1.3,1.3c0,0.7-0.6,1.3-1.3,1.3
								C405.9,1139.3,405.3,1138.7,405.3,1138z"/>
						</g>
						<g>
							<path class="st2" d="M112.6,1088.7c0-2.5,2-4.5,4.5-4.5c2.5,0,4.5,2,4.5,4.5c0,2.5-2,4.5-4.5,4.5
								C114.6,1093.2,112.6,1091.2,112.6,1088.7z"/>
							<path class="st5" d="M115.3,1088.7c0-1,0.8-1.8,1.8-1.8s1.8,0.8,1.8,1.8c0,1-0.8,1.8-1.8,1.8S115.3,1089.7,115.3,1088.7z"/>
						</g>
						<circle class="st3" cx="260.5" cy="969.3" r="3.5"/>
						<circle class="st3" cx="306.5" cy="1058.7" r="5.9"/>
						<circle class="st5" cx="269.5" cy="1128.5" r="1.8"/>
						<circle class="st5" cx="655.4" cy="1051.2" r="1.8"/>
						<circle class="st5" cx="926.4" cy="1169.6" r="1.8"/>
						<path class="st5" d="M837.8,1146.8c0-1,0.8-1.8,1.8-1.8c1,0,1.8,0.8,1.8,1.8c0,1-0.8,1.8-1.8,1.8
							C838.6,1148.6,837.8,1147.8,837.8,1146.8z"/>
						<circle class="st5" cx="649.2" cy="1148.5" r="1.8"/>
						<circle class="st5" cx="170.2" cy="941.5" r="1.8"/>
						<circle class="st5" cx="44.6" cy="1112.4" r="1.8"/>
						<circle class="st3" cx="408.6" cy="1018.2" r="1.8"/>
						<circle class="st3" cx="352" cy="1122.1" r="1.8"/>
						<circle class="st5" cx="-101.8" cy="965.2" r="1.8"/>
					</g>
					<g>
						<circle class="st3" cx="307.9" cy="751.2" r="5.9"/>
						<circle class="st4" cx="473" cy="790.6" r="5.9"/>
						<circle class="st4" cx="1065.9" cy="658.2" r="5.9"/>
						<circle class="st4" cx="44.7" cy="894.4" r="5.9"/>
						<circle class="st3" cx="-52.9" cy="824.9" r="5.9"/>
						<circle class="st3" cx="192" cy="843.1" r="5.9"/>
						<circle class="st3" cx="969.4" cy="736.4" r="5.9"/>
						<circle class="st3" cx="778.1" cy="871.6" r="5.9"/>
						<circle class="st3" cx="642.7" cy="691.5" r="9"/>
						<g>
							<circle class="st2" cx="334.2" cy="837.1" r="9"/>
							<circle class="st5" cx="334.2" cy="837.1" r="3.6"/>
						</g>
						<g>
							<circle class="st2" cx="781.6" cy="448.7" r="2.6"/>
							<path class="st5" d="M782.7,448.7c0,0.6-0.5,1.1-1.1,1.1c-0.6,0-1.1-0.5-1.1-1.1c0-0.6,0.5-1.1,1.1-1.1
								C782.2,447.6,782.7,448.1,782.7,448.7z"/>
						</g>
						<g>
							<circle class="st2" cx="435.5" cy="655.5" r="3.3"/>
							<path class="st5" d="M436.8,655.5c0,0.7-0.6,1.3-1.3,1.3c-0.7,0-1.3-0.6-1.3-1.3c0-0.7,0.6-1.3,1.3-1.3
								C436.2,654.2,436.8,654.8,436.8,655.5z"/>
						</g>
						<g>
							<path class="st2" d="M729.5,704.9c0,2.5-2,4.5-4.5,4.5c-2.5,0-4.5-2-4.5-4.5c0-2.5,2-4.5,4.5-4.5
								C727.5,700.4,729.5,702.4,729.5,704.9z"/>
							<path class="st5" d="M726.8,704.9c0,1-0.8,1.8-1.8,1.8c-1,0-1.8-0.8-1.8-1.8c0-1,0.8-1.8,1.8-1.8
								C726,703.1,726.8,703.9,726.8,704.9z"/>
						</g>
						<circle class="st3" cx="41.1" cy="779.2" r="9"/>
						<circle class="st3" cx="578.1" cy="793.3" r="3.5"/>
						<circle class="st3" cx="535.6" cy="734.8" r="5.9"/>
						<path class="st5" d="M721.5,571.8c0,1.7-1.4,3.1-3.1,3.1c-1.7,0-3.1-1.4-3.1-3.1c0-1.7,1.4-3.1,3.1-3.1
							C720.1,568.7,721.5,570.1,721.5,571.8z"/>
						<circle class="st5" cx="583.3" cy="684.5" r="1.8"/>
						<path class="st5" d="M188.5,742.4c0,1-0.8,1.8-1.8,1.8c-1,0-1.8-0.8-1.8-1.8c0-1,0.8-1.8,1.8-1.8
							C187.8,740.6,188.5,741.4,188.5,742.4z"/>
						<circle class="st5" cx="-164.2" cy="772.2" r="1.8"/>
						<circle class="st5" cx="2.5" cy="646.8" r="1.8"/>
						<circle class="st5" cx="148.2" cy="679.2" r="1.8"/>
						<circle class="st5" cx="671.9" cy="852.1" r="1.8"/>
						<circle class="st5" cx="797.5" cy="681.1" r="1.8"/>
						<circle class="st3" cx="433.5" cy="775.3" r="1.8"/>
						<circle class="st3" cx="490.1" cy="671.5" r="1.8"/>
						<circle class="st5" cx="943.9" cy="828.4" r="1.8"/>
					</g>
				</g>
				<g>
					<path class="st2" d="M707.6,382c-43.3,0-70.1-9.5-75.5-26.8c-5.5-17.7,12.1-41.4,49.6-66.7c37.3-25.2,89.9-49,148-67.1
						c58.2-18.1,115-28.4,160-28.9c45.2-0.5,73.2,9,78.7,26.7c5.5,17.7-12.1,41.4-49.6,66.7c-37.3,25.2-89.9,49-148,67.1
						c-58.2,18.1-115,28.4-160,28.9C709.7,382,708.7,382,707.6,382z M993,193.8c-1.1,0-2.2,0-3.3,0c-44.9,0.5-101.6,10.7-159.6,28.8
						c-119.6,37.3-207.9,96.6-196.8,132.3c5.3,17.1,32.9,26.3,77.5,25.8c44.9-0.5,101.6-10.7,159.6-28.8
						c119.6-37.3,207.9-96.6,196.8-132.3C1062,202.9,1035.7,193.8,993,193.8z"/>
					<path class="st2" d="M741.8,359.4c-33,0-53.4-7.2-57.5-20.4c-4.2-13.5,9.2-31.6,37.7-50.9c28.4-19.1,68.3-37.3,112.6-51
						c44.2-13.8,87.4-21.6,121.6-21.9c34.4-0.4,55.8,6.9,60,20.4c4.2,13.5-9.2,31.6-37.7,50.9c-28.4,19.1-68.3,37.3-112.6,51
						c-44.2,13.8-87.4,21.6-121.6,21.9C743.5,359.4,742.6,359.4,741.8,359.4z M958.8,216.4c-0.8,0-1.7,0-2.5,0
						c-34.1,0.4-77.2,8.1-121.3,21.9c-44.1,13.7-84,31.8-112.2,50.9c-28.1,18.9-41.3,36.5-37.2,49.4c4,13,24.9,19.9,58.7,19.5
						c34.1-0.4,77.2-8.1,121.3-21.9c44.1-13.7,84-31.8,112.2-50.9c28.1-18.9,41.3-36.5,37.2-49.4
						C1011.1,223.3,991.1,216.4,958.8,216.4z"/>
					<path class="st2" d="M779.9,334.3c-21.5,0-34.8-4.7-37.5-13.4c-2.8-8.9,6-20.7,24.6-33.3c18.4-12.4,44.4-24.2,73.1-33.2
						c59.5-18.5,112.5-18.9,118.2-0.8l0,0c5.6,18.1-38.2,47.9-97.7,66.4c-28.7,9-56.8,14-79,14.3C781,334.3,780.4,334.3,779.9,334.3
						z M920.9,241.4c-21.3,0-50,4.8-80.4,14.3c-28.6,8.9-54.5,20.6-72.8,33c-17.9,12.1-26.6,23.7-24.1,31.8
						c2.6,8.2,16.4,12.8,37.9,12.5c22.1-0.2,50-5.3,78.6-14.2C919,300.5,962.4,271.4,957,254l0,0
						C954.4,245.6,940.8,241.4,920.9,241.4z"/>
					<path class="st2" d="M821.9,306.7c-8.6,0-14.5-1.9-15.7-5.7c-2.4-7.7,15.1-19.7,39.9-27.4c11.7-3.6,23.1-5.7,32.1-5.8
						c9.3-0.1,15.1,1.9,16.2,5.7c2.4,7.7-15.1,19.7-39.9,27.4C842.1,304.8,830.6,306.7,821.9,306.7z M878.8,269.1
						c-0.2,0-0.4,0-0.6,0c-8.9,0.1-20.2,2.1-31.8,5.7c-23.3,7.2-41.1,19.1-39,25.8c2.1,6.7,23.5,6.3,46.8-0.9
						c23.3-7.2,41.1-19.1,39-25.8C892.2,270.8,887,269.1,878.8,269.1z"/>
				</g>
			</g>
			<g>
				<defs>
					<rect id="SVGID_1_" x="-215.9" y="-117" width="1316" height="1316"/>
				</defs>
				<clipPath id="SVGID_2_">
					<use xlink:href="#SVGID_1_"  style="overflow:visible;"/>
				</clipPath>
				<g class="st6">
					<g>
						<linearGradient id="SVGID_3_" gradientUnits="userSpaceOnUse" x1="71.4291" y1="736.5381" x2="309.5764" y2="736.5381">
							<stop  offset="0" style="stop-color:#BDF7A3"/>
							<stop  offset="1" style="stop-color:#009EE0"/>
						</linearGradient>
						<circle class="st7" cx="206.8" cy="736.5" r="97.6"/>
						<linearGradient id="SVGID_4_" gradientUnits="userSpaceOnUse" x1="134.6869" y1="485.9397" x2="194.3457" y2="714.0461">
							<stop  offset="0" style="stop-color:#BDF7A3"/>
							<stop  offset="1" style="stop-color:#009EE0"/>
						</linearGradient>
						<path class="st8" d="M126.4,792c46.2-24.1,107.9-64.5,150.3-123.4c-6.7-6.9-14.4-12.8-22.8-17.5
							c-20,31.8-60.7,77.5-140.7,113.3C116.2,774.3,120.7,783.6,126.4,792z"/>
						<linearGradient id="SVGID_5_" gradientUnits="userSpaceOnUse" x1="153.5417" y1="481.0089" x2="213.2003" y2="709.1149">
							<stop  offset="0" style="stop-color:#BDF7A3"/>
							<stop  offset="1" style="stop-color:#009EE0"/>
						</linearGradient>
						<path class="st9" d="M298.1,702.1c-19.3,32-60.1,79.9-143.4,117c11.3,7.1,24.1,12,37.9,14c36.5-21.4,78.2-51.6,111.7-91.4
							c0.1-1.7,0.1-3.4,0.1-5.2C304.4,724.4,302.1,712.8,298.1,702.1z"/>
					</g>
					<g>
						<g>
							<g>
								
									<linearGradient id="SVGID_6_" gradientUnits="userSpaceOnUse" x1="557.3369" y1="1035.6805" x2="773.9938" y2="1035.6805" gradientTransform="matrix(0.8 -0.6 0.6 0.8 -85.9033 336.3131)">
									<stop  offset="0" style="stop-color:#FFE900"/>
									<stop  offset="1" style="stop-color:#FF13BD"/>
								</linearGradient>
								<circle class="st10" cx="1068" cy="765.5" r="108.3"/>
							</g>
						</g>
						<linearGradient id="SVGID_7_" gradientUnits="userSpaceOnUse" x1="948.9114" y1="644.1357" x2="1166.4902" y2="954.7125">
							<stop  offset="0" style="stop-color:#FFE900"/>
							<stop  offset="1" style="stop-color:#FF13BD"/>
						</linearGradient>
						<path class="st11" d="M1017.2,669.8c-4.9,2.6-9.6,5.6-14.1,9c-47.9,35.9-57.6,103.8-21.7,151.7c19.4,25.8,48,40.5,77.9,43
							c4.9-2.6,9.6-5.6,14.1-9c47.9-35.9,57.6-103.8,21.7-151.7C1075.7,686.9,1047,672.2,1017.2,669.8z"/>
						
							<linearGradient id="SVGID_8_" gradientUnits="userSpaceOnUse" x1="633.0049" y1="1039.9702" x2="1142.7386" y2="1039.9702" gradientTransform="matrix(0.9461 -0.3239 0.3239 0.9461 -99.075 79.2756)">
							<stop  offset="0" style="stop-color:#BDF7A3"/>
							<stop  offset="1" style="stop-color:#009EE0"/>
						</linearGradient>
						<path class="st12" d="M1160,707.9c0.9,1.7,2.4,4.4,4.1,7.7c56.1-15.1,95.7-21,98.4-13.2c4,11.7-76.8,50-180.5,85.5
							c-103.7,35.5-191,54.8-195,43.1c-2.5-7.2,27.2-24.4,74.4-44.9l0,0l-1.2-8.8c-78.1,33.4-129,64.9-124,79.5
							c7,20.4,120.6-0.1,253.7-45.7c133.2-45.6,235.5-99.1,228.5-119.4C1313.2,676.4,1248.2,684,1160,707.9z"/>
					</g>
					<g>
						<g>
							
								<linearGradient id="SVGID_9_" gradientUnits="userSpaceOnUse" x1="661.1599" y1="478.7895" x2="1120.1838" y2="478.7895" gradientTransform="matrix(0 -1 1 0 525.822 807.6175)">
								<stop  offset="0" style="stop-color:#FFE900"/>
								<stop  offset="0.1684" style="stop-color:#FFCB1B"/>
								<stop  offset="0.5369" style="stop-color:#FF7D60"/>
								<stop  offset="1" style="stop-color:#FF13BD"/>
							</linearGradient>
							<circle class="st13" cx="1004.6" cy="-83.1" r="229.5"/>
							<g>
								
									<linearGradient id="SVGID_10_" gradientUnits="userSpaceOnUse" x1="729.0569" y1="509.3689" x2="806.8569" y2="373.219" gradientTransform="matrix(0 -1 1 0 525.822 807.6175)">
									<stop  offset="0" style="stop-color:#E7FFF9"/>
									<stop  offset="1" style="stop-color:#FF5668"/>
								</linearGradient>
								<circle class="st14" cx="985.3" cy="50" r="54.3"/>
								
									<linearGradient id="SVGID_11_" gradientUnits="userSpaceOnUse" x1="1026.7297" y1="411.1321" x2="1018.9497" y2="313.1045" gradientTransform="matrix(0 -1 1 0 525.822 807.6175)">
									<stop  offset="0" style="stop-color:#E7FFF9"/>
									<stop  offset="1" style="stop-color:#FF5668"/>
								</linearGradient>
								<circle class="st15" cx="906.8" cy="-216.7" r="43.9"/>
								
									<linearGradient id="SVGID_12_" gradientUnits="userSpaceOnUse" x1="910.0746" y1="361.4884" x2="917.0767" y2="324.9221" gradientTransform="matrix(0 -1 1 0 525.822 807.6175)">
									<stop  offset="0" style="stop-color:#E7FFF9"/>
									<stop  offset="1" style="stop-color:#FF5668"/>
								</linearGradient>
								<path class="st16" d="M875.6-125.5c11.5,0,20.8,9.3,20.8,20.8c0,11.5-9.3,20.8-20.8,20.8c-11.5,0-20.8-9.3-20.8-20.8
									C854.8-116.2,864.1-125.5,875.6-125.5z"/>
								
									<linearGradient id="SVGID_13_" gradientUnits="userSpaceOnUse" x1="858.0487" y1="543.7458" x2="899.6214" y2="543.7458" gradientTransform="matrix(0 -1 1 0 525.822 807.6175)">
									<stop  offset="0" style="stop-color:#E7FFF9"/>
									<stop  offset="1" style="stop-color:#FF5668"/>
								</linearGradient>
								<path class="st17" d="M1069.6-92c11.5,0,20.8,9.3,20.8,20.8c0,11.5-9.3,20.8-20.8,20.8c-11.5,0-20.8-9.3-20.8-20.8
									C1048.8-82.7,1058.1-92,1069.6-92z"/>
								
									<linearGradient id="SVGID_14_" gradientUnits="userSpaceOnUse" x1="987.9639" y1="512.5146" x2="1017.988" y2="512.5146" gradientTransform="matrix(0 -1 1 0 525.822 807.6175)">
									<stop  offset="0" style="stop-color:#E7FFF9"/>
									<stop  offset="1" style="stop-color:#FF5668"/>
								</linearGradient>
								<path class="st18" d="M1038.3-210.4c8.3,0,15,6.7,15,15c0,8.3-6.7,15-15,15c-8.3,0-15-6.7-15-15
									C1023.3-203.6,1030-210.4,1038.3-210.4z"/>
								
									<linearGradient id="SVGID_15_" gradientUnits="userSpaceOnUse" x1="824.4546" y1="361.7754" x2="841.7527" y2="346.3307" gradientTransform="matrix(0 -1 1 0 525.822 807.6175)">
									<stop  offset="0" style="stop-color:#E7FFF9"/>
									<stop  offset="1" style="stop-color:#FF5668"/>
								</linearGradient>
								<path class="st19" d="M884.3-28.6c4.5,0,8.1,3.6,8.1,8.1c0,4.5-3.6,8.1-8.1,8.1c-4.5,0-8.1-3.6-8.1-8.1
									C876.2-25,879.8-28.6,884.3-28.6z"/>
								
									<linearGradient id="SVGID_16_" gradientUnits="userSpaceOnUse" x1="794.2524" y1="326.1859" x2="797.3415" y2="307.3427" gradientTransform="matrix(0 -1 1 0 525.822 807.6175)">
									<stop  offset="0" style="stop-color:#E7FFF9"/>
									<stop  offset="1" style="stop-color:#FF5668"/>
								</linearGradient>
								<path class="st20" d="M843.2,3.8c4.5,0,8.1,3.6,8.1,8.1c0,4.5-3.6,8.1-8.1,8.1c-4.5,0-8.1-3.6-8.1-8.1
									C835.1,7.5,838.8,3.8,843.2,3.8z"/>
							</g>
						</g>
					</g>
					<g>
						<linearGradient id="SVGID_17_" gradientUnits="userSpaceOnUse" x1="127.1136" y1="-242.9761" x2="245.5476" y2="-37.6903">
							<stop  offset="0" style="stop-color:#B665F9"/>
							<stop  offset="0.995" style="stop-color:#4861FF"/>
						</linearGradient>
						<circle class="st21" cx="186.2" cy="-140.5" r="142.8"/>
						<linearGradient id="SVGID_18_" gradientUnits="userSpaceOnUse" x1="60.8903" y1="-622.7925" x2="121.4266" y2="-388.5443">
							<stop  offset="0" style="stop-color:#B665F9"/>
							<stop  offset="0.995" style="stop-color:#4861FF"/>
						</linearGradient>
						<path class="st22" d="M292.7-235.6c-13.8,10.6-32.1,20.6-61.4,32.4c-56.1,22.8-38.6,17.5-91.2,24.6c-52.6,7-29.8,3.5-70.2-14
							c-5-2.2-9.7-4.1-14.2-5.8c-7.9,17.7-12.3,37.3-12.3,58c0,15.5,2.5,30.4,7.1,44.4c22.5-0.3,47-3.4,73.8-8.8
							c52.6-10.5,54.4-5.3,108.8-26.3c54.4-21.1,45.6-31.6,84.2-63.2c0.3-0.2,0.6-0.5,0.9-0.7C312-210.1,303.3-223.7,292.7-235.6z"
							/>
						<linearGradient id="SVGID_19_" gradientUnits="userSpaceOnUse" x1="67.2994" y1="-624.4484" x2="127.8355" y2="-390.2008">
							<stop  offset="0" style="stop-color:#B665F9"/>
							<stop  offset="0.995" style="stop-color:#4861FF"/>
						</linearGradient>
						<path class="st23" d="M328.9-147.7c-3.9,5.9-9.2,12.1-16.8,18.3C284-106.6,277-87.3,248.9-78.6c-28.1,8.8-45.6,15.8-87.7,19.3
							c-30.4,2.5-59,8.7-83.1,12c7,8.1,14.8,15.4,23.4,21.8c6-0.8,11.9-1.5,17.5-2.1c31.6-3.5,17.5,0,64.9-8.8
							c47.4-8.8,49.1-5.3,84.2-26.3s40.4-33.3,52.6-50.9c2.3-3.3,4.8-7.5,7.5-12.1c0.5-4.8,0.7-9.7,0.7-14.7
							C329-142.9,329-145.3,328.9-147.7z"/>
					</g>
					<linearGradient id="SVGID_20_" gradientUnits="userSpaceOnUse" x1="-444.2426" y1="32.9294" x2="181.9149" y2="32.9294">
						<stop  offset="0" style="stop-color:#0E216D"/>
						<stop  offset="0.1362" style="stop-color:#12216F"/>
						<stop  offset="0.2685" style="stop-color:#1E2177"/>
						<stop  offset="0.3993" style="stop-color:#312183"/>
						<stop  offset="0.5292" style="stop-color:#4D2195"/>
						<stop  offset="0.6584" style="stop-color:#7021AB"/>
						<stop  offset="0.7872" style="stop-color:#9B22C6"/>
						<stop  offset="0.9132" style="stop-color:#CE22E6"/>
						<stop  offset="1" style="stop-color:#F522FF"/>
					</linearGradient>
					<circle class="st24" cx="-88.4" cy="32.9" r="256.6"/>
					<linearGradient id="SVGID_21_" gradientUnits="userSpaceOnUse" x1="773.2087" y1="280.3246" x2="921.9655" y2="280.3246">
						<stop  offset="0" style="stop-color:#0E216D"/>
						<stop  offset="0.1362" style="stop-color:#12216F"/>
						<stop  offset="0.2685" style="stop-color:#1E2177"/>
						<stop  offset="0.3993" style="stop-color:#312183"/>
						<stop  offset="0.5292" style="stop-color:#4D2195"/>
						<stop  offset="0.6584" style="stop-color:#7021AB"/>
						<stop  offset="0.7872" style="stop-color:#9B22C6"/>
						<stop  offset="0.9132" style="stop-color:#CE22E6"/>
						<stop  offset="1" style="stop-color:#F522FF"/>
					</linearGradient>
					<circle class="st25" cx="857.7" cy="280.3" r="61"/>
					<linearGradient id="SVGID_22_" gradientUnits="userSpaceOnUse" x1="-3.4683" y1="404.9226" x2="60.8085" y2="404.9226">
						<stop  offset="0" style="stop-color:#BDF7A3"/>
						<stop  offset="1" style="stop-color:#009EE0"/>
					</linearGradient>
					<circle class="st26" cx="33.1" cy="404.9" r="26.3"/>
				</g>
			</g>
		</g>
		<g>
			<g>
				<path class="st27" d="M897.4,1087.1c-56.1-136.9-173.7-87.7-207.1-152.7c-33.3-64.9,26.3-136.9-86-222.8
					c-112.3-86-129.8-293-129.8-293c-1.8-1.8-20.6-1.1-32.5-0.6c-11.9-0.6-30.7-1.2-32.5,0.6c0,0-17.5,207.1-129.8,293
					c-112.3,86-52.6,157.9-86,222.8c-33.3,64.9-150.9,15.8-207.1,152.7C-42.6,1158.7-94,1188-141.4,1199h1167
					C978.2,1188,926.8,1158.7,897.4,1087.1z"/>
				<g>
					<g>
						<linearGradient id="SVGID_23_" gradientUnits="userSpaceOnUse" x1="418.0265" y1="369.3787" x2="457.6737" y2="454.5229">
							<stop  offset="0" style="stop-color:#BDF7A3"/>
							<stop  offset="1" style="stop-color:#009EE0"/>
						</linearGradient>
						<path class="st28" d="M481.7,390.3l-39,1.7l-39-1.7c0,0-16,12.6-15.7,38.5h54.2h1h54.2C497.7,402.9,481.7,390.3,481.7,390.3z"
							/>
						<g>
							<linearGradient id="SVGID_24_" gradientUnits="userSpaceOnUse" x1="570.2047" y1="295.7341" x2="485.6247" y2="404.8695">
								<stop  offset="0" style="stop-color:#BDF7A3"/>
								<stop  offset="1" style="stop-color:#009EE0"/>
							</linearGradient>
							<path class="st29" d="M502,270.2c0,0,0.5,25.9,23.7,35.5c23.2,9.5,55.5,25.9,56,88.7h-91.1L502,270.2z"/>
							<linearGradient id="SVGID_25_" gradientUnits="userSpaceOnUse" x1="317.1471" y1="278.2325" x2="379.5588" y2="412.2641">
								<stop  offset="0" style="stop-color:#BDF7A3"/>
								<stop  offset="1" style="stop-color:#009EE0"/>
							</linearGradient>
							<path class="st30" d="M382.2,270.2c0,0-0.5,25.9-23.7,35.5c-23.2,9.5-55.5,25.9-56,88.7h91.1L382.2,270.2z"/>
						</g>
						<path class="st27" d="M505.1,397.1c0,0,21.4-249.8-63-334.2c-84.4,84.4-63,334.2-63,334.2H505.1z"/>
					</g>
					<linearGradient id="SVGID_26_" gradientUnits="userSpaceOnUse" x1="399.7733" y1="111.9449" x2="466.2779" y2="233.6994">
						<stop  offset="0" style="stop-color:#BDF7A3"/>
						<stop  offset="1" style="stop-color:#009EE0"/>
					</linearGradient>
					<circle class="st31" cx="442.4" cy="190.1" r="35.1"/>
					<linearGradient id="SVGID_27_" gradientUnits="userSpaceOnUse" x1="414.5386" y1="203.4917" x2="492.2975" y2="385.6115">
						<stop  offset="0" style="stop-color:#BDF7A3"/>
						<stop  offset="1" style="stop-color:#009EE0"/>
					</linearGradient>
					<circle class="st32" cx="442.4" cy="268.8" r="18.1"/>
				</g>
			</g>
			<g class="st0">
				<text transform="matrix(1 0 0 1 342.4761 863.3623)" class="st1"><tspan x="0" y="0" style="font-family:'Rubik-Regular'; font-size:73.5493px;">SPACE</tspan><tspan x="-59.4" y="70.4" style="font-family:'Rubik-Regular'; font-size:73.5493px;">EXPLORER</tspan></text>
				<g class="st1">
					<rect x="241.2" y="960.5" style="fill:none;" width="401.8" height="81.1"/>
					<text transform="matrix(0.9 0 0 1 249.4868 971.916)"><tspan x="0" y="0" style="fill:#8D9092; font-family:'Rubik-Light'; font-size:16.0866px;">Lorem ipsum dolor sit amet, consectetur adipisicing elit, </tspan><tspan x="9.4" y="24.5" style="fill:#8D9092; font-family:'Rubik-Light'; font-size:16.0866px;">sed do eiusmod tempor incididunt ut labore et dolore </tspan><tspan x="160.9" y="49.1" style="fill:#8D9092; font-family:'Rubik-Light'; font-size:16.0866px;">magna aliqua. </tspan></text>
				</g>
			</g>
		</g>
	</g>
</g>
<g id="Layer_2">
	<g>
		<linearGradient id="SVGID_28_" gradientUnits="userSpaceOnUse" x1="779.7972" y1="1.3229" x2="361.0014" y2="1300.2646">
			<stop  offset="0" style="stop-color:#0E216D"/>
			<stop  offset="0.1232" style="stop-color:#15216D"/>
			<stop  offset="0.3003" style="stop-color:#28216C"/>
			<stop  offset="0.51" style="stop-color:#47216C"/>
			<stop  offset="0.7444" style="stop-color:#72226A"/>
			<stop  offset="0.9967" style="stop-color:#A92269"/>
			<stop  offset="1" style="stop-color:#AA2269"/>
		</linearGradient>
		<rect class="st33" width="1180" height="1180"/>
		<linearGradient id="SVGID_29_" gradientUnits="userSpaceOnUse" x1="590" y1="636.231" x2="590" y2="1411.8475">
			<stop  offset="0" style="stop-color:#0E216D"/>
			<stop  offset="0.1528" style="stop-color:#1F216D"/>
			<stop  offset="0.4566" style="stop-color:#4C216B"/>
			<stop  offset="0.8794" style="stop-color:#94226A"/>
			<stop  offset="1" style="stop-color:#AA2269"/>
		</linearGradient>
		<path class="st34" d="M965.4,1043.3c-155.8,138.1-566.4,7.1-764.6-134.5C103.5,839.3,40.4,822.7,0,823.4V1180h1180V828.8
			C1097.7,871.1,1062.6,957.2,965.4,1043.3z"/>
		<linearGradient id="SVGID_30_" gradientUnits="userSpaceOnUse" x1="590" y1="-376.1582" x2="590" y2="909.6139">
			<stop  offset="0" style="stop-color:#0E216D"/>
			<stop  offset="0.1528" style="stop-color:#1F216D"/>
			<stop  offset="0.4566" style="stop-color:#4C216B"/>
			<stop  offset="0.8794" style="stop-color:#94226A"/>
			<stop  offset="1" style="stop-color:#AA2269"/>
		</linearGradient>
		<path class="st35" d="M0,416.3c3.2,1.2,6.4,2.6,9.7,4c148.7,67.3,315,85,424.8-102.7C544.2,130,859.2,119.4,951.3,303.5
			C1017,434.9,1052,544.6,1180,587.6V0H0V416.3z"/>
	</g>
	<g>
		<g>
			<g>
				<g>
					<path class="st2" d="M114,700.4c-41.4-28.1-60.8-54.4-54.8-74.5c6.2-20.5,38.4-31.7,90.6-31.6c51.9,0.1,117.6,11.4,184.9,31.8
						c67.3,20.4,128.2,47.4,171.5,76.1c43.5,28.8,64.1,56,57.9,76.5c-6.2,20.5-38.4,31.7-90.6,31.6c-51.9-0.1-117.6-11.4-184.9-31.8
						c-67.3-20.4-128.2-47.4-171.5-76.1C116.1,701.8,115,701.1,114,700.4z M508.7,705.5c-1-0.7-2.1-1.4-3.1-2.1
						c-43.2-28.6-104-55.6-171.2-75.9c-138.4-41.9-261.2-42.4-273.7-1.1c-6,19.8,14.3,46.4,57.3,74.9c43.2,28.6,104,55.6,171.2,75.9
						c138.4,41.9,261.2,42.4,273.7,1.1C568.7,758.9,549.4,733.1,508.7,705.5z"/>
					<path class="st2" d="M161.3,701c-31.5-21.4-46.3-41.5-41.7-56.8c4.7-15.7,29.3-24.3,69-24.2c39.5,0.1,89.4,8.7,140.6,24.1
						c51.2,15.5,97.5,36,130.4,57.8c33.1,22,48.8,42.7,44.1,58.4c-4.7,15.7-29.3,24.3-69,24.2c-39.5-0.1-89.4-8.7-140.6-24.1
						c-51.2-15.5-97.5-36-130.4-57.8C162.9,702.1,162.1,701.5,161.3,701z M461.3,704.9c-0.8-0.5-1.6-1.1-2.4-1.6
						c-32.8-21.7-79-42.2-130-57.7c-51-15.4-100.8-24-140.2-24.1c-39.1-0.1-63.1,8.1-67.6,23.1c-4.5,15,10.9,35.1,43.5,56.7
						c32.8,21.7,79,42.2,130,57.7c51,15.4,100.8,24,140.2,24.1c39.1,0.1,63.1-8.1,67.6-23.1C506.8,745.4,492.2,725.8,461.3,704.9z"
						/>
					<path class="st2" d="M214,701.7c-20.6-13.9-30.2-27.1-27.2-37.2c3.1-10.3,19.1-15.9,45.1-15.9c25.7,0.1,58.1,5.6,91.3,15.7
						c68.9,20.8,119.8,54.8,113.4,75.8l0,0c-6.3,20.9-67.5,21-136.4,0.2c-33.2-10.1-63.3-23.4-84.7-37.6
						C215,702.4,214.5,702,214,701.7z M408.9,704.2c-20.4-13.8-50.9-27.8-86.1-38.5c-33.1-10-65.4-15.6-90.9-15.6
						c-24.9-0.1-40.8,5.3-43.6,14.8c-2.9,9.5,7.4,22.8,28.1,36.5c21.3,14.1,51.2,27.4,84.3,37.4c68.1,20.6,128.5,21,134.6,0.8l0,0
						C438.2,729.9,427.9,717.2,408.9,704.2z"/>
					<path class="st2" d="M271.9,702.5c-8.3-5.6-12.6-11.2-11.3-15.6c2.7-8.9,27.2-9,55.8-0.4c13.5,4.1,25.8,9.5,34.5,15.3
						c8.9,5.9,13.1,11.6,11.8,16c-2.7,8.9-27.2,9-55.8,0.4C292.6,713.8,280.3,708.2,271.9,702.5z M350.8,703.4
						c-0.2-0.1-0.4-0.3-0.6-0.4c-8.6-5.7-20.7-11.1-34.1-15.1c-26.9-8.1-51.6-8.4-54-0.6c-2.4,7.8,18.4,21.3,45.3,29.4
						c26.9,8.1,51.6,8.4,54,0.6C362.4,713.8,358.6,708.7,350.8,703.4z"/>
				</g>
				<g>
					<g>
						<circle class="st3" cx="501.6" cy="163.3" r="5.3"/>
						<circle class="st4" cx="674.9" cy="264.8" r="5.3"/>
						<circle class="st5" cx="684.1" cy="351.3" r="5.3"/>
						<circle class="st4" cx="370.4" cy="311.2" r="5.3"/>
						<circle class="st3" cx="346.8" cy="171.2" r="5.3"/>
						<circle class="st3" cx="196.4" cy="50" r="5.3"/>
						<circle class="st3" cx="999.6" cy="247.8" r="5.3"/>
						<circle class="st3" cx="871.7" cy="259.7" r="5.3"/>
						<circle class="st3" cx="818.7" cy="184.5" r="8.1"/>
						<g>
							<circle class="st2" cx="488.5" cy="335.1" r="8.1"/>
							<circle class="st5" cx="488.5" cy="335.1" r="3.2"/>
						</g>
						<g>
							<circle class="st2" cx="448.3" cy="166.6" r="2.4"/>
							<path class="st5" d="M449.3,166.6c0,0.5-0.4,0.9-0.9,0.9c-0.5,0-0.9-0.4-0.9-0.9c0-0.5,0.4-0.9,0.9-0.9
								C448.9,165.7,449.3,166.1,449.3,166.6z"/>
						</g>
						<g>
							<circle class="st2" cx="641.3" cy="143.6" r="3"/>
							<path class="st5" d="M642.4,143.6c0,0.7-0.5,1.2-1.2,1.2c-0.7,0-1.2-0.5-1.2-1.2c0-0.7,0.5-1.2,1.2-1.2
								C641.9,142.4,642.4,143,642.4,143.6z"/>
						</g>
						<g>
							<path class="st2" d="M904.9,187.9c0,2.2-1.8,4.1-4.1,4.1c-2.2,0-4.1-1.8-4.1-4.1c0-2.2,1.8-4.1,4.1-4.1
								C903.1,183.8,904.9,185.6,904.9,187.9z"/>
							<path class="st5" d="M902.5,187.9c0,0.9-0.7,1.6-1.6,1.6s-1.6-0.7-1.6-1.6s0.7-1.6,1.6-1.6S902.5,187,902.5,187.9z"/>
						</g>
						<circle class="st3" cx="150" cy="60.2" r="8.1"/>
						<circle class="st3" cx="772.2" cy="294.9" r="3.1"/>
						<circle class="st3" cx="731.1" cy="214.7" r="5.3"/>
						<circle class="st5" cx="826.1" cy="67.3" r="2.8"/>
						<path class="st5" d="M765.8,152.2c0,0.9-0.7,1.6-1.6,1.6c-0.9,0-1.6-0.7-1.6-1.6c0-0.9,0.7-1.6,1.6-1.6
							C765.1,150.6,765.8,151.3,765.8,152.2z"/>
						<path class="st5" d="M419.8,221.5c0,0.9-0.7,1.6-1.6,1.6c-0.9,0-1.6-0.7-1.6-1.6c0-0.9,0.7-1.6,1.6-1.6
							C419.1,219.9,419.8,220.6,419.8,221.5z"/>
						<path class="st5" d="M176.7,115.3c0,0.9-0.7,1.6-1.6,1.6c-0.9,0-1.6-0.7-1.6-1.6c0-0.9,0.7-1.6,1.6-1.6
							C176,113.7,176.7,114.4,176.7,115.3z"/>
						<circle class="st5" cx="253" cy="135.7" r="1.6"/>
						<circle class="st5" cx="423.8" cy="134.2" r="1.6"/>
						<circle class="st5" cx="853.3" cy="319.8" r="1.6"/>
						<circle class="st5" cx="965.8" cy="166.6" r="1.6"/>
						<path class="st3" d="M641.1,251c0,0.9-0.7,1.6-1.6,1.6c-0.9,0-1.6-0.7-1.6-1.6c0-0.9,0.7-1.6,1.6-1.6
							C640.4,249.4,641.1,250.1,641.1,251z"/>
						<path class="st3" d="M691.8,157.9c0,0.9-0.7,1.6-1.6,1.6c-0.9,0-1.6-0.7-1.6-1.6c0-0.9,0.7-1.6,1.6-1.6
							C691.1,156.3,691.8,157,691.8,157.9z"/>
						<circle class="st5" cx="1097.1" cy="298.6" r="1.6"/>
					</g>
					<g>
						<circle class="st3" cx="729.8" cy="518.8" r="5.3"/>
						<circle class="st4" cx="581.8" cy="483.4" r="5.3"/>
						<circle class="st4" cx="50.1" cy="602.2" r="5.3"/>
						<circle class="st4" cx="965.8" cy="390.4" r="5.3"/>
						<circle class="st3" cx="1053.3" cy="452.7" r="5.3"/>
						<circle class="st3" cx="833.7" cy="436.4" r="5.3"/>
						<path class="st3" d="M131.4,532c0-2.9,2.4-5.3,5.3-5.3c2.9,0,5.3,2.4,5.3,5.3c0,2.9-2.4,5.3-5.3,5.3
							C133.7,537.3,131.4,534.9,131.4,532z"/>
						<circle class="st3" cx="308.2" cy="410.8" r="5.3"/>
						<circle class="st3" cx="429.5" cy="572.3" r="8.1"/>
						<g>
							<circle class="st2" cx="706.2" cy="441.7" r="8.1"/>
							<circle class="st5" cx="706.2" cy="441.7" r="3.2"/>
						</g>
						<g>
							<circle class="st2" cx="305" cy="790" r="2.4"/>
							<path class="st5" d="M304.1,790c0-0.5,0.4-0.9,0.9-0.9c0.5,0,0.9,0.4,0.9,0.9c0,0.5-0.4,0.9-0.9,0.9
								C304.5,791,304.1,790.6,304.1,790z"/>
						</g>
						<g>
							<circle class="st2" cx="615.4" cy="604.5" r="3"/>
							<path class="st5" d="M614.2,604.5c0-0.7,0.5-1.2,1.2-1.2c0.7,0,1.2,0.5,1.2,1.2c0,0.7-0.5,1.2-1.2,1.2
								C614.7,605.7,614.2,605.2,614.2,604.5z"/>
						</g>
						<g>
							<path class="st2" d="M351.7,560.3c0-2.2,1.8-4.1,4.1-4.1c2.2,0,4.1,1.8,4.1,4.1c0,2.2-1.8,4.1-4.1,4.1
								C353.5,564.4,351.7,562.5,351.7,560.3z"/>
							<circle class="st5" cx="355.8" cy="560.3" r="1.6"/>
						</g>
						<circle class="st3" cx="969" cy="493.6" r="8.1"/>
						<circle class="st3" cx="487.5" cy="481" r="3.1"/>
						<circle class="st3" cx="525.6" cy="533.5" r="5.3"/>
						<circle class="st5" cx="361.7" cy="679.7" r="2.8"/>
						<circle class="st5" cx="482.8" cy="578.6" r="1.6"/>
						<circle class="st5" cx="838.4" cy="526.7" r="1.6"/>
						<circle class="st5" cx="1153.1" cy="499.9" r="1.6"/>
						<path class="st5" d="M1002,612.4c0-0.9,0.7-1.6,1.6-1.6c0.9,0,1.6,0.7,1.6,1.6c0,0.9-0.7,1.6-1.6,1.6
							C1002.7,614,1002,613.3,1002,612.4z"/>
						<circle class="st5" cx="873" cy="583.3" r="1.6"/>
						<circle class="st5" cx="403.4" cy="428.3" r="1.6"/>
						<circle class="st5" cx="290.8" cy="581.6" r="1.6"/>
						<path class="st3" d="M615.5,497.2c0-0.9,0.7-1.6,1.6-1.6c0.9,0,1.6,0.7,1.6,1.6s-0.7,1.6-1.6,1.6
							C616.2,498.7,615.5,498,615.5,497.2z"/>
						<path class="st3" d="M564.8,590.3c0-0.9,0.7-1.6,1.6-1.6c0.9,0,1.6,0.7,1.6,1.6c0,0.9-0.7,1.6-1.6,1.6
							C565.5,591.9,564.8,591.1,564.8,590.3z"/>
						<circle class="st5" cx="159.5" cy="449.6" r="1.6"/>
					</g>
				</g>
				<g>
					<g>
						<circle class="st3" cx="697.8" cy="1105.7" r="5.3"/>
						<circle class="st4" cx="524.6" cy="1004.2" r="5.3"/>
						<circle class="st5" cx="556.2" cy="927.9" r="5.3"/>
						<circle class="st3" cx="852.6" cy="1097.7" r="5.3"/>
						<circle class="st3" cx="199.9" cy="1021.1" r="5.3"/>
						<circle class="st3" cx="327.7" cy="1009.2" r="5.3"/>
						<circle class="st3" cx="380.8" cy="1084.4" r="8.1"/>
						<g>
							<circle class="st2" cx="649.1" cy="962.5" r="8.1"/>
							<circle class="st5" cx="649.1" cy="962.5" r="3.2"/>
						</g>
						<g>
							<circle class="st2" cx="751.1" cy="1102.3" r="2.4"/>
							<path class="st5" d="M750.2,1102.3c0-0.5,0.4-0.9,0.9-0.9c0.5,0,0.9,0.4,0.9,0.9c0,0.5-0.4,0.9-0.9,0.9
								C750.6,1103.3,750.2,1102.8,750.2,1102.3z"/>
						</g>
						<g>
							<circle class="st2" cx="558.2" cy="1125.3" r="3"/>
							<path class="st5" d="M557,1125.3c0-0.7,0.5-1.2,1.2-1.2c0.7,0,1.2,0.5,1.2,1.2c0,0.7-0.5,1.2-1.2,1.2
								C557.5,1126.5,557,1126,557,1125.3z"/>
						</g>
						<g>
							<path class="st2" d="M294.5,1081.1c0-2.2,1.8-4.1,4.1-4.1c2.2,0,4.1,1.8,4.1,4.1c0,2.2-1.8,4.1-4.1,4.1
								C296.4,1085.1,294.5,1083.3,294.5,1081.1z"/>
							<path class="st5" d="M297,1081.1c0-0.9,0.7-1.6,1.6-1.6c0.9,0,1.6,0.7,1.6,1.6c0,0.9-0.7,1.6-1.6,1.6
								C297.7,1082.7,297,1082,297,1081.1z"/>
						</g>
						<circle class="st3" cx="427.2" cy="974" r="3.1"/>
						<circle class="st3" cx="468.4" cy="1054.2" r="5.3"/>
						<circle class="st5" cx="435.3" cy="1116.8" r="1.6"/>
						<circle class="st5" cx="781.2" cy="1047.4" r="1.6"/>
						<circle class="st5" cx="1024.3" cy="1153.6" r="1.6"/>
						<path class="st5" d="M944.8,1133.2c0-0.9,0.7-1.6,1.6-1.6c0.9,0,1.6,0.7,1.6,1.6c0,0.9-0.7,1.6-1.6,1.6
							C945.5,1134.8,944.8,1134.1,944.8,1133.2z"/>
						<circle class="st5" cx="775.7" cy="1134.8" r="1.6"/>
						<circle class="st5" cx="346.2" cy="949.1" r="1.6"/>
						<circle class="st5" cx="233.6" cy="1102.4" r="1.6"/>
						<circle class="st3" cx="559.9" cy="1017.9" r="1.6"/>
						<circle class="st3" cx="509.2" cy="1111" r="1.6"/>
						<circle class="st5" cx="102.3" cy="970.3" r="1.6"/>
					</g>
					<g>
						<circle class="st3" cx="469.6" cy="778.4" r="5.3"/>
						<circle class="st4" cx="617.7" cy="813.8" r="5.3"/>
						<circle class="st4" cx="1149.3" cy="695.1" r="5.3"/>
						<circle class="st4" cx="233.6" cy="906.9" r="5.3"/>
						<circle class="st3" cx="146.1" cy="844.5" r="5.3"/>
						<circle class="st3" cx="365.8" cy="860.9" r="5.3"/>
						<circle class="st3" cx="1062.8" cy="765.3" r="5.3"/>
						<circle class="st3" cx="891.3" cy="886.4" r="5.3"/>
						<circle class="st3" cx="769.9" cy="725" r="8.1"/>
						<g>
							<circle class="st2" cx="493.2" cy="855.5" r="8.1"/>
							<circle class="st5" cx="493.2" cy="855.5" r="3.2"/>
						</g>
						<g>
							<circle class="st2" cx="894.4" cy="507.2" r="2.4"/>
							<path class="st5" d="M895.4,507.2c0,0.5-0.4,0.9-0.9,0.9c-0.5,0-0.9-0.4-0.9-0.9c0-0.5,0.4-0.9,0.9-0.9
								C894.9,506.3,895.4,506.7,895.4,507.2z"/>
						</g>
						<g>
							<circle class="st2" cx="584.1" cy="692.7" r="3"/>
							<path class="st5" d="M585.3,692.7c0,0.7-0.5,1.2-1.2,1.2c-0.7,0-1.2-0.5-1.2-1.2c0-0.7,0.5-1.2,1.2-1.2
								C584.7,691.5,585.3,692,585.3,692.7z"/>
						</g>
						<g>
							<path class="st2" d="M847.7,736.9c0,2.2-1.8,4.1-4.1,4.1c-2.2,0-4.1-1.8-4.1-4.1c0-2.2,1.8-4.1,4.1-4.1
								C845.9,732.9,847.7,734.7,847.7,736.9z"/>
							<path class="st5" d="M845.3,736.9c0,0.9-0.7,1.6-1.6,1.6c-0.9,0-1.6-0.7-1.6-1.6c0-0.9,0.7-1.6,1.6-1.6
								C844.6,735.3,845.3,736,845.3,736.9z"/>
						</g>
						<circle class="st3" cx="230.5" cy="803.6" r="8.1"/>
						<circle class="st3" cx="711.9" cy="816.2" r="3.1"/>
						<circle class="st3" cx="673.9" cy="763.8" r="5.3"/>
						<path class="st5" d="M840.5,617.6c0,1.5-1.2,2.8-2.8,2.8c-1.5,0-2.8-1.2-2.8-2.8s1.2-2.8,2.8-2.8
							C839.3,614.8,840.5,616.1,840.5,617.6z"/>
						<circle class="st5" cx="716.6" cy="718.7" r="1.6"/>
						<path class="st5" d="M362.6,770.6c0,0.9-0.7,1.6-1.6,1.6c-0.9,0-1.6-0.7-1.6-1.6c0-0.9,0.7-1.6,1.6-1.6
							C361.9,769,362.6,769.7,362.6,770.6z"/>
						<circle class="st5" cx="46.4" cy="797.3" r="1.6"/>
						<circle class="st5" cx="195.9" cy="684.8" r="1.6"/>
						<circle class="st5" cx="326.5" cy="713.9" r="1.6"/>
						<circle class="st5" cx="796.1" cy="868.9" r="1.6"/>
						<circle class="st5" cx="908.7" cy="715.7" r="1.6"/>
						<circle class="st3" cx="582.3" cy="800.1" r="1.6"/>
						<circle class="st3" cx="633" cy="707" r="1.6"/>
						<circle class="st5" cx="1040" cy="847.7" r="1.6"/>
					</g>
				</g>
				<g>
					<path class="st2" d="M828,447.4c-38.8,0-62.8-8.5-67.7-24c-5-15.9,10.8-37.1,44.5-59.8c33.4-22.6,80.6-43.9,132.7-60.2
						c52.2-16.3,103.1-25.4,143.4-25.9c40.6-0.5,65.6,8.1,70.6,24c5,15.9-10.8,37.1-44.5,59.8c-33.4,22.6-80.6,43.9-132.7,60.2
						C922.3,437.8,871.3,447,831,447.4C830,447.4,829,447.4,828,447.4z M1084,278.7c-1,0-1.9,0-2.9,0c-40.2,0.4-91.1,9.6-143.1,25.8
						c-107.3,33.4-186.4,86.6-176.5,118.6c4.8,15.4,29.5,23.6,69.5,23.2c40.2-0.4,91.1-9.6,143.1-25.8
						c107.3-33.4,186.4-86.6,176.5-118.6C1145.8,286.9,1122.3,278.7,1084,278.7z"/>
					<path class="st2" d="M858.8,427.2c-29.6,0-47.9-6.5-51.6-18.3c-3.8-12.1,8.2-28.3,33.8-45.6c25.4-17.2,61.3-33.4,100.9-45.8
						c39.7-12.4,78.4-19.3,109.1-19.7c30.9-0.3,50,6.2,53.8,18.3c3.8,12.1-8.2,28.3-33.8,45.6c-25.4,17.2-61.3,33.4-100.9,45.8
						c-39.7,12.4-78.4,19.3-109.1,19.7C860.2,427.2,859.5,427.2,858.8,427.2z M1053.3,298.9c-0.7,0-1.5,0-2.2,0
						c-30.6,0.3-69.2,7.3-108.7,19.6c-39.5,12.3-75.3,28.5-100.6,45.6c-25.2,17-37,32.7-33.4,44.3c3.6,11.6,22.3,17.8,52.7,17.5
						c30.6-0.3,69.2-7.3,108.7-19.6c39.5-12.3,75.3-28.5,100.6-45.6c25.2-17,37-32.7,33.4-44.3
						C1100.2,305.1,1082.3,298.9,1053.3,298.9z"/>
					<path class="st2" d="M892.9,404.7c-19.3,0-31.2-4.3-33.7-12c-2.5-8,5.3-18.6,22-29.8c16.5-11.1,39.8-21.7,65.6-29.7
						c53.4-16.6,100.9-17,105.9-0.7l0,0c5.1,16.2-34.2,42.9-87.6,59.6c-25.8,8-50.9,12.6-70.8,12.8
						C893.8,404.7,893.4,404.7,892.9,404.7z M1019.3,321.4c-19.1,0-44.8,4.3-72.1,12.8c-25.7,8-48.8,18.5-65.3,29.6
						c-16,10.8-23.9,21.2-21.6,28.6c2.3,7.3,14.7,11.5,34,11.2c19.8-0.2,44.9-4.7,70.5-12.7c52.8-16.4,91.7-42.5,86.9-58.1l0,0
						C1049.3,325.1,1037.2,321.4,1019.3,321.4z"/>
					<path class="st2" d="M930.5,379.9c-7.8,0-13-1.7-14.1-5.1c-2.1-6.9,13.6-17.7,35.7-24.6c10.5-3.3,20.7-5.1,28.8-5.2
						c8.3-0.1,13.5,1.7,14.6,5.1c2.1,6.9-13.6,17.7-35.7,24.6C948.7,378.2,938.3,379.9,930.5,379.9z M981.6,346.2
						c-0.2,0-0.4,0-0.6,0c-8,0.1-18.1,1.9-28.5,5.1c-20.9,6.5-36.9,17.1-35,23.1c1.9,6,21.1,5.7,41.9-0.8
						c20.9-6.5,36.9-17.1,35-23.1C993.6,347.7,988.9,346.2,981.6,346.2z"/>
				</g>
			</g>
			<g>
				<defs>
					<rect id="SVGID_31_" width="1180" height="1180"/>
				</defs>
				<clipPath id="SVGID_32_">
					<use xlink:href="#SVGID_31_"  style="overflow:visible;"/>
				</clipPath>
				<g class="st36">
					<g>
						<linearGradient id="SVGID_33_" gradientUnits="userSpaceOnUse" x1="257.6366" y1="765.3306" x2="471.1729" y2="765.3306">
							<stop  offset="0" style="stop-color:#BDF7A3"/>
							<stop  offset="1" style="stop-color:#009EE0"/>
						</linearGradient>
						<circle class="st37" cx="379" cy="765.3" r="87.5"/>
						<linearGradient id="SVGID_34_" gradientUnits="userSpaceOnUse" x1="314.3571" y1="540.6298" x2="367.8506" y2="745.163">
							<stop  offset="0" style="stop-color:#BDF7A3"/>
							<stop  offset="1" style="stop-color:#009EE0"/>
						</linearGradient>
						<path class="st38" d="M307,815c41.4-21.6,96.8-57.8,134.8-110.7c-6-6.2-12.9-11.5-20.5-15.7c-17.9,28.5-54.4,69.5-126.2,101.6
							C297.8,799.2,301.8,807.5,307,815z"/>
						<linearGradient id="SVGID_35_" gradientUnits="userSpaceOnUse" x1="331.2634" y1="536.2086" x2="384.7567" y2="740.7413">
							<stop  offset="0" style="stop-color:#BDF7A3"/>
							<stop  offset="1" style="stop-color:#009EE0"/>
						</linearGradient>
						<path class="st39" d="M460.9,734.5c-17.3,28.7-53.9,71.6-128.6,104.9c10.1,6.4,21.6,10.8,33.9,12.6
							c32.8-19.2,70.1-46.2,100.1-81.9c0.1-1.5,0.1-3.1,0.1-4.6C466.5,754.5,464.5,744.1,460.9,734.5z"/>
					</g>
					<g>
						<g>
							<g>
								
									<linearGradient id="SVGID_36_" gradientUnits="userSpaceOnUse" x1="619.6213" y1="1106.2523" x2="813.8882" y2="1106.2523" gradientTransform="matrix(0.8 -0.6 0.6 0.8 -85.9033 336.3131)">
									<stop  offset="0" style="stop-color:#FFE900"/>
									<stop  offset="1" style="stop-color:#FF13BD"/>
								</linearGradient>
								<circle class="st40" cx="1151.3" cy="791.3" r="97.1"/>
							</g>
						</g>
						<linearGradient id="SVGID_37_" gradientUnits="userSpaceOnUse" x1="1044.4368" y1="682.4774" x2="1239.5303" y2="960.958">
							<stop  offset="0" style="stop-color:#FFE900"/>
							<stop  offset="1" style="stop-color:#FF13BD"/>
						</linearGradient>
						<path class="st41" d="M1105.7,705.5c-4.4,2.3-8.6,5-12.7,8.1c-42.9,32.2-51.6,93.1-19.4,136c17.4,23.2,43.1,36.3,69.8,38.5
							c4.4-2.3,8.6-5,12.7-8.1c42.9-32.2,51.6-93.1,19.4-136C1158.1,720.8,1132.4,707.7,1105.7,705.5z"/>
						
							<linearGradient id="SVGID_38_" gradientUnits="userSpaceOnUse" x1="729.1006" y1="1090.0165" x2="1186.1566" y2="1090.0165" gradientTransform="matrix(0.9461 -0.3239 0.3239 0.9461 -99.075 79.2756)">
							<stop  offset="0" style="stop-color:#BDF7A3"/>
							<stop  offset="1" style="stop-color:#009EE0"/>
						</linearGradient>
						<path class="st42" d="M1233.7,739.7c0.8,1.5,2.2,4,3.7,6.9c50.3-13.5,85.8-18.8,88.2-11.9c3.6,10.5-68.9,44.8-161.9,76.7
							c-93,31.8-171.3,49.1-174.9,38.6c-2.2-6.5,24.4-21.9,66.7-40.3l0,0l-1-7.9c-70,30-115.7,58.2-111.2,71.3
							c6.2,18.3,108.1-0.1,227.5-41c119.4-40.9,211.1-88.8,204.9-107.1C1371.1,711.4,1312.8,718.2,1233.7,739.7z"/>
					</g>
					<g>
						<g>
							
								<linearGradient id="SVGID_39_" gradientUnits="userSpaceOnUse" x1="571.3865" y1="568.5587" x2="982.9733" y2="568.5587" gradientTransform="matrix(0 -1 1 0 525.822 807.6175)">
								<stop  offset="0" style="stop-color:#FFE900"/>
								<stop  offset="0.1684" style="stop-color:#FFCB1B"/>
								<stop  offset="0.5369" style="stop-color:#FF7D60"/>
								<stop  offset="1" style="stop-color:#FF13BD"/>
							</linearGradient>
							<circle class="st43" cx="1094.4" cy="30.4" r="205.8"/>
							<g>
								
									<linearGradient id="SVGID_40_" gradientUnits="userSpaceOnUse" x1="632.2668" y1="595.9779" x2="702.0267" y2="473.8982" gradientTransform="matrix(0 -1 1 0 525.822 807.6175)">
									<stop  offset="0" style="stop-color:#E7FFF9"/>
									<stop  offset="1" style="stop-color:#FF5668"/>
								</linearGradient>
								<circle class="st44" cx="1077" cy="149.8" r="48.7"/>
								
									<linearGradient id="SVGID_41_" gradientUnits="userSpaceOnUse" x1="899.1771" y1="507.8932" x2="892.201" y2="419.9961" gradientTransform="matrix(0 -1 1 0 525.822 807.6175)">
									<stop  offset="0" style="stop-color:#E7FFF9"/>
									<stop  offset="1" style="stop-color:#FF5668"/>
								</linearGradient>
								<circle class="st45" cx="1006.7" cy="-89.4" r="39.3"/>
								
									<linearGradient id="SVGID_42_" gradientUnits="userSpaceOnUse" x1="794.5776" y1="463.3799" x2="800.856" y2="430.5924" gradientTransform="matrix(0 -1 1 0 525.822 807.6175)">
									<stop  offset="0" style="stop-color:#E7FFF9"/>
									<stop  offset="1" style="stop-color:#FF5668"/>
								</linearGradient>
								<path class="st46" d="M978.7-7.6c10.3,0,18.6,8.3,18.6,18.6c0,10.3-8.3,18.6-18.6,18.6c-10.3,0-18.6-8.3-18.6-18.6
									C960,0.7,968.4-7.6,978.7-7.6z"/>
								
									<linearGradient id="SVGID_43_" gradientUnits="userSpaceOnUse" x1="747.9282" y1="626.8022" x2="785.2046" y2="626.8022" gradientTransform="matrix(0 -1 1 0 525.822 807.6175)">
									<stop  offset="0" style="stop-color:#E7FFF9"/>
									<stop  offset="1" style="stop-color:#FF5668"/>
								</linearGradient>
								<path class="st47" d="M1152.6,22.4c10.3,0,18.6,8.3,18.6,18.6c0,10.3-8.3,18.6-18.6,18.6c-10.3,0-18.6-8.3-18.6-18.6
									C1134,30.8,1142.3,22.4,1152.6,22.4z"/>
								
									<linearGradient id="SVGID_44_" gradientUnits="userSpaceOnUse" x1="864.4175" y1="598.7986" x2="891.3387" y2="598.7986" gradientTransform="matrix(0 -1 1 0 525.822 807.6175)">
									<stop  offset="0" style="stop-color:#E7FFF9"/>
									<stop  offset="1" style="stop-color:#FF5668"/>
								</linearGradient>
								<path class="st48" d="M1124.6-83.7c7.4,0,13.5,6,13.5,13.5c0,7.4-6,13.5-13.5,13.5c-7.4,0-13.5-6-13.5-13.5
									C1111.2-77.7,1117.2-83.7,1124.6-83.7z"/>
								
									<linearGradient id="SVGID_45_" gradientUnits="userSpaceOnUse" x1="717.8058" y1="463.6372" x2="733.3163" y2="449.7886" gradientTransform="matrix(0 -1 1 0 525.822 807.6175)">
									<stop  offset="0" style="stop-color:#E7FFF9"/>
									<stop  offset="1" style="stop-color:#FF5668"/>
								</linearGradient>
								<path class="st49" d="M986.5,79.3c4,0,7.2,3.2,7.2,7.2c0,4-3.2,7.2-7.2,7.2c-4,0-7.2-3.2-7.2-7.2
									C979.3,82.5,982.5,79.3,986.5,79.3z"/>
								
									<linearGradient id="SVGID_46_" gradientUnits="userSpaceOnUse" x1="690.7249" y1="431.7257" x2="693.4946" y2="414.8298" gradientTransform="matrix(0 -1 1 0 525.822 807.6175)">
									<stop  offset="0" style="stop-color:#E7FFF9"/>
									<stop  offset="1" style="stop-color:#FF5668"/>
								</linearGradient>
								<path class="st50" d="M949.7,108.4c4,0,7.2,3.2,7.2,7.2c0,4-3.2,7.2-7.2,7.2c-4,0-7.2-3.2-7.2-7.2
									C942.4,111.6,945.7,108.4,949.7,108.4z"/>
							</g>
						</g>
					</g>
					<g>
						<linearGradient id="SVGID_47_" gradientUnits="userSpaceOnUse" x1="307.5665" y1="-112.9573" x2="413.761" y2="71.1136">
							<stop  offset="0" style="stop-color:#B665F9"/>
							<stop  offset="0.995" style="stop-color:#4861FF"/>
						</linearGradient>
						<circle class="st51" cx="360.6" cy="-21.1" r="128"/>
						<linearGradient id="SVGID_48_" gradientUnits="userSpaceOnUse" x1="248.1869" y1="-453.5222" x2="302.4672" y2="-243.4819">
							<stop  offset="0" style="stop-color:#B665F9"/>
							<stop  offset="0.995" style="stop-color:#4861FF"/>
						</linearGradient>
						<path class="st52" d="M456.1-106.3c-12.4,9.5-28.8,18.4-55,29.1c-50.3,20.5-34.6,15.7-81.8,22c-47.2,6.3-26.7,3.1-62.9-12.6
							c-4.5-1.9-8.7-3.7-12.7-5.2c-7.1,15.9-11,33.5-11,52c0,13.9,2.2,27.3,6.3,39.8c20.2-0.3,42.1-3.1,66.2-7.9
							c47.2-9.4,48.8-4.7,97.5-23.6c48.8-18.9,40.9-28.3,75.5-56.6c0.3-0.2,0.5-0.4,0.8-0.7C473.3-83.4,465.6-95.7,456.1-106.3z"/>
						<linearGradient id="SVGID_49_" gradientUnits="userSpaceOnUse" x1="253.9337" y1="-455.0069" x2="308.2137" y2="-244.9673">
							<stop  offset="0" style="stop-color:#B665F9"/>
							<stop  offset="0.995" style="stop-color:#4861FF"/>
						</linearGradient>
						<path class="st53" d="M488.5-27.6c-3.5,5.3-8.3,10.9-15.1,16.4c-25.2,20.5-31.5,37.8-56.6,45.6c-25.2,7.9-40.9,14.2-78.7,17.3
							c-27.3,2.3-52.9,7.8-74.5,10.7c6.3,7.3,13.3,13.8,21,19.5c5.4-0.7,10.7-1.4,15.7-1.9c28.3-3.1,15.7,0,58.2-7.9
							c42.5-7.9,44.1-4.7,75.5-23.6S470.3,18.7,481.3,3c2.1-2.9,4.3-6.7,6.7-10.9c0.4-4.3,0.7-8.7,0.7-13.2
							C488.6-23.2,488.6-25.4,488.5-27.6z"/>
					</g>
					<linearGradient id="SVGID_50_" gradientUnits="userSpaceOnUse" x1="-204.7438" y1="134.4352" x2="356.7044" y2="134.4352">
						<stop  offset="0" style="stop-color:#0E216D"/>
						<stop  offset="0.1362" style="stop-color:#12216F"/>
						<stop  offset="0.2685" style="stop-color:#1E2177"/>
						<stop  offset="0.3993" style="stop-color:#312183"/>
						<stop  offset="0.5292" style="stop-color:#4D2195"/>
						<stop  offset="0.6584" style="stop-color:#7021AB"/>
						<stop  offset="0.7872" style="stop-color:#9B22C6"/>
						<stop  offset="0.9132" style="stop-color:#CE22E6"/>
						<stop  offset="1" style="stop-color:#F522FF"/>
					</linearGradient>
					<circle class="st54" cx="114.3" cy="134.4" r="230.1"/>
					<linearGradient id="SVGID_51_" gradientUnits="userSpaceOnUse" x1="886.8918" y1="356.2637" x2="1020.2756" y2="356.2637">
						<stop  offset="0" style="stop-color:#0E216D"/>
						<stop  offset="0.1362" style="stop-color:#12216F"/>
						<stop  offset="0.2685" style="stop-color:#1E2177"/>
						<stop  offset="0.3993" style="stop-color:#312183"/>
						<stop  offset="0.5292" style="stop-color:#4D2195"/>
						<stop  offset="0.6584" style="stop-color:#7021AB"/>
						<stop  offset="0.7872" style="stop-color:#9B22C6"/>
						<stop  offset="0.9132" style="stop-color:#CE22E6"/>
						<stop  offset="1" style="stop-color:#F522FF"/>
					</linearGradient>
					<circle class="st55" cx="962.7" cy="356.3" r="54.7"/>
					<linearGradient id="SVGID_52_" gradientUnits="userSpaceOnUse" x1="190.4793" y1="467.9853" x2="248.1136" y2="467.9853">
						<stop  offset="0" style="stop-color:#BDF7A3"/>
						<stop  offset="1" style="stop-color:#009EE0"/>
					</linearGradient>
					<circle class="st56" cx="223.2" cy="468" r="23.6"/>
				</g>
			</g>
		</g>
		<g>
			<g>
				<path class="st27" d="M998.3,1079.7C947.9,957,842.5,1001,812.6,942.8c-29.9-58.2,23.6-122.7-77.1-199.8
					c-100.7-77.1-116.4-262.7-116.4-262.7c-1.6-1.6-18.5-1-29.1-0.5c-10.6-0.5-27.5-1.1-29.1,0.5c0,0-15.7,185.7-116.4,262.7
					c-100.7,77.1-47.2,141.6-77.1,199.8c-29.9,58.2-135.3,14.2-185.7,136.9c-26.3,64.2-72.4,90.5-114.9,100.3h1046.4
					C1070.7,1170.2,1024.6,1143.9,998.3,1079.7z"/>
				<g>
					<g>
						<linearGradient id="SVGID_53_" gradientUnits="userSpaceOnUse" x1="568.4154" y1="436.1147" x2="603.9654" y2="512.4597">
							<stop  offset="0" style="stop-color:#BDF7A3"/>
							<stop  offset="1" style="stop-color:#009EE0"/>
						</linearGradient>
						<path class="st57" d="M625.5,454.8l-35,1.5l-35-1.5c0,0-14.4,11.3-14.1,34.6H590h0.9h48.6
							C639.8,466.1,625.5,454.8,625.5,454.8z"/>
						<g>
							<linearGradient id="SVGID_54_" gradientUnits="userSpaceOnUse" x1="704.867" y1="370.0807" x2="629.0278" y2="467.9377">
								<stop  offset="0" style="stop-color:#BDF7A3"/>
								<stop  offset="1" style="stop-color:#009EE0"/>
							</linearGradient>
							<path class="st58" d="M643.7,347.2c0,0,0.5,23.2,21.3,31.8c20.8,8.6,49.8,23.2,50.2,79.5h-81.6L643.7,347.2z"/>
							<linearGradient id="SVGID_55_" gradientUnits="userSpaceOnUse" x1="477.9612" y1="354.3878" x2="533.9231" y2="474.5681">
								<stop  offset="0" style="stop-color:#BDF7A3"/>
								<stop  offset="1" style="stop-color:#009EE0"/>
							</linearGradient>
							<path class="st59" d="M536.3,347.2c0,0-0.5,23.2-21.3,31.8c-20.8,8.6-49.8,23.2-50.2,79.5h81.6L536.3,347.2z"/>
						</g>
						<path class="st27" d="M646.5,460.9c0,0,19.2-224-56.5-299.7c-75.7,75.7-56.5,299.7-56.5,299.7H646.5z"/>
					</g>
					<linearGradient id="SVGID_56_" gradientUnits="userSpaceOnUse" x1="552.0486" y1="205.2849" x2="611.6804" y2="314.4569">
						<stop  offset="0" style="stop-color:#BDF7A3"/>
						<stop  offset="1" style="stop-color:#009EE0"/>
					</linearGradient>
					<circle class="st60" cx="590.3" cy="275.3" r="31.5"/>
					<linearGradient id="SVGID_57_" gradientUnits="userSpaceOnUse" x1="565.288" y1="287.371" x2="635.0109" y2="450.6699">
						<stop  offset="0" style="stop-color:#BDF7A3"/>
						<stop  offset="1" style="stop-color:#009EE0"/>
					</linearGradient>
					<circle class="st61" cx="590.3" cy="346" r="16.2"/>
				</g>
			</g>
			<g class="st0">
				<text transform="matrix(1 0 0 1 500.6729 879.0439)" class="st1"><tspan x="0" y="0" style="font-family:'Rubik-Regular'; font-size:65.9485px;">SPACE</tspan><tspan x="-53.3" y="63.1" style="font-family:'Rubik-Regular'; font-size:65.9485px;">EXPLORER</tspan></text>
				<g class="st1">
					<rect x="409.9" y="966.1" style="fill:none;" width="360.3" height="72.7"/>
					<text transform="matrix(0.9 0 0 1 417.2939 976.3838)"><tspan x="0" y="0" style="fill:#8D9092; font-family:'Rubik-Light'; font-size:14.4242px;">Lorem ipsum dolor sit amet, consectetur adipisicing elit, </tspan><tspan x="8.4" y="22" style="fill:#8D9092; font-family:'Rubik-Light'; font-size:14.4242px;">sed do eiusmod tempor incididunt ut labore et dolore </tspan><tspan x="144.3" y="44" style="fill:#8D9092; font-family:'Rubik-Light'; font-size:14.4242px;">magna aliqua. </tspan></text>
				</g>
			</g>
		</g>
	</g>
</g>
</svg>
