<?xml version="1.0" encoding="utf-8"?>
<!-- Generator: Adobe Illustrator 24.1.1, SVG Export Plug-In . SVG Version: 6.00 Build 0)  -->
<svg version="1.1" id="Layer_1" xmlns="http://www.w3.org/2000/svg" xmlns:xlink="http://www.w3.org/1999/xlink" x="0px" y="0px"
	 viewBox="0 0 1920 1080" style="enable-background:new 0 0 1920 1080;" xml:space="preserve">
<style type="text/css">
	.st0{display:none;opacity:0.335;}
	.st1{fill:#FFFFFF;}
	.st2{fill:url(#SVGID_1_);}
	.st3{clip-path:url(#SVGID_3_);}
	.st4{opacity:0.2;}
	.st5{fill:#63337D;}
	.st6{opacity:0.2;fill:#FFFFFF;}
	.st7{fill:#EAEAEA;}
	.st8{fill:#FF5656;}
	.st9{opacity:0.7;fill:#A4A4A4;}
	.st10{fill:#A31212;}
	.st11{opacity:0.2;fill:#A4A4A4;}
	.st12{fill:#498AC6;}
	.st13{fill:#39DEE5;}
	.st14{fill:#00BEC7;}
	.st15{fill:#63EFF1;}
	.st16{fill:#009DA1;}
	.st17{fill:url(#SVGID_4_);}
	.st18{fill:url(#SVGID_5_);}
	.st19{fill:url(#SVGID_6_);}
	.st20{fill:url(#SVGID_7_);}
	.st21{fill:#FFB02D;}
	.st22{display:none;}
	.st23{display:inline;}
	.st24{font-family:'Montserrat-Regular';}
	.st25{font-size:28.9389px;}
	.st26{fill:#C7A4E4;}
	.st27{font-family:'Montserrat-Bold';}
	.st28{font-size:128.158px;}
	.st29{font-size:103.3532px;}
	.st30{fill:none;}
	.st31{fill:#303055;}
	.st32{font-size:20.6706px;}
	.st33{letter-spacing:0.9;}
	.st34{font-size:24.8048px;}
	.st35{font-size:43.813px;}
</style>
<g>
	<g class="st0">
		
			<image style="display:inline;overflow:visible;" width="1996" height="1156" xlink:href="8B48F1A2.png"  transform="matrix(1 0 0 1 -4 -7)">
		</image>
	</g>
	<g>
		<rect x="-0.3" y="0" class="st1" width="1922.7" height="1083.7"/>
		<g>
			<g>
				<linearGradient id="SVGID_1_" gradientUnits="userSpaceOnUse" x1="1686.2042" y1="-16.6417" x2="875.0897" y2="732.0797">
					<stop  offset="0" style="stop-color:#6E3E6D"/>
					<stop  offset="0.2276" style="stop-color:#603860"/>
					<stop  offset="0.5811" style="stop-color:#4D3050"/>
					<stop  offset="0.6919" style="stop-color:#482E49"/>
					<stop  offset="1" style="stop-color:#3D2A39"/>
				</linearGradient>
				<path class="st2" d="M1922.4,0v863.7c-53.5,16-100.8,48.5-131.6,90.2c-0.7-0.1-1.4-0.1-2.1-0.2c-2-0.2-4-0.3-6.1-0.4
					c-2.1-0.1-4.1-0.2-6.1-0.2c-2,0-3.9-0.1-5.9-0.1c-11.2,0-22.4,0.8-33.5,2.5c-2.4,0.4-4.9,0.8-7.3,1.3c-3.3,0.6-6.6,1.3-10,2.1
					c-6,1.4-11.9,3.2-17.6,5.1c-1.5,0.5-2.9,1-4.3,1.5c-22-36.5-81-51-121.2-29.7c28.6-1,56.2,19,60.6,43.9
					c-15.7-23.2-58.5-26.3-78.4-5.8c-13.5-19.3-34.8-32.9-58.9-40.2c-45.3-13.8-100.5-5.7-132.2,26.7c-18.4-44.1-62.8-79-114.6-90.3
					c-51.8-11.2-109.5,1.6-149.1,33.1c12.4-88.6-76.9-177.4-178.2-177.3c33,12.2,55.6,43.3,54.2,74.8c-28.1-37.3-85.4-55.4-134-42.3
					c40.7-57.9,35.8-137.8-11.6-191.5c-47.5-53.7-134.3-77.6-208-57.2c16.7-28.7,15.4-64.9-3.1-92.8c-0.6-0.9-1.2-1.7-1.8-2.6
					c-20.1-28.2-57.8-45.9-95.6-45c87.7-39.8,123.4-148.9,73.1-223.7c-11.1,40.2-37,77.2-73,103.8c35.4-40.3,38.1-111.5,24.1-161
					c-7.8-27.7-41.3-62-71.9-88.8H1922.4z"/>
				<g>
					<defs>
						<path id="SVGID_2_" d="M1922.4,0v863.7c-53.5,16-100.8,48.5-131.6,90.2c-0.7-0.1-1.4-0.1-2.1-0.2c-2-0.2-4-0.3-6.1-0.4
							c-2.1-0.1-4.1-0.2-6.1-0.2c-2,0-3.9-0.1-5.9-0.1c-11.2,0-22.4,0.8-33.5,2.5c-2.4,0.4-4.9,0.8-7.3,1.3c-3.3,0.6-6.6,1.3-10,2.1
							c-6,1.4-11.9,3.2-17.6,5.1c-1.5,0.5-2.9,1-4.3,1.5c-22-36.5-81-51-121.2-29.7c28.6-1,56.2,19,60.6,43.9
							c-15.7-23.2-58.5-26.3-78.4-5.8c-13.5-19.3-34.8-32.9-58.9-40.2c-45.3-13.8-100.5-5.7-132.2,26.7
							c-18.4-44.1-62.8-79-114.6-90.3c-51.8-11.2-109.5,1.6-149.1,33.1c12.4-88.6-76.9-177.4-178.2-177.3
							c33,12.2,55.6,43.3,54.2,74.8c-28.1-37.3-85.4-55.4-134-42.3c40.7-57.9,35.8-137.8-11.6-191.5c-47.5-53.7-134.3-77.6-208-57.2
							c16.7-28.7,15.4-64.9-3.1-92.8c-0.6-0.9-1.2-1.7-1.8-2.6c-20.1-28.2-57.8-45.9-95.6-45c87.7-39.8,123.4-148.9,73.1-223.7
							c-11.1,40.2-37,77.2-73,103.8c35.4-40.3,38.1-111.5,24.1-161c-7.8-27.7-41.3-62-71.9-88.8H1922.4z"/>
					</defs>
					<clipPath id="SVGID_3_">
						<use xlink:href="#SVGID_2_"  style="overflow:visible;"/>
					</clipPath>
					<g class="st3">
						<g class="st4">
							<g>
								<g>
									<path class="st5" d="M1843.4,162.8C1720.8,93.5,1651.3,2.7,1685.3-44c34-46.7,156.7-29.1,279.3,40.2
										c122.6,69.2,192.1,160,158.1,206.7S1966,232,1843.4,162.8z M1957.1,6.6c-112.1-63.3-231.1-83.4-259.9-43.9
										C1668.4,2.2,1738.9,89,1851,152.3c112.1,63.3,231.1,83.4,259.9,43.9C2139.6,156.7,2069.2,69.9,1957.1,6.6z"/>
								</g>
								<g>
									<path class="st5" d="M1861.9,137.3c-98.6-55.7-156.2-126.4-131-161c25.2-34.6,122.2-18.1,220.8,37.6
										c98.6,55.7,156.2,126.4,131,161C2057.5,209.5,1960.6,193,1861.9,137.3z M1944.1,24.4C1846-31,1760.8-41.7,1742.8-17
										c-18,24.7,28.6,88.4,126.7,143.8c98.1,55.4,183.3,66.1,201.3,41.4C2088.9,143.5,2042.2,79.8,1944.1,24.4z"/>
								</g>
								<g>
									<path class="st5" d="M1884.8,105.8c-66.2-37.4-124-87.9-106.4-112.1c17.6-24.2,93.9,1,160.1,38.3
										c66.2,37.4,124,87.9,106.4,112.1C2027.3,168.4,1951,143.2,1884.8,105.8z M1930.9,42.5c-74.1-41.8-132.8-52.9-140.6-42.1
										c-7.9,10.8,28,53.1,102.1,95c74.1,41.8,132.8,52.9,140.6,42.1C2040.9,126.7,2005,84.3,1930.9,42.5z"/>
								</g>
								<g>
									<path class="st5" d="M1898.8,86.6c-8.4-4.7-81.8-46.9-67.8-66.2c14-19.2,88.2,21.8,96.6,26.6c8.4,4.7,81.8,46.9,67.8,66.2
										C1981.4,132.4,1907.2,91.3,1898.8,86.6z M1843.6,27.5c2.6,6.5,22,25.6,62.8,48.7c40.8,23,68.6,30.6,76.5,30
										c-2.6-6.5-22-25.6-62.8-48.7C1879.3,34.4,1851.4,26.9,1843.6,27.5z"/>
								</g>
							</g>
						</g>
						<g class="st4">
							<g>
								<g>
									<path class="st5" d="M791.2,257.4c-141.3,31.1-264,13.4-279.3-40.4c-15.3-53.8,83.4-120.4,224.7-151.5
										c141.3-31.1,264-13.4,279.3,40.4C1031.2,159.7,932.5,226.2,791.2,257.4z M740.1,77.5c-129.2,28.5-227.4,91-214.5,136.5
										c12.9,45.5,133,59.9,262.2,31.4c129.2-28.5,227.4-91,214.5-136.5C989.4,63.4,869.3,49,740.1,77.5z"/>
								</g>
								<g>
									<path class="st5" d="M782.9,228c-113.7,25-211.5,13.4-222.9-26.4c-11.3-39.9,68.8-90.7,182.5-115.7
										c113.7-25,211.5-13.4,222.9,26.4C976.7,152.2,896.5,203,782.9,228z M745.9,97.9c-113.1,24.9-180.3,72.2-172.2,100.7
										c8.1,28.5,92.7,42.3,205.8,17.4c113.1-24.9,180.3-72.2,172.2-100.7C943.6,86.8,859,73,745.9,97.9z"/>
								</g>
								<g>
									<path class="st5" d="M772.6,191.8c-76.3,16.8-157.7,19.2-165.6-8.7c-7.9-27.9,65.2-59.5,141.4-76.3
										C824.7,90,906.1,87.6,914,115.5C922,143.4,848.9,175,772.6,191.8z M751.8,118.8c-85.4,18.8-134.7,48.9-131.2,61.3
										c3.5,12.4,63.1,18.5,148.5-0.3c85.4-18.8,134.7-48.9,131.2-61.3C896.8,106.1,837.2,100,751.8,118.8z"/>
								</g>
								<g>
									<path class="st5" d="M766.3,169.6c-9.7,2.1-94.9,20.2-101.2-1.9c-6.3-22.2,78.5-41.5,88.2-43.7
										c9.7-2.1,94.9-20.2,101.2,1.9C860.8,148.1,776,167.5,766.3,169.6z M679.5,164.5c7.2,2.8,36.3,3.5,83.3-6.9
										c47-10.4,72.3-23,77.2-28.5c-7.2-2.8-36.3-3.5-83.3,6.9C709.7,146.4,684.4,159.1,679.5,164.5z"/>
								</g>
							</g>
						</g>
					</g>
				</g>
				<path class="st6" d="M1500,933.9c-45.3-13.8-100.5-5.7-132.2,26.7c-18.4-44.1-62.8-79-114.6-90.3
					c-51.8-11.2-109.5,1.6-149.1,33.1c12.4-88.6-76.9-177.4-178.2-177.3c33,12.2,55.6,43.3,54.2,74.8c-28.1-37.3-85.4-55.4-134-42.3
					c40.7-57.9,35.8-137.8-11.6-191.5c-47.5-53.7-134.3-77.6-208-57.2c16.7-28.7,15.4-64.9-3.1-92.8c13.2-8.2,27.5-14.8,43.1-18.1
					c28.8-6.2,60.9,2.5,78.9,23.3c57.7-10.3,121.2,14.3,151.5,58.6c42.2-6.3,91,6.9,120,34.5c29,27.7,40.8,68.5,30.2,105
					c5.6-7.7,16.4-12.2,26.8-11.2c10.3,1,19.8,7.4,23.4,16c-2.3-17,19.5-35.7,37.6-42.1c18.1-6.4,38.2-6.3,57.6-8.1
					c19.4-1.8,39.9-6.3,52.8-19.2l40.8,36c-21.4,13.6-44.6,29.8-50.6,52.4c-3.6,13.4-0.7,27.4-1.8,41.1
					c-1.2,13.7-8.6,28.9-23.6,32.6c19.1-1.6,38.9,8.7,52.4,20.6c13.5,11.9,20.6,29.3,18.8,46c8-5.4,14.4-3.8,24-0.9
					c9.6,2.9,17.4,10.1,20.1,18.7c33.1-17.5,79.2-9.8,110.2,10.5c31,20.2,49.6,52.5,58.3,85.6C1496.9,910,1498.8,921.9,1500,933.9z"
					/>
				<path class="st7" d="M1922.4,735.9v127.9c-53.5,16-100.8,48.5-131.6,90.2c-0.7-0.1-1.4-0.1-2.1-0.2c-2-0.2-4-0.3-6.1-0.4
					c-2-0.1-4.1-0.2-6.1-0.3c-2,0-3.9-0.1-5.9-0.1c-11.2,0-22.4,0.8-33.5,2.5c-2.4,0.4-4.9,0.8-7.3,1.3c-3.3,0.6-6.6,1.3-9.9,2.1
					c-6,1.5-11.9,3.2-17.6,5.1c-1.5,0.5-2.9,1-4.3,1.5c-22-36.5-81-51-121.2-29.7c28.6-1,56.2,19,60.6,44
					c-15.7-23.1-58.5-26.3-78.4-5.8c-39-55.8-142.5-63.1-191.1-13.5c-18.4-44.1-62.8-79.1-114.6-90.3
					c-51.8-11.3-109.5,1.6-149.1,33.1c12.4-88.5-76.9-177.4-178.2-177.3c33,12.2,55.6,43.3,54.2,74.8c-28.1-37.3-85.3-55.4-134-42.3
					c40.6-57.8,35.7-137.8-11.7-191.5c-47.5-53.7-134.3-77.6-208-57.2c17.2-29.6,15.3-67.2-4.8-95.4c-20.2-28.2-57.8-45.9-95.6-45
					c87.8-39.7,123.4-148.9,73.1-223.7c-11.1,40.2-37,77.2-73,103.9c35.4-40.3,38.2-111.5,24.1-161c-7.9-27.7-41.3-62-71.9-88.8
					h82.6c26.8,28.1,46,61.9,54.4,97.9c38.5-1.8,78.7,26.3,88.1,59.3c9.4,33-3.4,68.5-26.1,95.9c52.7,9.6,98.9,47.9,113.3,93.5
					c14.4,45.7-2.5,97.8-42.1,129.9c37.7-10.7,83.2,10,95,43.3c42.4-3.3,86.1,18.2,110.3,49c24.2,30.8,28.1,73.1,9.6,106.9
					c37.5-1.4,75.8,22.2,86.8,53.8c34.6-3.1,82,5.1,108,25.6c25.9,20.4,41.4,50.7,41.7,81.3c24.8-9.7,61.1-6.5,79.9,10.8
					c28.2-15.3,63.8-19.4,95.5-11.1c31.7,8.3,59,28.9,73.1,55.2c8.3-11.1,26.7-19.7,41.8-20.2c15.2-0.4,30.4,6,39.5,16.7
					c10.6-27.4,37.4-49.4,69.1-56.8c31.7-7.5,67.4-0.1,92,19c14.7-14.8,47.2-15,58.2,2.1c17-40.7,70.1-67,118.4-58.6
					C1873.7,768.4,1896.3,748.1,1922.4,735.9z"/>
				<g>
					<path class="st1" d="M666.9,381.7c10.8,4.3,24.6,3.9,33.5-3.1c8.7-6.8,10.9-18.1,9.8-28.3c-3.1-26.2-36.4-54.8-66-35.1
						C616.4,333.9,642.1,371.9,666.9,381.7z"/>
					<path class="st1" d="M1769.9,916.7c4.4-5.9,5.7-14.1,1.4-20.1c-4.2-5.9-12.6-8.4-20.5-8.9c-20.3-1.1-45.7,15.4-33.9,35
						C1728,941.2,1759.7,930.3,1769.9,916.7z"/>
					<path class="st1" d="M1653.7,901.1c4.9-0.8,9.5-3.8,10.7-8.1c1.2-4.2-1.1-8.5-4.3-11.7c-8.1-8.3-27.3-11.2-32.1,1.8
						C1623.5,895.2,1642.6,902.9,1653.7,901.1z"/>
					<path class="st1" d="M676.1,449.8c3.5,4.8,10,8.2,16.4,7.3c6.3-0.9,11.1-5.5,13.9-10.4c7.4-12.8,1.7-34.5-18.5-33.2
						C669,414.8,668,438.9,676.1,449.8z"/>
				</g>
			</g>
			<g>
				<g>
					<g>
						<path class="st8" d="M1226.4,555.4L1092.1,421c24.7-19.1,101.2-27.4,170.9-30.8c68.5-3.4,130.5-2.2,130.5-2.2l-122.7,123
							L1226.4,555.4z"/>
						<path class="st9" d="M1270.8,510.9l-44.4,44.5L1092.1,421c24.7-19.1,101.2-27.4,170.9-30.8c-1.8,5.3-3.3,10.7-4.5,16.2
							C1251,440.3,1255.4,477.2,1270.8,510.9z"/>
						<path class="st8" d="M1423.2,752.5l-134.3-134.5l41.7-24.7l168.3-99.8c0,0-15.1,124.7-43.3,202.9
							C1446.2,722.3,1435.4,743.1,1423.2,752.5z"/>
						<path class="st9" d="M1423.2,752.5l-134.3-134.5l41.7-24.7c1.1,1.2,2.2,2.3,3.3,3.4c35.7,37.5,75.8,73.1,121.7,99.7
							C1446.2,722.3,1435.4,743.1,1423.2,752.5z"/>
						<path class="st10" d="M1429.3,758.6L1086,414.9l0,0c7-5.5,17.8-4.9,24,1.4l320.8,321.3C1437,743.7,1436.3,753.2,1429.3,758.6
							L1429.3,758.6z"/>
					</g>
					<g>
						<g>
							<path class="st1" d="M1326.4,612.5c53.6-28.2,133.5-72.3,179.8-108.1c91.7-71,137.6-126.4,159.9-166.9
								c2.1-3.8,4-7.6,5.7-11.1c2-4,3.6-7.9,5.1-11.6c16.2-40.5,6-60.3,6-60.3s-21-11.5-68.6-2.5c-4.3,0.8-8.9,1.8-13.7,3
								c-4.2,1-8.7,2.2-13.3,3.6c-48.4,14.3-116.7,47.3-208.4,118.3c-46.2,35.8-106.2,99.9-144.8,143.2L1326.4,612.5z"/>
							<path class="st11" d="M1302.2,588.2l24.2,24.3c53.6-28.2,133.5-72.3,179.8-108.1c91.7-71,137.6-126.4,159.9-166.9
								c2.1-3.8,4-7.6,5.7-11.1c2-4,3.6-7.9,5.1-11.6c16.2-40.5,6-60.3,6-60.3S1521.8,444.8,1302.2,588.2z"/>
							<g>
								<path class="st8" d="M1677,314.8l-62.7-62.8c47.7-9,68.6,2.5,68.6,2.5S1693.2,274.3,1677,314.8z"/>
								<path class="st12" d="M1666.1,337.5l-78.8-78.9c4.6-1.4,9-2.6,13.3-3.6l71.3,71.4C1670.2,330,1668.2,333.7,1666.1,337.5z"/>
							</g>
						</g>
						<polygon class="st10" points="1326.4,612.5 1284.8,644.8 1192.5,552.4 1234.1,520.1 						"/>
						<g>
							<ellipse class="st1" cx="1510.4" cy="388.1" rx="83.7" ry="73.7"/>
							<ellipse class="st7" cx="1510.4" cy="388.1" rx="66" ry="58.1"/>
							<g>
								<path class="st13" d="M1548,425.8c-23.6,18.3-59.7,16.3-80.4-4.5c-6.4-6.4-10.6-13.8-12.6-21.5
									c-4.7-17.5,1.4-36.7,17.8-49.4c23.6-18.3,59.7-16.3,80.4,4.5c12.8,12.8,16.8,29.8,12.5,45.1
									C1563,409.8,1557.1,418.8,1548,425.8z"/>
								<path class="st14" d="M1548,425.8c-23.6,18.3-59.7,16.3-80.4-4.5c-6.4-6.4-10.6-13.8-12.6-21.5c2.7-9.6,8.6-18.7,17.7-25.7
									c23.6-18.3,59.7-16.3,80.4,4.5c6.4,6.4,10.6,13.8,12.6,21.5C1563,409.8,1557.1,418.8,1548,425.8z"/>
								<path class="st13" d="M1524.9,390.4c-10,7.8-25.3,6.9-34.1-1.9c-8.8-8.8-7.8-22.3,2.2-30c10-7.8,25.3-6.9,34.1,1.9
									C1535.9,369.2,1534.9,382.6,1524.9,390.4z"/>
							</g>
						</g>
						<path class="st9" d="M1297.4,635l-12.6,9.8l-92.3-92.4l41.7-32.3l16.5,16.5C1247.9,555.8,1253.9,588.3,1297.4,635z"/>
					</g>
					<g>
						<path class="st9" d="M1666.1,337.5l-30.7-30.8c2.8-3,5.6-5.9,8.2-8.6l28.3,28.3C1670.2,330,1668.2,333.7,1666.1,337.5z"/>
						<path class="st9" d="M1676.9,314.8l-25.3-25.4c20.3-21.9,31.3-34.9,31.3-34.9S1693.1,274.3,1676.9,314.8z"/>
					</g>
				</g>
				<g>
					<path class="st8" d="M1407.9,500.3C1384,518.8,1211,637.8,1211,637.8l-16.8-16.8c0,0,156.2-135.8,180.1-154.3
						c23.9-18.5,52.8-11,52.8-11S1431.7,481.8,1407.9,500.3z"/>
					<path class="st9" d="M1204.6,631.3l-10.4-10.4c0,0,156.2-135.8,180.1-154.3c23.9-18.5,52.8-11,52.8-11S1270.8,561,1204.6,631.3
						z"/>
					<path class="st10" d="M1215.9,642.7l-26.6-26.6l0,0c5-3.9,12.6-3.4,17,1l10.7,10.7C1221.4,632.1,1220.9,638.8,1215.9,642.7
						L1215.9,642.7z"/>
				</g>
			</g>
			<g>
				<path class="st14" d="M1106.1,248.6c0,11.6-2.2,22.7-6.1,33.1c-15.7,41-59.7,70.6-111.6,70.6c-65,0-117.7-46.4-117.7-103.7
					c0-19.6,6.2-37.9,16.9-53.6c0,0,0,0,0,0c20.6-30,58.1-50.1,100.8-50.1C1053.4,145,1106.1,191.4,1106.1,248.6z"/>
				<path class="st13" d="M1106.1,248.6c0,11.6-2.2,22.7-6.1,33.1c-8.9,13.1-21,24.2-35.3,32.7c0.1-1-0.1-2-0.4-2.9
					c-2.8-7.6-18.1-10.1-34.2-5.5c-16.1,4.6-26.8,14.5-24,22.1c0.5,1.4,1.4,2.6,2.6,3.6c-3.2,0.2-6.4,0.4-9.6,0.4
					c-65,0-117.7-46.4-117.7-103.7c0-11.6,2.2-22.8,6.2-33.2c0,0,0,0,0,0c20.6-30,58.1-50.1,100.8-50.1
					C1053.4,145,1106.1,191.4,1106.1,248.6z"/>
				<path class="st15" d="M1099.1,213.3c-15.8-21.1-40.1-39-70.5-49.8c-19.5-6.9-39.4-10.2-58.6-10.2c-13.5,0-26.7,1.6-39,4.8
					c17-8.4,36.6-13.2,57.4-13.2C1039.3,145,1082.7,173.4,1099.1,213.3z"/>
				<g>
					<path class="st14" d="M966,225.3c0.6,1.6,1,3.2,1.2,4.8c1.7,12.4-6.7,24.4-20.7,28.4c-14,3.9-28.8-1.6-35.5-12.6
						c-0.9-1.4-1.6-3-2.2-4.6c-5-13.9,3.7-28.8,19.5-33.2C944.1,203.7,961,211.4,966,225.3z"/>
					<path class="st16" d="M967.2,230.1c1.7,12.4-6.7,24.4-20.7,28.4c-14,3.9-28.8-1.6-35.5-12.6c-1.7-12.3,6.7-24.4,20.7-28.4
						C945.7,213.6,960.5,219.1,967.2,230.1z"/>
				</g>
				<g>
					<path class="st14" d="M1019.6,200.2c-0.6,1.1-1.2,2.1-2,3c-5.8,7.1-16.6,9.8-25.9,6c-9.3-3.8-14-12.9-11.5-21.3
						c0.3-1.1,0.8-2.2,1.3-3.3c4.9-9.3,17.4-13.3,27.9-8.9C1020,179.9,1024.5,191,1019.6,200.2z"/>
					<path class="st16" d="M1017.6,203.2c-5.8,7.1-16.6,9.8-25.9,6c-9.3-3.8-14-12.9-11.5-21.3c5.8-7.1,16.6-9.8,26-6
						C1015.5,185.7,1020.1,194.8,1017.6,203.2z"/>
				</g>
				<g>
					<path class="st14" d="M1076.1,223.1c0.2,0.9,0.3,1.7,0.2,2.6c-0.1,6.6-5.5,12.4-13.1,13.5c-7.6,1.2-14.9-2.7-17.5-8.8
						c-0.3-0.8-0.6-1.6-0.8-2.5c-1.5-7.6,4.3-14.8,12.9-16.1C1066.4,210.4,1074.6,215.5,1076.1,223.1z"/>
					<path class="st16" d="M1076.4,225.7c-0.1,6.6-5.5,12.4-13.1,13.5c-7.6,1.2-14.9-2.7-17.5-8.8c0.1-6.6,5.5-12.4,13.1-13.5
						C1066.5,215.7,1073.8,219.6,1076.4,225.7z"/>
				</g>
				<g>
					<path class="st14" d="M1003,273.7c0.5,0.5,0.9,1.1,1.2,1.6c2.6,4.3,1.5,9.9-3,13.1c-4.5,3.2-10.9,3-15.1-0.2
						c-0.6-0.4-1.1-0.9-1.5-1.4c-4.1-4.5-3.3-11.1,1.8-14.7C991.4,268.5,998.9,269.2,1003,273.7z"/>
					<path class="st16" d="M1004.2,275.3c2.6,4.3,1.5,9.9-3,13.1c-4.5,3.2-10.9,3-15.1-0.2c-2.6-4.3-1.5-9.9,3-13.1
						C993.6,271.9,1000,272.1,1004.2,275.3z"/>
				</g>
				<path class="st16" d="M1014.8,254.1h-0.3c-4.3,0-4.4,6,0,6h0.3C1019.2,260,1019.2,254.1,1014.8,254.1z"/>
				<path class="st16" d="M947.2,281.8c-6.5,0-6.5,8.9,0,8.9C953.6,290.7,953.6,281.8,947.2,281.8z"/>
				<path class="st16" d="M917.7,185.1c-7.9,0-8,10.9,0,10.9C925.7,196,925.7,185.1,917.7,185.1z"/>
				<path class="st16" d="M967.8,170c-3,0-3,4,0,4C970.8,174,970.8,170,967.8,170z"/>
				<path class="st16" d="M1040.2,180.5c-4.2,0-4.2,5.8,0,5.8C1044.4,186.3,1044.4,180.5,1040.2,180.5z"/>
				<path class="st16" d="M1086.7,249.6c-5.9,0-5.9,8.1,0,8.1C1092.6,257.8,1092.6,249.6,1086.7,249.6z"/>
				<path class="st16" d="M899.4,211.5c-3.8,0-3.8,5.2,0,5.2C903.2,216.8,903.2,211.5,899.4,211.5z"/>
				<path class="st16" d="M1054.3,282c-2.7,0-4.9,2-4.9,4.3c0,2.3,2.2,4.3,4.9,4.3c2.7,0,4.9-2,4.9-4.3
					C1059.2,284,1056.9,282,1054.3,282z"/>
			</g>
			<g>
				<path class="st1" d="M1626,510.5l-2.7-7l-2.7,7c-3.4,9-10.6,16.4-20,21l0,0l0,0c9.4,4.5,16.6,12,20,21l2.7,7l2.7-7
					c3.4-9,10.6-16.4,20-21l0,0l0,0C1636.6,527,1629.4,519.5,1626,510.5z"/>
				<path class="st1" d="M1225.6,239l-2.7-7l-2.7,7c-3.4,9-10.6,16.4-20,21l0,0l0,0c9.4,4.5,16.6,12,20,21l2.7,7l2.7-7
					c3.4-9,10.6-16.4,20-21l0,0l0,0C1236.2,255.5,1229.1,248,1225.6,239z"/>
				<path class="st1" d="M1670.4,469.5l-1.6-4.1l-1.6,4.1c-2,5.3-6.3,9.8-11.9,12.5l0,0l0,0c5.6,2.7,9.9,7.2,11.9,12.5l1.6,4.1
					l1.6-4.1c2-5.3,6.3-9.8,11.9-12.5l0,0l0,0C1676.7,479.3,1672.5,474.9,1670.4,469.5z"/>
				<path class="st1" d="M1312.2,285.6l-1.6-4.1l-1.6,4.1c-2,5.3-6.3,9.8-11.9,12.5h0h0c5.6,2.7,9.9,7.2,11.9,12.5l1.6,4.1l1.6-4.1
					c2-5.3,6.3-9.8,11.9-12.5l0,0l0,0C1318.5,295.4,1314.3,291,1312.2,285.6z"/>
				<path class="st1" d="M1412.9,200.7l-2-5.3l-2,5.3c-2.6,6.9-8.1,12.6-15.3,16.1l0,0l0,0c7.2,3.5,12.7,9.2,15.3,16.1l2,5.3l2-5.3
					c2.6-6.9,8.1-12.6,15.3-16.1l0,0l0,0C1421,213.3,1415.5,207.5,1412.9,200.7z"/>
			</g>
			
				<linearGradient id="SVGID_4_" gradientUnits="userSpaceOnUse" x1="1047.064" y1="361.8098" x2="976.4667" y2="405.1512" gradientTransform="matrix(0.9992 -4.020000e-02 4.020000e-02 0.9992 -222.6059 -245.7326)">
				<stop  offset="0" style="stop-color:#FDC000"/>
				<stop  offset="1" style="stop-color:#FD49C5"/>
			</linearGradient>
			<path class="st17" d="M859.5,64.8c0,0-62.2,42.7-65.6,44.8c-3.4,2-7.6,1.8-9.3-0.4c-1.7-2.3-0.4-5.7,3.1-7.8
				C791,99.4,859.5,64.8,859.5,64.8z"/>
			
				<linearGradient id="SVGID_5_" gradientUnits="userSpaceOnUse" x1="1886.6312" y1="958.4358" x2="1735.5376" y2="1051.196" gradientTransform="matrix(0.9992 -4.020000e-02 4.020000e-02 0.9992 -222.6059 -245.7326)">
				<stop  offset="0" style="stop-color:#FDC000"/>
				<stop  offset="1" style="stop-color:#FD49C5"/>
			</linearGradient>
			<path class="st18" d="M1746.6,617.1c0,0-133.2,91.5-140.5,95.8c-7.3,4.3-16.2,3.9-19.9-0.9c-3.7-4.8-0.8-12.3,6.6-16.6
				C1600.1,691.1,1746.6,617.1,1746.6,617.1z"/>
			
				<linearGradient id="SVGID_6_" gradientUnits="userSpaceOnUse" x1="2029.2706" y1="938.2013" x2="1931.6664" y2="998.1229" gradientTransform="matrix(0.9992 -4.020000e-02 4.020000e-02 0.9992 -222.6059 -245.7326)">
				<stop  offset="0" style="stop-color:#FDC000"/>
				<stop  offset="1" style="stop-color:#FD49C5"/>
			</linearGradient>
			<path class="st19" d="M1872.2,597.9c0,0-86,59.1-90.8,61.9c-4.7,2.8-10.5,2.5-12.9-0.6c-2.4-3.1-0.5-7.9,4.2-10.7
				C1777.5,645.7,1872.2,597.9,1872.2,597.9z"/>
			
				<linearGradient id="SVGID_7_" gradientUnits="userSpaceOnUse" x1="1815.3824" y1="469.3811" x2="1717.7784" y2="529.3027" gradientTransform="matrix(0.9992 -4.020000e-02 4.020000e-02 0.9992 -222.6059 -245.7326)">
				<stop  offset="0" style="stop-color:#FDC000"/>
				<stop  offset="1" style="stop-color:#FD49C5"/>
			</linearGradient>
			<path class="st20" d="M1639.6,138.1c0,0-86,59.1-90.8,61.9c-4.7,2.8-10.5,2.5-12.9-0.6c-2.4-3.1-0.5-7.9,4.2-10.7
				C1545,185.8,1639.6,138.1,1639.6,138.1z"/>
			<path class="st21" d="M1788.5,411.2c-8.8,0-8.8,12,0,12C1797.3,423.2,1797.3,411.2,1788.5,411.2z"/>
			<path class="st21" d="M1837.9,212.3c-1.1-3.5-5.2-6.6-9.5-6.4c-4,0.2-7.5,2.1-9,5.4c-1.9,4-0.2,8.6,4,10.9
				c0.2,0.1,0.4,0.2,0.7,0.4c2.5,1.4,6.1,1.4,8.6,0c0.2-0.1,0.4-0.2,0.7-0.4C1837.1,220.1,1839.1,216.1,1837.9,212.3z"/>
			<path class="st21" d="M1279.1,161.7c-7.8,0-7.8,10.6,0,10.6C1286.9,172.4,1286.9,161.7,1279.1,161.7z"/>
			<path class="st21" d="M776.7,205.3c-7.6,0-7.6,10.4,0,10.4C784.3,215.7,784.3,205.3,776.7,205.3z"/>
			<path class="st21" d="M973.9,425.7c-8.8,0-8.8,12,0,12C982.7,437.6,982.7,425.7,973.9,425.7z"/>
			<path class="st21" d="M976.3,486c-14.2,0-14.2,19.4,0,19.4C990.5,505.4,990.5,486,976.3,486z"/>
			<path class="st21" d="M1239.2,760.2c-9.3,0-9.3,12.7,0,12.7C1248.4,772.8,1248.5,760.2,1239.2,760.2z"/>
			<path class="st21" d="M1279.1,726.9c-7.6,0-14.9,5.9-14.5,12.8c0.4,6.9,6.4,12.8,14.5,12.8c7.6,0,14.9-5.9,14.5-12.8
				C1293.3,732.7,1287.2,726.9,1279.1,726.9z"/>
			<path class="st21" d="M1835.5,465.2c-5.2,0-10.3,4.1-10,8.8c0.2,4.8,4.4,8.8,10,8.8c5.2,0,10.3-4.1,10-8.8
				C1845.2,469.2,1841.1,465.2,1835.5,465.2z"/>
		</g>
		<g class="st22">
			<g class="st23">
				<g>
					<g>
						<text transform="matrix(1.1357 0 0 1 1052.4199 97.4316)" class="st1 st24 st25">SERVICE</text>
					</g>
					<g>
						<text transform="matrix(1.1357 0 0 1 1284.9385 97.4297)" class="st1 st24 st25">ABOUT</text>
					</g>
					<g>
						<text transform="matrix(1.1357 0 0 1 1484.2441 97.4316)" class="st1 st24 st25">CARRERS</text>
					</g>
					<g>
						<text transform="matrix(1.1357 0 0 1 1739.1846 97.4316)" class="st1 st24 st25">BLOG</text>
					</g>
				</g>
			</g>
			<g class="st23">
				<g>
					<path class="st5" d="M111.6,882c0,4.8-4.4,8.7-9.9,8.7c-5.5,0-9.9-3.9-9.9-8.7c0-4.8,4.4-8.7,9.9-8.7
						C107.2,873.3,111.6,877.2,111.6,882z"/>
					<path class="st26" d="M149.9,882c0,4.8-4.4,8.7-9.9,8.7c-5.5,0-9.9-3.9-9.9-8.7c0-4.8,4.4-8.7,9.9-8.7
						C145.5,873.3,149.9,877.2,149.9,882z"/>
					<path class="st26" d="M188.2,882c0,4.8-4.4,8.7-9.9,8.7c-5.5,0-9.9-3.9-9.9-8.7c0-4.8,4.4-8.7,9.9-8.7
						C183.8,873.3,188.2,877.2,188.2,882z"/>
				</g>
				<g>
					<g>
						<g>
							<text transform="matrix(1.1357 0 0 1 91.8164 573.8662)" class="st21 st27 st28">START</text>
						</g>
						<g>
							<text transform="matrix(1.1357 0 0 1 91.8164 455.0005)" class="st21 st27 st29">LET’S</text>
						</g>
					</g>
				</g>
				<g>
					<rect x="91.8" y="631.6" class="st30" width="541.5" height="99.2"/>
					<text transform="matrix(1.1357 0 0 1 91.814 646.2324)"><tspan x="0" y="0" class="st31 st24 st32 st33">Lorem ipsum dolor sit amet, consectetuer adipi</tspan><tspan x="452.7" y="0" class="st31 st24 st32 st33">-</tspan><tspan x="0" y="24.8" class="st31 st24 st32 st33">scing elit, sed diam nonummy nibh euismod tin</tspan><tspan x="455.2" y="24.8" class="st31 st24 st32 st33">-</tspan><tspan x="0" y="49.6" class="st31 st24 st32 st33">cidunt ut laoreet dolore magna aliquam erat vo</tspan><tspan x="454.1" y="49.6" class="st31 st24 st32 st33">-</tspan><tspan x="0" y="74.4" class="st31 st24 st32 st33">lutpat.</tspan></text>
				</g>
				<path class="st8" d="M388.7,827.5H93.8c-1.1,0-2-0.9-2-2v-63.2c0-1.1,0.9-2,2-2h294.9c1.1,0,2,0.9,2,2v63.2
					C390.6,826.6,389.8,827.5,388.7,827.5z"/>
				<g>
					<text transform="matrix(1.1357 0 0 1 152.8408 800.9287)" class="st1 st24 st34 st33">Get Started</text>
				</g>
				<g>
					<g>
						<g>
							<text transform="matrix(1.1357 0 0 1 149.8994 101.2266)" class="st5 st27 st35">Company</text>
						</g>
						<g>
							<path class="st5" d="M105.8,84.1c7.1-3,12-7.4,16.2-12.6c-2.7-1.1-5.7-1.8-9-1.8c-11.4,0-20.7,7.9-21.3,17.8
								C96.5,86.8,101.3,86,105.8,84.1z"/>
							<path class="st5" d="M134.4,88.8c0-0.1,0-0.1,0-0.2c0-5.7-2.9-10.7-7.4-14.2c-2.9,3.6-6.1,6.9-10,9.7
								C121.6,87.2,128.3,88.5,134.4,88.8z"/>
							<path class="st5" d="M116.4,90v17.1c8.1-1.1,14.7-6.3,17-13.2C127.6,93.7,121.5,92.5,116.4,90z"/>
							<path class="st5" d="M110.5,87.9c-5.9,2.7-12.1,3.6-18.2,4.8c2,7.7,9.2,13.5,18.2,14.5V87.9z"/>
						</g>
					</g>
				</g>
			</g>
		</g>
	</g>
</g>
</svg>
